<?xml version="1.0" standalone="no"?>
<!DOCTYPE svg PUBLIC "-//W3C//DTD SVG 1.1//EN" "http://www.w3.org/Graphics/SVG/1.1/DTD/svg11.dtd">
<svg xmlns="http://www.w3.org/2000/svg"><metadata>This SVG WebFont was generated by YouWorkForThem.
Copyright Â© 2020 by Kwanchai Akkaratammagul. All rights reserved.</metadata><defs><font horiz-adv-x="0" id="ywftsvg"><font-face ascent="1536" bbox="-1137 -594 2433 2425" cap-height="1462" descent="-512" font-family="" font-stretch="normal" font-weight="700" panose-1="0 0 5 0 0 0 0 0 0 0" underline-position="0" underline-thickness="0" unicode-range="U+000D-FB02" units-per-em="2048" x-height="1044"/><missing-glyph horiz-adv-x="1228"/><glyph d="M1171 1550l189 -180l-189 -182l-188 182zM258 1044v91q0 170 85 261t243 91q109 0 225 -51v-236q-70 35 -135 35q-117 0 -117 -113v-78h252v-237h-252v-807h-301v807h-195v237h195zM1321 0h-299v1044h299v-1044z" glyph-name="uniFB01" horiz-adv-x="1456" unicode="fi"/><glyph d="M258 1044v91q0 170 85 261t243 91q109 0 225 -51v-236q-70 35 -135 35q-117 0 -117 -113v-78h252v-237h-252v-807h-301v807h-195v237h195zM1024 0v1462h299v-1462h-299z" glyph-name="uniFB02" horiz-adv-x="1460" unicode="fl"/><glyph d="M1569 1241q254 0 394 -139t140 -389v-1225h-301v1251q0 121 -64.5 189.5t-181 68.5t-182 -68.5t-65.5 -189.5v-28v-1223h-299v1223q0 135 -81 211.5t-222 76.5q-229 0 -304 -200v-4q102 -78 103 -230v-256q0 -68 67 -67h109v-242h-252q-102 0 -163.5 62.5t-61.5 166.5 v336q0 119 -103 178v33q37 217 198 341t407 124q291 0 454 -164q142 164 408 164z" glyph-name="uni0E24_uni0E45.rlig" horiz-adv-x="2228" unicode="ฤๅ"/><glyph d="M1554 1241q254 0 394.5 -139t140.5 -389v-1225h-301v1251q0 121 -65.5 189.5t-182.5 68.5q-115 0 -180.5 -68.5t-65.5 -189.5v-28v-1223h-301v1223q0 133 -77.5 210.5t-213.5 77.5q-221 0 -290 -198v-4q121 -80 120 -242v-326q0 -104 -61 -166.5t-164 -62.5h-246v242h103 q70 0 69 67v246q0 133 -122 188v33q37 217 194.5 341t396.5 124q281 0 447 -162q139 162 405 162z" glyph-name="uni0E26_uni0E45.rlig" horiz-adv-x="2213" unicode="ฦๅ"/><glyph glyph-name=".notdef" horiz-adv-x="1228"/><glyph glyph-name="glyph1"/><glyph glyph-name="glyph2" horiz-adv-x="681"/><glyph glyph-name="glyph3" horiz-adv-x="1228"/><glyph glyph-name="glyph3" horiz-adv-x="1228"/><glyph glyph-name="space" horiz-adv-x="614" unicode=" "/><glyph d="M428 469h-246l-35 594v399h316v-399zM494 162l-189 -180l-188 180l188 182z" glyph-name="exclam" horiz-adv-x="610" unicode="!"/><glyph d="M352 1085h-229v377h229v-377zM723 1085h-229v377h229v-377z" glyph-name="quotedbl" horiz-adv-x="845" unicode="&quot;"/><glyph d="M1548 1092v-267h-284l-54 -250h209v-266h-268l-68 -309h-325l67 309h-241l-68 -309h-326l68 309h-225v266h282l56 250h-209v267h266l68 309h327l-67 -309h239l68 309h328l-68 -309h225zM643 575h240l55 250h-242z" glyph-name="numbersign" horiz-adv-x="1581" unicode="#"/><glyph d="M1034 391q0 -152 -89 -256t-249 -143v-115h-229v94q-176 8 -340 80v256q209 -92 371 -92q231 0 231 174q0 68 -41 111t-139 80l-125 47q-330 125 -330 405q0 154 98.5 254t274.5 129v105h229v-99q139 -16 269 -75v-256q-199 92 -355 92q-102 0 -156.5 -39t-54.5 -111 q0 -59 40 -100t132 -78l138 -51q325 -127 325 -412z" glyph-name="dollar" horiz-adv-x="1163" unicode="$"/><glyph d="M422 758q-152 0 -246 92t-94 241.5t94 241.5t246 92q154 0 248 -92t94 -241.5t-94 -241.5t-248 -92zM623 0h-316l828 1401h315zM421.5 938q63.5 0 100.5 41t37 112.5t-37 112.5t-100.5 41t-100 -41t-36.5 -112.5t36.5 -112.5t100 -41zM1333 -25q-152 0 -246 92.5t-94 242 t94.5 241.5t245.5 92q154 0 248 -92t94 -241.5t-94 -242t-248 -92.5zM1333.5 156q63.5 0 100 41t36.5 112.5t-36.5 112.5t-100 41t-99.5 -41t-36 -112.5t36 -112.5t99.5 -41z" glyph-name="percent" horiz-adv-x="1757" unicode="%"/><glyph d="M1284 260l256 -260h-338l-88 90q-176 -115 -434 -115q-266 0 -420 117t-154 322q0 147 77 239t210 164l-37 39q-133 135 -133 287q0 156 118 250t310.5 94t310 -94.5t117.5 -249.5q0 -129 -76.5 -215t-216.5 -164l267 -270q53 125 53 284h315q0 -319 -137 -518zM596 958 l29 -28q170 88 170 194q0 61 -39 98.5t-105 37.5q-68 0 -105.5 -37t-37.5 -99q0 -80 88 -166zM680 227q129 0 225 72l-332 338q-133 -94 -133 -211q0 -92 65.5 -145.5t174.5 -53.5z" glyph-name="ampersand" horiz-adv-x="1574" unicode="&amp;"/><glyph d="M352 1085h-229v377h229v-377z" glyph-name="quotesingle" horiz-adv-x="475" unicode="'"/><glyph d="M788 -262h-301q-393 356 -393 911t393 912h301q-360 -403 -360 -911.5t360 -911.5z" glyph-name="parenleft" horiz-adv-x="821" unicode="("/><glyph d="M334 -262h-301q360 403 360 911t-360 912h301q393 -356 393 -911.5t-393 -911.5z" glyph-name="parenright" horiz-adv-x="821" unicode=")"/><glyph d="M711 1040l-111 -26l72 -82l90 -123l-170 -123l-90 123l-56 92l-57 -92l-90 -123l-170 123l90 123l72 84l-109 24l-145 47l63 199l148 -45l102 -43l-10 111v153h211v-153l-10 -111l102 43l148 45l63 -199z" glyph-name="asterisk" horiz-adv-x="890" unicode="*"/><glyph d="M692 231h-278v328h-346v262h346v328h278v-328h346v-262h-346v-328z" glyph-name="plus" horiz-adv-x="1105" unicode="+"/><glyph d="M281 -225h-211l90 375h256z" glyph-name="comma" horiz-adv-x="485" unicode=","/><glyph d="M829 434h-780v230h780v-230z" glyph-name="hyphen" horiz-adv-x="878" unicode="-"/><glyph d="M387 135l-160 -151l-157 151l157 150z" glyph-name="period" horiz-adv-x="456" unicode="."/><glyph d="M406 -172h-336l542 1671h336z" glyph-name="slash" horiz-adv-x="1017" unicode="/"/><glyph d="M729 -25q-301 0 -478 196t-177 529.5t177 529t478 195.5q303 0 480 -195.5t177 -529t-177 -529.5t-480 -196zM729.5 248q149.5 0 236.5 120.5t87 331.5t-87 332t-236.5 121t-235.5 -121t-86 -332t86 -331.5t235.5 -120.5z" glyph-name="zero" horiz-adv-x="1460" unicode="0"/><glyph d="M760 0h-318v1059h-6l-362 -236v322l395 256h291v-1401z" glyph-name="one" horiz-adv-x="894" unicode="1"/><glyph d="M1126 0h-1015v225l538 492q127 121 127 231q0 209 -284 209q-195 0 -369 -88v264q209 92 436 92q260 0 405.5 -116.5t145.5 -325.5q0 -223 -217 -420l-305 -287v-8h538v-268z" glyph-name="two" horiz-adv-x="1236" unicode="2"/><glyph d="M559 -25q-258 0 -448 93v270q188 -94 411 -94q291 0 291 180q0 82 -60.5 125t-172.5 43h-224v229h224q92 0 141 42t49 118q0 176 -250 176q-188 0 -366 -94v270q182 92 421 92q250 0 389.5 -106.5t139.5 -294.5q0 -209 -166 -303v-8q209 -88 209 -324 q0 -197 -154.5 -305.5t-433.5 -108.5z" glyph-name="three" horiz-adv-x="1220" unicode="3"/><glyph d="M1049 0h-318v301h-670v219l549 881h439v-832h182v-268h-182v-301zM725 1061l-328 -492h334v492h-6z" glyph-name="four" horiz-adv-x="1329" unicode="4"/><glyph d="M662 930q246 0 380 -120t134 -341q0 -240 -158 -367t-455 -127q-256 0 -444 93v272q193 -96 411 -96q311 0 312 225q0 113 -82 166t-256 53q-188 0 -363 -57l74 770h852v-268h-561l-21 -222h9q80 19 168 19z" glyph-name="five" horiz-adv-x="1284" unicode="5"/><glyph d="M737 928q225 0 360.5 -125t135.5 -336q0 -221 -151.5 -356.5t-401.5 -135.5q-283 0 -438.5 178.5t-155.5 497.5q0 367 173 570.5t484 203.5q195 0 351 -86v-272q-141 90 -320 90q-328 0 -364 -342h10q112 113 317 113zM664 236q106 0 170.5 64.5t64.5 166.5 q0 104 -64.5 167.5t-170.5 63.5q-104 0 -170 -64.5t-66 -166.5q2 -104 68 -167.5t168 -63.5z" glyph-name="six" horiz-adv-x="1316" unicode="6"/><glyph d="M571 0h-352l508 1124v9h-666v268h1029v-252z" glyph-name="seven" horiz-adv-x="1150" unicode="7"/><glyph d="M641 -25q-254 0 -410.5 117t-156.5 307q0 221 209 322v8q-176 96 -177 293q0 182 146.5 292.5t388.5 110.5q244 0 390.5 -110.5t146.5 -292.5q0 -197 -177 -293v-8q209 -100 209 -322q0 -190 -156.5 -307t-412.5 -117zM641 819q100 0 159.5 50.5t59.5 134t-59.5 134 t-159.5 50.5q-98 0 -157.5 -50.5t-59.5 -134t59.5 -134t157.5 -50.5zM641.5 213q106.5 0 171 55.5t64.5 145.5t-64.5 145t-171 55t-170 -55t-63.5 -145t63.5 -145.5t170 -55.5z" glyph-name="eight" horiz-adv-x="1284" unicode="8"/><glyph d="M637 1425q283 0 439.5 -178t156.5 -497q0 -367 -174 -571t-486 -204q-193 0 -348 86v273q137 -90 318 -90q328 0 364 342h-8q-113 -113 -319 -113q-225 0 -359.5 125t-134.5 336q0 221 151.5 356t399.5 135zM655 702q104 0 169 64.5t65 167.5q-4 104 -67.5 167.5 t-166.5 63.5q-106 0 -171.5 -64.5t-65.5 -166.5q0 -104 65.5 -168t171.5 -64z" glyph-name="nine" horiz-adv-x="1316" unicode="9"/><glyph d="M387 909l-160 -149l-157 149l157 152zM387 135l-160 -151l-157 151l157 150z" glyph-name="colon" horiz-adv-x="456" unicode=":"/><glyph d="M436 909l-160 -149l-157 149l157 152zM281 -225h-211l90 375h256z" glyph-name="semicolon" horiz-adv-x="505" unicode=";"/><glyph d="M111 801l884 463v-297l-551 -283l551 -283v-297l-884 463v234z" glyph-name="less" horiz-adv-x="1105" unicode="&lt;"/><glyph d="M1012 784h-918v260h918v-260zM1012 340h-918v260h918v-260z" glyph-name="equal" horiz-adv-x="1105" unicode="="/><glyph d="M111 967v297l884 -463v-234l-884 -463v297l551 283z" glyph-name="greater" horiz-adv-x="1105" unicode=">"/><glyph d="M657 397h-301v158q0 61 26 107.5t93 109.5l141 129q94 92 95 172q0 78 -60.5 120t-173.5 42q-170 0 -371 -84v250q203 86 404 86q242 0 380 -105.5t138 -289.5q0 -182 -172 -340l-139 -129q-59 -57 -60 -121v-105zM696 139l-190 -182l-189 182l189 180z" glyph-name="question" horiz-adv-x="1134" unicode="?"/><glyph d="M1143 911v47h205v-313q0 -121 35.5 -178t111.5 -57t111.5 57t35.5 178q0 299 -183 480.5t-488 181.5t-488.5 -185.5t-183.5 -497t183.5 -496.5t488.5 -185q328 0 497 209h250q-106 -186 -300.5 -288t-446.5 -102q-393 0 -635 237t-242 626t242 625.5t635 236.5 q389 0 632.5 -229.5t243.5 -593.5q0 -207 -90 -314.5t-262 -107.5q-195 0 -281 133q-98 -133 -280 -133q-158 0 -255 101t-97 265t96 265.5t254 101.5q125 -1 211 -64zM969 410q80 0 127 54t47 144t-47 144.5t-127 54.5q-78 0 -126 -54.5t-48 -144.5t48 -144t126 -54z" glyph-name="at" horiz-adv-x="1943" unicode="@"/><glyph d="M1483 0h-330l-129 379h-514l-129 -379h-330l504 1462h424zM764 1122l-168 -489h340l-168 489h-4z" glyph-name="A" horiz-adv-x="1533" unicode="A"/><glyph d="M999 739q244 -88 244 -350q0 -184 -130 -286.5t-365 -102.5h-586v1462h555q236 0 364.5 -101t128.5 -288q0 -240 -211 -334zM688 1217h-211v-379h211q98 0 155.5 51t57.5 139t-57.5 138.5t-155.5 50.5zM477 246h236q98 0 155.5 50t57.5 138t-57.5 139.5t-155.5 51.5h-236 v-379z" glyph-name="B" horiz-adv-x="1366" unicode="B"/><glyph d="M879 -25q-360 0 -570.5 204t-210.5 552q0 350 211 553t572 203q270 0 485 -127v-285q-201 147 -432.5 147.5t-366.5 -133t-135 -358.5t135 -357t367 -132q240 0 444 157v-288q-212 -136 -499 -136z" glyph-name="C" horiz-adv-x="1501" unicode="C"/><glyph d="M762 1462q356 0 570 -200.5t214 -530.5t-214 -530.5t-570 -200.5h-600v1462h600zM477 268h285q205 0 327.5 127t122.5 336t-122.5 336t-327.5 127h-285v-926z" glyph-name="D" horiz-adv-x="1644" unicode="D"/><glyph d="M1114 1462v-252h-637v-352h576v-254h-576v-352h637v-252h-952v1462h952z" glyph-name="E" horiz-adv-x="1251" unicode="E"/><glyph d="M1114 1462v-252h-637v-352h576v-254h-576v-604h-315v1462h952z" glyph-name="F" horiz-adv-x="1239" unicode="F"/><glyph d="M887 569v271h561v-711q-227 -154 -545 -154q-367 0 -585 206t-218 550t218.5 550t584.5 206q305 0 512 -133v-293q-221 154 -483 153q-227 0 -363.5 -132t-136.5 -351t136.5 -351t363.5 -132q104 0 198 26v295h-243z" glyph-name="G" horiz-adv-x="1595" unicode="G"/><glyph d="M1112 866v596h315v-1462h-315v596h-635v-596h-315v1462h315v-596h635z" glyph-name="H" horiz-adv-x="1589" unicode="H"/><glyph d="M477 0h-315v1462h315v-1462z" glyph-name="I" horiz-adv-x="638" unicode="I"/><glyph d="M412 -25q-178 0 -336 84v234q125 -66 239 -66q113 0 173.5 62.5t60.5 181.5v991h317v-991q0 -240 -117.5 -368t-336.5 -128z" glyph-name="J" horiz-adv-x="1013" unicode="J"/><glyph d="M162 0v1462h315v-1462h-315zM1403 1462l-553 -712l580 -750h-379l-574 750l547 712h379z" glyph-name="K" horiz-adv-x="1478" unicode="K"/><glyph d="M477 1462v-1194h637v-268h-952v1462h315z" glyph-name="L" horiz-adv-x="1189" unicode="L"/><glyph d="M1792 1462v-1462h-317v987l-377 -661h-244l-377 661v-987h-315v1462h368l447 -782l444 782h371z" glyph-name="M" horiz-adv-x="1951" unicode="M"/><glyph d="M1202 457v1005h318v-1462h-363l-680 1006v-1006h-315v1462h360z" glyph-name="N" horiz-adv-x="1679" unicode="N"/><glyph d="M870 -25q-344 0 -557 210t-213 546t213 546t557 210t558 -210t214 -546t-214 -546t-558 -210zM870.5 248q196.5 0 317.5 133t121 350t-121 350t-317.5 133t-317.5 -133t-121 -350t121 -350t317.5 -133z" glyph-name="O" horiz-adv-x="1740" unicode="O"/><glyph d="M692 1462q240 0 381 -119.5t141 -324.5t-141 -325t-381 -120h-215v-573h-315v1462h530zM477 825h215q92 0 148.5 52.5t56.5 140.5t-56.5 140t-148.5 52h-215v-385z" glyph-name="P" horiz-adv-x="1288" unicode="P"/><glyph d="M1642 731q0 -285 -157 -483l149 -148l-166 -166l-157 158q-186 -117 -441 -117q-342 0 -556 210t-214 546t214 546t556 210q344 0 558 -210t214 -546zM870 248q125 0 228 57l-318 318l166 163l309 -307q53 111 54 252q0 219 -120 351t-319 132q-197 0 -317.5 -133 t-120.5 -350t120.5 -350t317.5 -133z" glyph-name="Q" horiz-adv-x="1748" unicode="Q"/><glyph d="M1315 0h-342l-318 573h-178v-573h-315v1462h538q240 0 380.5 -119.5t140.5 -324.5q0 -137 -65.5 -238.5t-186.5 -154.5zM700 1210h-223v-385h223q92 0 148.5 52.5t56.5 140.5t-56.5 140t-148.5 52z" glyph-name="R" horiz-adv-x="1363" unicode="R"/><glyph d="M522 -25q-207 0 -395 82v267q215 -94 387 -95q240 0 240 181q0 70 -43 113.5t-146 82.5l-129 49q-344 131 -344 422q0 188 141.5 299t384.5 111q201 0 379 -82v-266q-203 94 -368 94q-104 0 -161.5 -41t-57.5 -115q0 -61 42 -103t138 -81l141 -55q340 -131 340 -426 q0 -203 -146.5 -320t-402.5 -117z" glyph-name="S" horiz-adv-x="1163" unicode="S"/><glyph d="M1341 1462v-268h-475v-1194h-315v1194h-475v268h1265z" glyph-name="T" horiz-adv-x="1417" unicode="T"/><glyph d="M1100 575v887h315v-887q0 -270 -174 -435t-458.5 -165t-458.5 165t-174 435v887h315v-887q0 -152 86 -239.5t231.5 -87.5t231.5 87.5t86 239.5z" glyph-name="U" horiz-adv-x="1564" unicode="U"/><glyph d="M768 340l385 1122h330l-504 -1462h-424l-504 1462h330l383 -1122h4z" glyph-name="V" horiz-adv-x="1533" unicode="V"/><glyph d="M1710 340l281 1122h331l-403 -1462h-422l-311 1073l-312 -1073h-421l-402 1462h330l281 -1122h4l327 1122h385l328 -1122h4z" glyph-name="W" horiz-adv-x="2371" unicode="W"/><glyph d="M436 0h-385l545 748l-520 714h385l327 -465l326 465h385l-518 -714l543 -748h-385l-351 498z" glyph-name="X" horiz-adv-x="1574" unicode="X"/><glyph d="M764 997l326 465h385l-553 -745v-717h-316v717l-555 745h385z" glyph-name="Y" horiz-adv-x="1525" unicode="Y"/><glyph d="M1333 0h-1227v246l773 948h-752v268h1186v-245l-770 -949h790v-268z" glyph-name="Z" horiz-adv-x="1439" unicode="Z"/><glyph d="M735 -262h-579v1823h579v-269h-262v-1286h262v-268z" glyph-name="bracketleft" horiz-adv-x="792" unicode="["/><glyph d="M948 -172h-336l-542 1671h336z" glyph-name="backslash" horiz-adv-x="1017" unicode="\"/><glyph d="M637 -262h-580v268h262v1286h-262v269h580v-1823z" glyph-name="bracketright" horiz-adv-x="792" unicode="]"/><glyph d="M362 803h-305l322 659h340l323 -659h-307l-182 379h-6z" glyph-name="asciicircum" horiz-adv-x="1099" unicode="^"/><glyph d="M1063 -311h-1063v229h1063v-229z" glyph-name="underscore" horiz-adv-x="1062" unicode="_"/><glyph d="M496 1593h-209l-164 328h256z" glyph-name="grave" horiz-adv-x="618" unicode="`"/><glyph d="M586 1069q268 0 409.5 -107.5t141.5 -310.5v-651h-279v129q-106 -154 -362 -154q-195 0 -307.5 93.5t-112.5 255.5q0 164 114.5 253t325.5 89q168 0 324 -60v58q0 186 -299 186q-193 0 -367 -78v223q191 74 412 74zM584 172q115 0 185.5 61.5t70.5 163.5v13 q-98 59 -234 59q-104 0 -163.5 -40t-59.5 -109.5t53.5 -108.5t147.5 -39z" glyph-name="a" horiz-adv-x="1261" unicode="a"/><glyph d="M772 1069q223 0 360.5 -150.5t137.5 -396.5t-136.5 -396.5t-357.5 -150.5q-236 0 -360 166v-141h-279v1462h299v-522q129 129 336 129zM696.5 221q118.5 0 191.5 83t73 218t-73 218t-192 83q-115 0 -186.5 -76.5t-77.5 -205.5v-19q0 -135 73 -218t191.5 -83z" glyph-name="b" horiz-adv-x="1353" unicode="b"/><glyph d="M672 -25q-274 0 -431 145.5t-157 401.5t154.5 401.5t429.5 145.5q190 0 356 -80v-237q-137 72 -295 71q-162 0 -249 -77.5t-87 -223t88 -223.5t254 -78q156 0 301 74v-236q-153 -84 -364 -84z" glyph-name="c" horiz-adv-x="1136" unicode="c"/><glyph d="M915 942v520h302v-1462h-279v143q-127 -168 -360 -168q-223 0 -358.5 150.5t-135.5 396.5q-2 246 135 396.5t363 150.5q206 0 333 -127zM657.5 221q118.5 0 191.5 83t73 218v27q-8 125 -80 199.5t-185 74.5q-119 0 -191.5 -83t-72.5 -218t73 -218t191.5 -83z" glyph-name="d" horiz-adv-x="1353" unicode="d"/><glyph d="M1190 520v-92h-799q41 -229 344 -229q217 0 383 86v-217q-180 -92 -422 -93q-291 0 -451.5 143.5t-160.5 403.5q0 254 148.5 400.5t404.5 146.5t404.5 -147.5t148.5 -401.5zM636.5 856q-106.5 0 -172 -61.5t-81.5 -176.5h508q-16 115 -82 176.5t-172.5 61.5z" glyph-name="e" horiz-adv-x="1273" unicode="e"/><glyph d="M676 1235q-117 0 -117 -113v-78h252v-237h-252v-807h-301v807h-195v237h195v91q0 170 85 261t243 91q109 0 225 -51v-236q-69 35 -135 35z" glyph-name="f" horiz-adv-x="886" unicode="f"/><glyph d="M938 901v143h279v-950q0 -487 -578 -487q-254 0 -440 94v223q164 -104 383 -104q166 0 257 65.5t91 188.5v43q-129 -141 -348 -142q-223 0 -360.5 150.5t-137.5 396.5q-2 246 134 396.5t360 150.5q233 0 360 -168zM657.5 221q118.5 0 191.5 83t73 218t-73 218t-191.5 83 t-191.5 -83t-73 -218t73 -218t191.5 -83z" glyph-name="g" horiz-adv-x="1353" unicode="g"/><glyph d="M786 1069q182 0 293 -116.5t111 -307.5v-645h-301v604q0 102 -57.5 164.5t-151.5 62.5q-113 0 -178.5 -91t-65.5 -251v-489h-299v1462h297v-579q125 186 352 186z" glyph-name="h" horiz-adv-x="1314" unicode="h"/><glyph d="M473 1370l-188 -182l-189 182l189 180zM434 0h-299v1044h299v-1044z" glyph-name="i" horiz-adv-x="569" unicode="i"/><glyph d="M571 1370l-188 -182l-190 182l190 180zM150 -393q-131 0 -246 59v223q84 -45 162 -45q166 0 165 191v1009h301v-1009q0 -207 -98 -317.5t-284 -110.5z" glyph-name="j" horiz-adv-x="667" unicode="j"/><glyph d="M137 0v1462h299v-1462h-299zM1149 1044l-387 -485l426 -559h-342l-410 559l369 485h344z" glyph-name="k" horiz-adv-x="1239" unicode="k"/><glyph d="M436 0h-299v1462h299v-1462z" glyph-name="l" horiz-adv-x="573" unicode="l"/><glyph d="M1425 1069q168 0 268.5 -107.5t100.5 -287.5v-674h-301v618q0 98 -47 155.5t-129 57.5q-94 0 -147.5 -76.5t-53.5 -215.5v-539h-301v618q0 98 -48 155.5t-130 57.5q-94 0 -147.5 -77.5t-53.5 -214.5v-539h-299v1044h297v-153q111 178 322 178q115 0 198.5 -54t124.5 -153 q113 207 346 207z" glyph-name="m" horiz-adv-x="1918" unicode="m"/><glyph d="M786 1069q182 0 293 -116.5t111 -307.5v-645h-301v604q0 102 -57.5 164.5t-151.5 62.5q-113 0 -178.5 -91t-65.5 -251v-489h-299v1044h297v-161q125 186 352 186z" glyph-name="n" horiz-adv-x="1314" unicode="n"/><glyph d="M657 -25q-258 0 -415.5 150.5t-157.5 396.5t157.5 396.5t415.5 150.5t416 -150.5t158 -396.5t-158 -396.5t-416 -150.5zM657 221q121 0 193 81t72 220.5t-72 220t-193 80.5q-123 0 -193.5 -80.5t-70.5 -220t70.5 -220.5t193.5 -81z" glyph-name="o" horiz-adv-x="1314" unicode="o"/><glyph d="M776 1069q223 0 358.5 -150.5t135.5 -396.5t-137.5 -396.5t-360.5 -150.5q-207 0 -336 129v-473h-299v1413h279v-141q124 166 360 166zM696 221q119 0 192 83t73 218t-73 218t-191.5 83t-191.5 -83t-73 -218v-18q6 -129 77.5 -206t186.5 -77z" glyph-name="p" horiz-adv-x="1353" unicode="p"/><glyph d="M938 901v143h279v-1413h-302v471q-127 -127 -333 -127q-223 0 -360.5 150.5t-137.5 396.5q-2 246 134 396.5t360 150.5q233 0 360 -168zM657 221q113 0 184.5 75t80.5 200v26q0 135 -73 218t-191.5 83t-191.5 -83t-73 -218t72.5 -218t191.5 -83z" glyph-name="q" horiz-adv-x="1353" unicode="q"/><glyph d="M436 0h-299v1044h297v-153h2q88 178 297 178q74 0 176 -31v-241q-111 35 -186 34q-133 0 -210 -91t-77 -248v-492z" glyph-name="r" horiz-adv-x="948" unicode="r"/><glyph d="M483 -25q-207 0 -366 62v233q158 -70 336 -69q209 0 209 102q0 66 -99 96l-180 54q-289 80 -289 311q0 145 119 225t340 80q172 0 342 -61v-234q-164 70 -313 70q-88 0 -136.5 -24.5t-48.5 -67.5q0 -57 97 -90l176 -52q295 -86 295 -317q0 -156 -123 -237t-359 -81z" glyph-name="s" horiz-adv-x="1058" unicode="s"/><glyph d="M887 1044v-237h-352v-428q0 -166 161 -166q82 0 178 47v-221q-145 -63 -268 -64q-180 0 -276.5 97.5t-96.5 279.5v455h-194v237h194v295h302v-295h352z" glyph-name="t" horiz-adv-x="970" unicode="t"/><glyph d="M877 555v489h301v-1044h-297v162q-125 -186 -353 -187q-182 0 -292.5 117t-110.5 307v645h299v-604q0 -102 57.5 -164.5t153.5 -62.5q113 0 177.5 91t64.5 251z" glyph-name="u" horiz-adv-x="1314" unicode="u"/><glyph d="M639 246l270 798h316l-365 -1044h-446l-363 1044h316l268 -798h4z" glyph-name="v" horiz-adv-x="1273" unicode="v"/><glyph d="M1298 248l181 796h309l-264 -1044h-420l-184 793l-185 -793h-420l-264 1044h309l181 -796h2l198 796h357l198 -796h2z" glyph-name="w" horiz-adv-x="1839" unicode="w"/><glyph d="M397 0h-348l373 535l-356 509h350l202 -321h5l204 321h349l-355 -509l371 -535h-346l-223 346h-5z" glyph-name="x" horiz-adv-x="1243" unicode="x"/><glyph d="M647 338l262 706h316l-574 -1413h-315l160 371l-445 1042h316l276 -706h4z" glyph-name="y" horiz-adv-x="1273" unicode="y"/><glyph d="M1075 0h-987v217l551 590h-533v237h951v-217l-553 -589h571v-238z" glyph-name="z" horiz-adv-x="1161" unicode="z"/><glyph d="M731 -262h-196q-338 0 -338 328v276q0 172 -164 215v184q164 43 164 215v277q0 328 338 328h196v-269h-86q-131 0 -131 -131v-248q0 -211 -184 -260v-8q184 -49 184 -260v-248q0 -131 131 -131h86v-268z" glyph-name="braceleft" horiz-adv-x="790" unicode="{"/><glyph d="M473 -123h-317v1708h317v-1708z" glyph-name="bar" horiz-adv-x="630" unicode="|"/><glyph d="M256 -262h-199v268h86q133 0 133 131v248q0 213 185 260v8q-184 47 -185 260v248q0 131 -133 131h-86v269h199q336 0 336 -328v-277q0 -172 164 -215v-184q-164 -43 -164 -215v-276q0 -328 -336 -328z" glyph-name="braceright" horiz-adv-x="790" unicode="}"/><glyph d="M776 504q-94 0 -223 51q-127 49 -223 49q-133 0 -236 -76v271q106 78 236 78q94 0 223 -52q133 -51 223 -51q131 0 236 78v-270q-107 -78 -236 -78z" glyph-name="asciitilde" horiz-adv-x="1105" unicode="~"/><glyph glyph-name="uni00A0" horiz-adv-x="614" unicode=" "/><glyph d="M117 883l188 180l189 -180l-189 -183zM147 -18l35 593h246l35 -593v-400h-316v400z" glyph-name="exclamdown" horiz-adv-x="610" unicode="¡"/><glyph d="M1036 295v-236q-127 -70 -291 -82v-100h-229v113q-205 39 -318.5 177t-113.5 355t113.5 356.5t318.5 178.5v110h229v-102q147 -12 279 -76v-237q-137 72 -295 71q-162 0 -249 -77.5t-87 -223t88 -223.5t254 -78q156 0 301 74z" glyph-name="cent" horiz-adv-x="1136" unicode="¢"/><glyph d="M459 260h618v-260h-958v227q164 139 164 342q0 25 -4 70h-148v166h105q-41 135 -41 219q0 193 128 299.5t357 106.5q156 0 317 -60v-248q-137 63 -262 64q-236 0 -235 -203q0 -66 39 -178h309v-166h-266q4 -41 4 -66q0 -180 -127 -313z" glyph-name="sterling" horiz-adv-x="1146" unicode="£"/><glyph d="M1188 731.5q0 -145.5 -68 -262.5l144 -145l-168 -168l-146 145q-125 -68 -284 -68q-162 0 -285 70l-148 -147l-167 168l145 145q-68 117 -68 262.5t68 261.5l-145 146l167 168l148 -148q123 70 285 70q160 0 284 -68l146 146l168 -168l-144 -146q68 -116 68 -261.5z M665.5 455q112.5 0 177 74.5t64.5 201.5t-64.5 202t-177 75t-177 -75t-64.5 -202t64.5 -201.5t177 -74.5z" glyph-name="currency" horiz-adv-x="1331" unicode="¤"/><glyph d="M1047 1401h368l-465 -629h215v-166h-278v-133h278v-166h-278v-307h-305v307h-279v166h279v133h-279v166h215l-467 629h371l313 -447z" glyph-name="yen" horiz-adv-x="1466" unicode="¥"/><glyph d="M473 848h-317v737h317v-737zM473 -123h-317v737h317v-737z" glyph-name="brokenbar" horiz-adv-x="630" unicode="¦"/><glyph d="M752 420q156 -88 155 -256q0 -152 -118.5 -238t-329.5 -86q-172 0 -322 62v229q152 -70 295 -70q174 0 174 111q0 74 -100 109l-125 41q-274 90 -275 335q0 190 158 269q-158 92 -158 254q0 143 116 225t319 82q164 0 321 -62v-229q-154 70 -299 70q-156 0 -155 -95 q0 -70 102 -106l129 -43q268 -88 268 -328q1 -188 -155 -274zM354 672q0 -98 125 -150q180 18 180 154q0 96 -118 145q-88 -4 -137.5 -43.5t-49.5 -105.5z" glyph-name="section" horiz-adv-x="1015" unicode="§"/><glyph d="M354 1681l-121 -118l-120 118l120 117zM766 1681l-121 -118l-121 118l121 117z" glyph-name="dieresis" horiz-adv-x="878" unicode="¨"/><glyph d="M870 -25q-344 0 -560 210t-216 546t216 546t560 210q346 0 561.5 -210t215.5 -546t-215.5 -546t-561.5 -210zM870.5 109q280.5 0 453.5 172t173 450.5t-173 450.5t-453.5 172t-453.5 -172t-173 -450.5t173 -450.5t453.5 -172zM899 266q-221 0 -351 125t-130 340t130 340 t351 125q168 0 299 -82v-176q-123 90 -264 90q-139 0 -222 -80t-83 -217t83 -217t222 -80q147 0 272 98v-180q-133 -86 -307 -86z" glyph-name="copyright" horiz-adv-x="1740" unicode="©"/><glyph d="M340 1481q143 0 220 -57.5t77 -168.5v-340h-154v62h-4q-61 -74 -190 -74q-102 0 -160.5 48t-58.5 134q0 182 235 183q94 0 168 -33v27q0 102 -160 102q-98 0 -190 -41v119q96 39 217 39zM342 1006q59 0 95 31.5t36 84.5v15q-61 31 -121 30q-113 0 -112 -82 q0 -37 27.5 -58t74.5 -21z" glyph-name="ordfeminine" horiz-adv-x="755" unicode="ª"/><glyph d="M752 0h-330l-299 522l299 522h330l-291 -522zM1309 0h-330l-299 522l299 522h330l-291 -522z" glyph-name="guillemotleft" horiz-adv-x="1431" unicode="«"/><glyph d="M1032 393h-278v334h-680v277h958v-611z" glyph-name="logicalnot" horiz-adv-x="1105" unicode="¬"/><glyph d="M633 434h-584v230h584v-230z" glyph-name="uni00AD" horiz-adv-x="681" unicode="­"/><glyph d="M512 1487q184 0 300 -112.5t116 -293t-116 -293t-300 -112.5q-186 0 -302 112.5t-116 293t116 293t302 112.5zM512 754q147 0 238.5 91t91.5 236.5t-91.5 236.5t-238.5 91t-238.5 -91t-91.5 -236.5t91.5 -236.5t238.5 -91zM678 1165q0 -84 -74 -123l109 -186h-117 l-96 168h-49v-168h-109v451h172q76 0 120 -38t44 -104zM514 1221h-63v-111h63q27 0 42 15.5t15 39.5q0 56 -57 56z" glyph-name="registered" horiz-adv-x="1024" unicode="®"/><glyph d="M842 1593h-719v183h719v-183z" glyph-name="macron" horiz-adv-x="964" unicode="¯"/><glyph d="M311 1049q-100 0 -164.5 61t-64.5 158q0 94 64.5 156.5t164.5 62.5q98 0 163 -62.5t65 -156.5t-65 -156.5t-163 -62.5zM311 1157q45 0 76 32t31 79t-30 77.5t-77 30.5t-77.5 -30.5t-30.5 -77.5t30.5 -79t77.5 -32z" glyph-name="degree" horiz-adv-x="620" unicode="°"/><glyph d="M692 334h-278v328h-346v262h346v327h278v-327h346v-262h-346v-328zM1038 0h-970v219h970v-219z" glyph-name="plusminus" horiz-adv-x="1105" unicode="±"/><glyph d="M600 860h-489v119l260 238q55 53 55 102q0 92 -127 92q-92 0 -170 -45v137q100 45 203 45q123 0 191.5 -56t68.5 -157q0 -106 -98 -198l-146 -136v-4h252v-137z" glyph-name="uni00B2" horiz-adv-x="710" unicode="²"/><glyph d="M328 848q-125 0 -217 43v137q90 -43 198 -43q137 0 137 80q0 76 -108 76h-109v119h107q90 0 90 73q0 78 -117 78q-88 0 -178 -45v137q90 45 205 45q121 0 189.5 -52t68.5 -142q0 -100 -84 -146v-4q102 -43 102 -157q0 -94 -74.5 -146.5t-209.5 -52.5z" glyph-name="uni00B3" horiz-adv-x="686" unicode="³"/><glyph d="M334 1593h-211l117 328h256z" glyph-name="acute" horiz-adv-x="618" unicode="´"/><glyph d="M856 -164h-291v686q-201 0 -336 135.5t-135 333.5q0 205 141.5 338t356.5 133h264v-1626zM1309 -164h-291v1626h291v-1626z" glyph-name="paragraph" horiz-adv-x="1466" unicode="¶"/><glyph d="M387 522l-160 -149l-157 149l157 150z" glyph-name="periodcentered" horiz-adv-x="456" unicode="·"/><glyph d="M319 -434q-102 0 -196 28v117q59 -18 119 -18q119 0 118 82q0 92 -180 92l45 133h228l-27 -80q168 -35 168 -172q0 -88 -72 -135t-203 -47z" glyph-name="cedilla" horiz-adv-x="716" unicode="¸"/><glyph d="M412 860h-160v504h-4l-174 -115v162l190 125h148v-676z" glyph-name="uni00B9" horiz-adv-x="546" unicode="¹"/><glyph d="M373 903q-135 0 -219 80t-84 209t84 209t219 80q137 0 221 -80t84 -209t-84 -209t-221 -80zM373 1038q63 0 98 41t35 113t-35 113t-98 41q-61 0 -97 -41t-36 -113t36 -113t97 -41z" glyph-name="ordmasculine" horiz-adv-x="747" unicode="º"/><glyph d="M453 0h-330l291 522l-291 522h330l299 -522zM1004 0h-330l291 522l-291 522h330l299 -522z" glyph-name="guillemotright" horiz-adv-x="1425" unicode="»"/><glyph d="M412 725h-160v504h-4l-174 -115v162l190 125h148v-676zM430 0h-194l950 1401h194zM1468 139v-139h-159v139h-320v115l262 422h217v-400h84v-137h-84zM1307 500l-148 -219v-5h150v224h-2z" glyph-name="onequarter" horiz-adv-x="1650" unicode="¼"/><glyph d="M412 725h-160v504h-4l-174 -115v162l190 125h148v-676zM1380 1401l-950 -1401h-194l950 1401h194zM1563 0h-490v119l260 237q55 53 56 103q0 92 -127 92q-92 0 -170 -45v137q100 45 202 45q123 0 191.5 -56.5t68.5 -156.5q0 -106 -98 -199l-145 -135v-4h252v-137z" glyph-name="onehalf" horiz-adv-x="1673" unicode="½"/><glyph d="M328 713q-125 0 -217 43v137q90 -43 198 -43q137 0 137 80q0 76 -108 76h-109v118h107q90 0 90 74q0 78 -117 78q-88 0 -178 -45v137q90 45 205 45q121 0 189.5 -52t68.5 -142q0 -100 -84 -146v-4q102 -43 102 -158q0 -94 -74.5 -146t-209.5 -52zM1430 1401l-951 -1401 h-194l950 1401h195zM1602 139h-84v-139h-160v139h-320v115l262 422h218v-400h84v-137zM1358 500h-2l-148 -219v-5h150v224z" glyph-name="threequarters" horiz-adv-x="1699" unicode="¾"/><glyph d="M440 883l189 180l188 -180l-188 -183zM477 623h301v-158q0 -61 -25.5 -107.5t-93.5 -109.5l-141 -129q-94 -94 -94 -170q0 -78 60.5 -120t172.5 -42q166 0 371 82v-250q-201 -86 -403 -86q-242 0 -380.5 105.5t-138.5 291.5q0 180 173 338l139 129q59 53 59 121v105z" glyph-name="questiondown" horiz-adv-x="1134" unicode="¿"/><glyph d="M756 1921l116 -328h-208l-164 328h256zM1483 0h-330l-129 379h-514l-129 -379h-330l504 1462h424zM764 1122l-168 -489h340l-168 489h-4z" glyph-name="Agrave" horiz-adv-x="1533" unicode="À"/><glyph d="M778 1921h256l-162 -328h-210zM1483 0h-330l-129 379h-514l-129 -379h-330l504 1462h424zM764 1122l-168 -489h340l-168 489h-4z" glyph-name="Aacute" horiz-adv-x="1533" unicode="Á"/><glyph d="M938 1593l-170 174l-170 -174h-199l260 328h215l261 -328h-197zM1483 0h-330l-129 379h-514l-129 -379h-330l504 1462h424zM764 1122l-168 -489h340l-168 489h-4z" glyph-name="Acircumflex" horiz-adv-x="1533" unicode="Â"/><glyph d="M604 1749q-53 0 -81.5 -35t-28.5 -98h-154q0 131 71.5 211t192.5 80q125 0 207 -95l27 -28q41 -43 90 -43q53 0 81.5 34.5t28.5 98.5h154q0 -131 -71.5 -211t-192.5 -80q-125 0 -207 94l-29 29q-37 43 -88 43zM1483 0h-330l-129 379h-514l-129 -379h-330l504 1462h424z M764 1122l-168 -489h340l-168 489h-4z" glyph-name="Atilde" horiz-adv-x="1533" unicode="Ã"/><glyph d="M561 1798l121 -117l-121 -118l-121 118zM973 1798l121 -117l-121 -118l-121 118zM1483 0h-330l-129 379h-514l-129 -379h-330l504 1462h424zM764 1122l-168 -489h340l-168 489h-4z" glyph-name="Adieresis" horiz-adv-x="1533" unicode="Ä"/><glyph d="M766 1536q-100 0 -167 65.5t-67 162t67 162t167 65.5t167.5 -65.5t67.5 -162t-67.5 -162t-167.5 -65.5zM766 1874q-45 0 -77 -32t-32 -79t32 -77.5t77 -30.5q47 0 79 30.5t32 77.5t-32 79t-79 32zM1483 0h-330l-129 379h-514l-129 -379h-330l504 1462h424zM764 1122 l-168 -489h340l-168 489h-4z" glyph-name="Aring" horiz-adv-x="1533" unicode="Å"/><glyph d="M1925 1462v-252h-860l123 -352h676v-254h-590l123 -352h528v-252h-772l-127 371h-518l-127 -371h-330l504 1462h1370zM764 1122l-164 -481h334l-166 481h-4z" glyph-name="AE" horiz-adv-x="2060" unicode="Æ"/><glyph d="M1378 399v-288q-178 -113 -409 -131l-21 -60q168 -35 168 -172q0 -88 -71.5 -135t-202.5 -47q-102 0 -197 28v117q59 -18 119 -18q119 0 119 82q0 92 -181 92l39 117q-301 39 -472 236.5t-171 510.5q0 350 211 553t572 203q270 0 485 -127v-285q-201 147 -432.5 147.5 t-366.5 -133t-135 -358.5t135 -357t367 -132q239 -1 444 157z" glyph-name="Ccedilla" horiz-adv-x="1501" unicode="Ç"/><glyph d="M614 1921l117 -328h-209l-164 328h256zM1114 1462v-252h-637v-352h576v-254h-576v-352h637v-252h-952v1462h952z" glyph-name="Egrave" horiz-adv-x="1251" unicode="È"/><glyph d="M637 1921h256l-162 -328h-211zM1114 1462v-252h-637v-352h576v-254h-576v-352h637v-252h-952v1462h952z" glyph-name="Eacute" horiz-adv-x="1251" unicode="É"/><glyph d="M797 1593l-170 174l-170 -174h-199l260 328h215l260 -328h-196zM1114 1462v-252h-637v-352h576v-254h-576v-352h637v-252h-952v1462h952z" glyph-name="Ecircumflex" horiz-adv-x="1251" unicode="Ê"/><glyph d="M420 1798l121 -117l-121 -118l-121 118zM831 1798l121 -117l-121 -118l-120 118zM1114 1462v-252h-637v-352h576v-254h-576v-352h637v-252h-952v1462h952z" glyph-name="Edieresis" horiz-adv-x="1251" unicode="Ë"/><glyph d="M424 1593h-209l-164 328h256zM477 0h-315v1462h315v-1462z" glyph-name="Igrave" horiz-adv-x="638" unicode="Ì"/><glyph d="M426 1593h-211l117 328h256zM477 0h-315v1462h315v-1462z" glyph-name="Iacute" horiz-adv-x="638" unicode="Í"/><glyph d="M426 1921l260 -328h-197l-170 174l-169 -174h-199l260 328h215zM477 0h-315v1462h315v-1462z" glyph-name="Icircumflex" horiz-adv-x="638" unicode="Î"/><glyph d="M233 1681l-120 -118l-121 118l121 117zM645 1681l-121 -118l-121 118l121 117zM477 0h-315v1462h315v-1462z" glyph-name="Idieresis" horiz-adv-x="638" unicode="Ï"/><glyph d="M762 1462q356 0 570 -200.5t214 -530.5t-214 -530.5t-570 -200.5h-600v625h-162v213h162v624h600zM477 268h285q205 0 327.5 127t122.5 336t-122.5 336t-327.5 127h-285v-356h283v-213h-283v-357z" glyph-name="Eth" horiz-adv-x="1644" unicode="Ð"/><glyph d="M678 1749q-53 0 -82 -35t-29 -98h-153q0 131 71.5 211t192.5 80q125 0 207 -95l26 -28q41 -43 90 -43q53 0 82 34.5t29 98.5h154q0 -131 -72 -211t-193 -80q-125 0 -206 94l-29 29q-37 43 -88 43zM1202 457v1005h318v-1462h-363l-680 1006v-1006h-315v1462h360z" glyph-name="Ntilde" horiz-adv-x="1679" unicode="Ñ"/><glyph d="M975 1593h-209l-164 328h256zM870 -25q-344 0 -557 210t-213 546t213 546t557 210t558 -210t214 -546t-214 -546t-558 -210zM870.5 248q196.5 0 317.5 133t121 350t-121 350t-317.5 133t-317.5 -133t-121 -350t121 -350t317.5 -133z" glyph-name="Ograve" horiz-adv-x="1740" unicode="Ò"/><glyph d="M977 1593h-211l117 328h256zM870 -25q-344 0 -557 210t-213 546t213 546t557 210t558 -210t214 -546t-214 -546t-558 -210zM870.5 248q196.5 0 317.5 133t121 350t-121 350t-317.5 133t-317.5 -133t-121 -350t121 -350t317.5 -133z" glyph-name="Oacute" horiz-adv-x="1740" unicode="Ó"/><glyph d="M1040 1593l-170 174l-170 -174h-198l260 328h215l260 -328h-197zM870 1487q344 0 558 -210t214 -546t-214 -546t-558 -210t-557 210t-213 546t213 546t557 210zM870.5 248q196.5 0 317.5 133t121 350t-121 350t-317.5 133t-317.5 -133t-121 -350t121 -350t317.5 -133z " glyph-name="Ocircumflex" horiz-adv-x="1740" unicode="Ô"/><glyph d="M1032 1583q-125 0 -207 94l-28 29q-37 43 -88 43q-53 0 -82 -35t-29 -98h-154q0 131 72 211t193 80q125 0 206 -95l27 -28q41 -43 90 -43q53 0 82 34.5t29 98.5h153q0 -131 -71.5 -211t-192.5 -80zM870 -25q-344 0 -557 210t-213 546t213 546t557 210t558 -210t214 -546 t-214 -546t-558 -210zM870.5 248q196.5 0 317.5 133t121 350t-121 350t-317.5 133t-317.5 -133t-121 -350t121 -350t317.5 -133z" glyph-name="Otilde" horiz-adv-x="1740" unicode="Õ"/><glyph d="M784 1681l-120 -118l-121 118l121 117zM1196 1681l-121 -118l-121 118l121 117zM870 -25q-344 0 -557 210t-213 546t213 546t557 210t558 -210t214 -546t-214 -546t-558 -210zM870.5 248q196.5 0 317.5 133t121 350t-121 350t-317.5 133t-317.5 -133t-121 -350t121 -350 t317.5 -133z" glyph-name="Odieresis" horiz-adv-x="1740" unicode="Ö"/><glyph d="M553 506l-279 -281l-186 187l281 278l-281 279l186 186l279 -281l278 281l187 -186l-281 -279l281 -278l-187 -187z" glyph-name="multiply" horiz-adv-x="1105" unicode="×"/><glyph d="M1438 1485l-125 -207q268 -201 268 -580q0 -324 -205 -525.5t-536 -201.5q-154 0 -285 47l-61 -104h-250l123 205q-268 207 -269 579q0 324 206 525.5t536 201.5q154 0 284 -47l64 107h250zM420 698q0 -197 102 -321l459 764q-68 23 -141 22q-188 0 -304 -128t-116 -337z M840 236q190 0 306 126.5t116 335.5q0 197 -103 322l-459 -764q72 -20 140 -20z" glyph-name="Oslash" horiz-adv-x="1681" unicode="Ø"/><glyph d="M770 1921l117 -328h-209l-164 328h256zM1100 575v887h315v-887q0 -270 -174 -435t-458.5 -165t-458.5 165t-174 435v887h315v-887q0 -152 86 -239.5t231.5 -87.5t231.5 87.5t86 239.5z" glyph-name="Ugrave" horiz-adv-x="1564" unicode="Ù"/><glyph d="M795 1921h256l-162 -328h-211zM1100 575v887h315v-887q0 -270 -174 -435t-458.5 -165t-458.5 165t-174 435v887h315v-887q0 -152 86 -239.5t231.5 -87.5t231.5 87.5t86 239.5z" glyph-name="Uacute" horiz-adv-x="1564" unicode="Ú"/><glyph d="M952 1593l-170 174l-170 -174h-198l260 328h215l260 -328h-197zM1100 575v887h315v-887q0 -270 -174 -435t-458.5 -165t-458.5 165t-174 435v887h315v-887q0 -152 86 -239.5t231.5 -87.5t231.5 87.5t86 239.5z" glyph-name="Ucircumflex" horiz-adv-x="1564" unicode="Û"/><glyph d="M575 1798l121 -117l-121 -118l-120 118zM987 1798l121 -117l-121 -118l-121 118zM1100 575v887h315v-887q0 -270 -174 -435t-458.5 -165t-458.5 165t-174 435v887h315v-887q0 -152 86 -239.5t231.5 -87.5t231.5 87.5t86 239.5z" glyph-name="Udieresis" horiz-adv-x="1564" unicode="Ü"/><glyph d="M776 1921h256l-162 -328h-211zM764 997l326 465h385l-553 -745v-717h-316v717l-555 745h385z" glyph-name="Yacute" horiz-adv-x="1525" unicode="Ý"/><glyph d="M477 1178h215q242 0 382 -122t140 -323q0 -205 -140 -325.5t-382 -120.5h-215v-287h-315v1462h315v-284zM477 541h215q92 0 148.5 52t56.5 140q0 86 -56.5 138.5t-148.5 52.5h-215v-383z" glyph-name="Thorn" horiz-adv-x="1263" unicode="Þ"/><glyph d="M997 752q221 -106 222 -367q0 -188 -122 -299t-329 -111q-137 0 -248 50v239q80 -37 170 -37q106 0 167 49.5t61 139.5q0 193 -281 192h-117v254h92q100 0 156.5 48t56.5 137q0 86 -53 137t-141 51t-141.5 -51t-53.5 -137v-1047h-299v1047q0 205 132 322.5t361.5 117.5 t362.5 -117t133 -315q0 -197 -129 -303z" glyph-name="germandbls" horiz-adv-x="1302" unicode="ß"/><glyph d="M618 1503l117 -327h-209l-164 327h256zM586 1069q268 0 409.5 -107.5t141.5 -310.5v-651h-279v129q-106 -154 -362 -154q-195 0 -307.5 93.5t-112.5 255.5q0 164 114.5 253t325.5 89q168 0 324 -60v58q0 186 -299 186q-193 0 -367 -78v223q191 74 412 74zM584 172 q115 0 185.5 61.5t70.5 163.5v13q-98 59 -234 59q-104 0 -163.5 -40t-59.5 -109.5t53.5 -108.5t147.5 -39z" glyph-name="agrave" horiz-adv-x="1261" unicode="à"/><glyph d="M643 1503h256l-162 -327h-211zM586 1069q268 0 409.5 -107.5t141.5 -310.5v-651h-279v129q-106 -154 -362 -154q-195 0 -307.5 93.5t-112.5 255.5q0 164 114.5 253t325.5 89q168 0 324 -60v58q0 186 -299 186q-193 0 -367 -78v223q191 74 412 74zM584 172 q115 0 185.5 61.5t70.5 163.5v13q-98 59 -234 59q-104 0 -163.5 -40t-59.5 -109.5t53.5 -108.5t147.5 -39z" glyph-name="aacute" horiz-adv-x="1261" unicode="á"/><glyph d="M801 1176l-170 174l-170 -174h-199l260 327h215l260 -327h-196zM586 1069q268 0 409.5 -107.5t141.5 -310.5v-651h-279v129q-106 -154 -362 -154q-195 0 -307.5 93.5t-112.5 255.5q0 164 114.5 253t325.5 89q168 0 324 -60v58q0 186 -299 186q-193 0 -367 -78v223 q191 74 412 74zM584 172q115 0 185.5 61.5t70.5 163.5v13q-98 59 -234 59q-104 0 -163.5 -40t-59.5 -109.5t53.5 -108.5t147.5 -39z" glyph-name="acircumflex" horiz-adv-x="1261" unicode="â"/><glyph d="M469 1331q-53 0 -82 -34.5t-29 -98.5h-153q0 131 71.5 211t192.5 80q125 0 207 -94l26 -29q41 -43 91 -43q53 0 81.5 35t28.5 98h154q0 -131 -72 -211t-192 -80q-125 0 -207 95l-29 28q-37 43 -88 43zM586 1069q268 0 409.5 -107.5t141.5 -310.5v-651h-279v129 q-106 -154 -362 -154q-195 0 -307.5 93.5t-112.5 255.5q0 164 114.5 253t325.5 89q168 0 324 -60v58q0 186 -299 186q-193 0 -367 -78v223q191 74 412 74zM584 172q115 0 185.5 61.5t70.5 163.5v13q-98 59 -234 59q-104 0 -163.5 -40t-59.5 -109.5t53.5 -108.5t147.5 -39z " glyph-name="atilde" horiz-adv-x="1261" unicode="ã"/><glyph d="M424 1380l121 -116l-121 -119l-121 119zM836 1380l120 -116l-120 -119l-121 119zM586 1069q268 0 409.5 -107.5t141.5 -310.5v-651h-279v129q-106 -154 -362 -154q-195 0 -307.5 93.5t-112.5 255.5q0 164 114.5 253t325.5 89q168 0 324 -60v58q0 186 -299 186 q-193 0 -367 -78v223q191 74 412 74zM584 172q115 0 185.5 61.5t70.5 163.5v13q-98 59 -234 59q-104 0 -163.5 -40t-59.5 -109.5t53.5 -108.5t147.5 -39z" glyph-name="adieresis" horiz-adv-x="1261" unicode="ä"/><glyph d="M628.5 1118q-100.5 0 -167 65.5t-66.5 162t66.5 162t167 65.5t168 -65.5t67.5 -162t-67.5 -162t-168 -65.5zM629 1456q-45 0 -77 -31.5t-32 -79t31 -78t78 -30.5t78.5 30.5t31.5 78t-31.5 79t-78.5 31.5zM586 1069q268 0 409.5 -107.5t141.5 -310.5v-651h-279v129 q-106 -154 -362 -154q-195 0 -307.5 93.5t-112.5 255.5q0 164 114.5 253t325.5 89q168 0 324 -60v58q0 186 -299 186q-193 0 -367 -78v223q191 74 412 74zM584 172q115 0 185.5 61.5t70.5 163.5v13q-98 59 -234 59q-104 0 -163.5 -40t-59.5 -109.5t53.5 -108.5t147.5 -39z " glyph-name="aring" horiz-adv-x="1261" unicode="å"/><glyph d="M2023 520v-92h-800q41 -229 346 -229q217 0 383 86v-217q-184 -92 -422 -93q-332 0 -494 185q-135 -184 -467 -185q-238 0 -365.5 91.5t-127.5 261.5q0 162 114.5 250t325.5 88q168 0 324 -60v58q0 186 -299 186q-193 0 -367 -78v223q190 74 412 74q332 0 456 -168 q150 168 428 168q256 0 404.5 -147.5t148.5 -401.5zM1470.5 856q-106.5 0 -172 -61.5t-81.5 -176.5h505q-16 115 -80.5 176.5t-171 61.5zM840 397v13q-98 59 -234 59q-104 0 -163.5 -40t-59.5 -109.5t53 -108.5t148 -39q115 0 185.5 61.5t70.5 163.5z" glyph-name="ae" horiz-adv-x="2107" unicode="æ"/><glyph d="M1036 295v-236q-123 -70 -301 -82l-18 -57q168 -35 168 -172q0 -88 -72 -135t-203 -47q-102 0 -196 28v117q59 -18 118 -18q119 0 119 82q0 92 -180 92l41 123q-203 39 -315.5 178t-112.5 354q0 256 154.5 401.5t429.5 145.5q190 0 356 -80v-237q-137 72 -295 71 q-162 0 -249 -77.5t-87 -223t88 -223.5t254 -78q156 0 301 74z" glyph-name="ccedilla" horiz-adv-x="1136" unicode="ç"/><glyph d="M625 1503l116 -327h-209l-163 327h256zM1190 520v-92h-799q41 -229 344 -229q217 0 383 86v-217q-180 -92 -422 -93q-291 0 -451.5 143.5t-160.5 403.5q0 254 148.5 400.5t404.5 146.5t404.5 -147.5t148.5 -401.5zM636.5 856q-106.5 0 -172 -61.5t-81.5 -176.5h508 q-16 115 -82 176.5t-172.5 61.5z" glyph-name="egrave" horiz-adv-x="1273" unicode="è"/><glyph d="M649 1503h256l-162 -327h-211zM1190 520v-92h-799q41 -229 344 -229q217 0 383 86v-217q-180 -92 -422 -93q-291 0 -451.5 143.5t-160.5 403.5q0 254 148.5 400.5t404.5 146.5t404.5 -147.5t148.5 -401.5zM636.5 856q-106.5 0 -172 -61.5t-81.5 -176.5h508 q-16 115 -82 176.5t-172.5 61.5z" glyph-name="eacute" horiz-adv-x="1273" unicode="é"/><glyph d="M807 1176l-170 174l-170 -174h-199l260 327h215l261 -327h-197zM1190 520v-92h-799q41 -229 344 -229q217 0 383 86v-217q-180 -92 -422 -93q-291 0 -451.5 143.5t-160.5 403.5q0 254 148.5 400.5t404.5 146.5t404.5 -147.5t148.5 -401.5zM636.5 856q-106.5 0 -172 -61.5 t-81.5 -176.5h508q-16 115 -82 176.5t-172.5 61.5z" glyph-name="ecircumflex" horiz-adv-x="1273" unicode="ê"/><glyph d="M430 1380l121 -116l-121 -119l-121 119zM842 1380l121 -116l-121 -119l-121 119zM1190 520v-92h-799q41 -229 344 -229q217 0 383 86v-217q-180 -92 -422 -93q-291 0 -451.5 143.5t-160.5 403.5q0 254 148.5 400.5t404.5 146.5t404.5 -147.5t148.5 -401.5zM636.5 856 q-106.5 0 -172 -61.5t-81.5 -176.5h508q-16 115 -82 176.5t-172.5 61.5z" glyph-name="edieresis" horiz-adv-x="1273" unicode="ë"/><glyph d="M387 1176h-209l-164 327h256zM432 0h-301v1044h301v-1044z" glyph-name="igrave" horiz-adv-x="565" unicode="ì"/><glyph d="M389 1176h-211l117 327h256zM432 0h-301v1044h301v-1044z" glyph-name="iacute" horiz-adv-x="565" unicode="í"/><glyph d="M389 1503l260 -327h-196l-170 174l-170 -174h-199l260 327h215zM432 0h-301v1044h301v-1044z" glyph-name="icircumflex" horiz-adv-x="565" unicode="î"/><glyph d="M197 1264l-121 -119l-121 119l121 116zM608 1264l-121 -119l-120 119l120 116zM432 0h-301v1044h301v-1044z" glyph-name="idieresis" horiz-adv-x="565" unicode="ï"/><glyph d="M883 1356l-99 -51q184 -117 283.5 -308.5t97.5 -439.5q0 -268 -148.5 -425t-402.5 -157q-250 0 -400.5 147.5t-150.5 389.5q0 229 133.5 372.5t346.5 143.5q186 0 284 -121q-72 195 -243 293l-381 -199v148l223 117q-96 27 -223 32v164q246 -6 438 -84l242 125v-147z M614.5 213q116.5 0 185 77t68.5 212t-68.5 212t-185 77t-185.5 -77t-69 -212t69 -212t185.5 -77z" glyph-name="eth" horiz-adv-x="1228" unicode="ð"/><glyph d="M496 1331q-53 0 -82 -34.5t-29 -98.5h-154q0 131 72 211t193 80q125 0 206 -94l27 -29q41 -43 90 -43q53 0 82 35t29 98h153q0 -131 -71.5 -211t-192.5 -80q-125 0 -207 95l-28 28q-37 43 -88 43zM786 1069q182 0 293 -116.5t111 -307.5v-645h-301v604q0 102 -57.5 164.5 t-151.5 62.5q-113 0 -178.5 -91t-65.5 -251v-489h-299v1044h297v-161q125 186 352 186z" glyph-name="ntilde" horiz-adv-x="1314" unicode="ñ"/><glyph d="M762 1176h-209l-164 327h256zM657 -25q-258 0 -415.5 150.5t-157.5 396.5t157.5 396.5t415.5 150.5t416 -150.5t158 -396.5t-158 -396.5t-416 -150.5zM657 221q121 0 193 81t72 220.5t-72 220t-193 80.5q-123 0 -193.5 -80.5t-70.5 -220t70.5 -220.5t193.5 -81z" glyph-name="ograve" horiz-adv-x="1314" unicode="ò"/><glyph d="M764 1176h-211l117 327h256zM657 -25q-258 0 -415.5 150.5t-157.5 396.5t157.5 396.5t415.5 150.5t416 -150.5t158 -396.5t-158 -396.5t-416 -150.5zM657 221q121 0 193 81t72 220.5t-72 220t-193 80.5q-123 0 -193.5 -80.5t-70.5 -220t70.5 -220.5t193.5 -81z" glyph-name="oacute" horiz-adv-x="1314" unicode="ó"/><glyph d="M827 1176l-170 174l-170 -174h-198l260 327h215l260 -327h-197zM657 1069q258 0 416 -150.5t158 -396.5t-158 -396.5t-416 -150.5t-415.5 150.5t-157.5 396.5t157.5 396.5t415.5 150.5zM657 221q121 0 193 81t72 220.5t-72 220t-193 80.5q-123 0 -193.5 -80.5t-70.5 -220 t70.5 -220.5t193.5 -81z" glyph-name="ocircumflex" horiz-adv-x="1314" unicode="ô"/><glyph d="M819 1165q-125 0 -207 95l-28 28q-37 43 -88 43q-53 0 -82 -34.5t-29 -98.5h-154q0 131 72 211t193 80q125 0 206 -94l27 -29q41 -43 90 -43q53 0 82 35t29 98h153q0 -131 -71.5 -211t-192.5 -80zM657 -25q-258 0 -415.5 150.5t-157.5 396.5t157.5 396.5t415.5 150.5 t416 -150.5t158 -396.5t-158 -396.5t-416 -150.5zM657 221q121 0 193 81t72 220.5t-72 220t-193 80.5q-123 0 -193.5 -80.5t-70.5 -220t70.5 -220.5t193.5 -81z" glyph-name="otilde" horiz-adv-x="1314" unicode="õ"/><glyph d="M571 1264l-120 -119l-121 119l121 116zM983 1264l-121 -119l-121 119l121 116zM657 -25q-258 0 -415.5 150.5t-157.5 396.5t157.5 396.5t415.5 150.5t416 -150.5t158 -396.5t-158 -396.5t-416 -150.5zM657 221q121 0 193 81t72 220.5t-72 220t-193 80.5 q-123 0 -193.5 -80.5t-70.5 -220t70.5 -220.5t193.5 -81z" glyph-name="odieresis" horiz-adv-x="1314" unicode="ö"/><glyph d="M690 1092l-137 -127l-137 127l137 129zM1012 563h-918v262h918v-262zM690 297l-137 -129l-137 129l137 127z" glyph-name="divide" horiz-adv-x="1105" unicode="÷"/><glyph d="M1110 1130l-98 -161q219 -152 219 -447q0 -246 -158 -396.5t-416 -150.5q-117 0 -221 35l-57 -96h-176l98 164q-217 150 -217 444q0 246 157.5 396.5t415.5 150.5q117 0 222 -35l57 96h174zM393 522q0 -125 56 -200l294 489q-39 12 -86 12q-123 0 -193.5 -81t-70.5 -220z M657 221q121 0 193 81t72 220q0 123 -56 201l-295 -490q39 -12 86 -12z" glyph-name="oslash" horiz-adv-x="1314" unicode="ø"/><glyph d="M645 1503l117 -327h-209l-164 327h256zM877 555v489h301v-1044h-297v162q-125 -186 -353 -187q-182 0 -292.5 117t-110.5 307v645h299v-604q0 -102 57.5 -164.5t153.5 -62.5q113 0 177.5 91t64.5 251z" glyph-name="ugrave" horiz-adv-x="1314" unicode="ù"/><glyph d="M670 1503h256l-162 -327h-211zM877 555v489h301v-1044h-297v162q-125 -186 -353 -187q-182 0 -292.5 117t-110.5 307v645h299v-604q0 -102 57.5 -164.5t153.5 -62.5q113 0 177.5 91t64.5 251z" glyph-name="uacute" horiz-adv-x="1314" unicode="ú"/><glyph d="M827 1176l-170 174l-170 -174h-198l260 327h215l260 -327h-197zM877 555v489h301v-1044h-297v162q-125 -186 -353 -187q-182 0 -292.5 117t-110.5 307v645h299v-604q0 -102 57.5 -164.5t153.5 -62.5q113 0 177.5 91t64.5 251z" glyph-name="ucircumflex" horiz-adv-x="1314" unicode="û"/><glyph d="M451 1380l120 -116l-120 -119l-121 119zM862 1380l121 -116l-121 -119l-121 119zM877 555v489h301v-1044h-297v162q-125 -186 -353 -187q-182 0 -292.5 117t-110.5 307v645h299v-604q0 -102 57.5 -164.5t153.5 -62.5q113 0 177.5 91t64.5 251z" glyph-name="udieresis" horiz-adv-x="1314" unicode="ü"/><glyph d="M649 1503h256l-162 -327h-211zM647 338l262 706h316l-574 -1413h-315l160 371l-445 1042h316l276 -706h4z" glyph-name="yacute" horiz-adv-x="1273" unicode="ý"/><glyph d="M776 1069q223 0 358.5 -150.5t135.5 -396.5t-137.5 -396.5t-360.5 -150.5q-207 0 -336 129v-473h-299v1831h293v-540q129 147 346 147zM696 221q119 0 192 83t73 218t-73 218t-192 83q-115 0 -186.5 -76.5t-77.5 -205.5v-37q6 -129 77.5 -206t186.5 -77z" glyph-name="thorn" horiz-adv-x="1353" unicode="þ"/><glyph d="M432 1380l121 -116l-121 -119l-121 119zM844 1380l121 -116l-121 -119l-121 119zM647 338l262 706h316l-574 -1413h-315l160 371l-445 1042h316l276 -706h4z" glyph-name="ydieresis" horiz-adv-x="1273" unicode="ÿ"/><glyph d="M408 1776h718v-183h-718v183zM1483 0h-330l-129 379h-514l-129 -379h-330l504 1462h424zM764 1122l-168 -489h340l-168 489h-4z" glyph-name="Amacron" horiz-adv-x="1533" unicode="Ā"/><glyph d="M270 1358h719v-182h-719v182zM586 1069q268 0 409.5 -107.5t141.5 -310.5v-651h-279v129q-106 -154 -362 -154q-195 0 -307.5 93.5t-112.5 255.5q0 164 114.5 253t325.5 89q168 0 324 -60v58q0 186 -299 186q-193 0 -367 -78v223q191 74 412 74zM584 172 q115 0 185.5 61.5t70.5 163.5v13q-98 59 -234 59q-104 0 -163.5 -40t-59.5 -109.5t53.5 -108.5t147.5 -39z" glyph-name="amacron" horiz-adv-x="1261" unicode="ā"/><glyph d="M766 1569q-158 0 -253 96t-95 256h166q0 -92 48 -144.5t134 -52.5t134 52.5t48 144.5h166q0 -160 -95 -256t-253 -96zM1483 0h-330l-129 379h-514l-129 -379h-330l504 1462h424zM764 1122l-168 -489h340l-168 489h-4z" glyph-name="Abreve" horiz-adv-x="1533" unicode="Ă"/><glyph d="M630.5 1151q-157.5 0 -252.5 96t-95 256h166q0 -92 48 -144t134 -52t134 52t48 144h166q0 -160 -95.5 -256t-253 -96zM586 1069q268 0 409.5 -107.5t141.5 -310.5v-651h-279v129q-106 -154 -362 -154q-195 0 -307.5 93.5t-112.5 255.5q0 164 114.5 253t325.5 89 q168 0 324 -60v58q0 186 -299 186q-193 0 -367 -78v223q191 74 412 74zM584 172q115 0 185.5 61.5t70.5 163.5v13q-98 59 -234 59q-104 0 -163.5 -40t-59.5 -109.5t53.5 -108.5t147.5 -39z" glyph-name="abreve" horiz-adv-x="1261" unicode="ă"/><glyph d="M1464 -258q41 0 95 20v-143q-92 -29 -183 -29q-113 0 -177 49.5t-64 141.5q0 113 106 219h-88l-129 379h-514l-129 -379h-330l504 1462h424l504 -1462q-106 -94 -107 -178q0 -80 88 -80zM764 1122l-168 -489h340l-168 489h-4z" glyph-name="Aogonek" horiz-adv-x="1533" unicode="Ą"/><glyph d="M1118 -258q41 0 94 20v-143q-92 -29 -182 -29q-113 0 -177.5 49.5t-64.5 141.5q0 113 107 219h-37v129q-106 -154 -362 -154q-195 0 -307.5 93.5t-112.5 255.5q0 164 114.5 253t325.5 89q168 0 324 -60v58q0 186 -299 186q-193 0 -367 -78v223q190 74 412 74 q268 0 409.5 -107.5t141.5 -310.5v-651q-106 -94 -107 -178q0 -80 88 -80zM584 172q115 0 185.5 61.5t70.5 163.5v13q-98 59 -234 59q-104 0 -163.5 -40t-59.5 -109.5t53.5 -108.5t147.5 -39z" glyph-name="aogonek" horiz-adv-x="1261" unicode="ą"/><glyph d="M967 1593h-211l116 328h256zM879 -25q-360 0 -570.5 204t-210.5 552q0 350 211 553t572 203q270 0 485 -127v-285q-201 147 -432.5 147.5t-366.5 -133t-135 -358.5t135 -357t367 -132q240 0 444 157v-288q-212 -136 -499 -136z" glyph-name="Cacute" horiz-adv-x="1501" unicode="Ć"/><glyph d="M735 1176h-211l117 327h256zM672 -25q-274 0 -431 145.5t-157 401.5t154.5 401.5t429.5 145.5q190 0 356 -80v-237q-137 72 -295 71q-162 0 -249 -77.5t-87 -223t88 -223.5t254 -78q156 0 301 74v-236q-153 -84 -364 -84z" glyph-name="cacute" horiz-adv-x="1136" unicode="ć"/><glyph d="M1032 1593l-170 174l-170 -174h-198l260 328h215l260 -328h-197zM934 242q240 0 444 157v-288q-213 -135 -499 -136q-360 0 -570.5 204t-210.5 552q0 350 211 553t572 203q270 0 485 -127v-285q-201 147 -432.5 147.5t-366.5 -133t-135 -358.5t135.5 -357t366.5 -132z " glyph-name="Ccircumflex" horiz-adv-x="1501" unicode="Ĉ"/><glyph d="M799 1176l-170 174l-170 -174h-199l260 327h215l260 -327h-196zM735 221q156 0 301 74v-236q-154 -84 -364 -84q-274 0 -431 145.5t-157 401.5t154.5 401.5t429.5 145.5q190 0 356 -80v-237q-137 72 -295 71q-162 0 -249 -77.5t-87 -223t88 -223.5t254 -78z" glyph-name="ccircumflex" horiz-adv-x="1136" unicode="ĉ"/><glyph d="M981 1681l-121 -118l-121 118l121 117zM879 -25q-360 0 -570.5 204t-210.5 552q0 350 211 553t572 203q270 0 485 -127v-285q-201 147 -432.5 147.5t-366.5 -133t-135 -358.5t135 -357t367 -132q240 0 444 157v-288q-212 -136 -499 -136z" glyph-name="Cdotaccent" horiz-adv-x="1501" unicode="Ċ"/><glyph d="M750 1264l-121 -119l-121 119l121 116zM672 -25q-274 0 -431 145.5t-157 401.5t154.5 401.5t429.5 145.5q190 0 356 -80v-237q-137 72 -295 71q-162 0 -249 -77.5t-87 -223t88 -223.5t254 -78q156 0 301 74v-236q-153 -84 -364 -84z" glyph-name="cdotaccent" horiz-adv-x="1136" unicode="ċ"/><glyph d="M754 1593l-260 328h198l170 -174l170 174h197l-260 -328h-215zM934 242q240 0 444 157v-288q-213 -135 -499 -136q-360 0 -570.5 204t-210.5 552q0 350 211 553t572 203q270 0 485 -127v-285q-201 147 -432.5 147.5t-366.5 -133t-135 -358.5t135.5 -357t366.5 -132z" glyph-name="Ccaron" horiz-adv-x="1501" unicode="Č"/><glyph d="M520 1176l-260 327h199l170 -174l170 174h196l-260 -327h-215zM735 221q156 0 301 74v-236q-154 -84 -364 -84q-274 0 -431 145.5t-157 401.5t154.5 401.5t429.5 145.5q190 0 356 -80v-237q-137 72 -295 71q-162 0 -249 -77.5t-87 -223t88 -223.5t254 -78z" glyph-name="ccaron" horiz-adv-x="1136" unicode="č"/><glyph d="M715 1593l-260 328h198l170 -174l170 174h197l-260 -328h-215zM762 1462q356 0 570 -200.5t214 -530.5t-214 -530.5t-570 -200.5h-600v1462h600zM477 268h285q205 0 327.5 127t122.5 336t-122.5 336t-327.5 127h-285v-926z" glyph-name="Dcaron" horiz-adv-x="1644" unicode="Ď"/><glyph d="M1339 1176l129 348h256l-161 -348h-224zM915 942v520h302v-1462h-279v143q-127 -168 -360 -168q-223 0 -358.5 150.5t-135.5 396.5q-2 246 135 396.5t363 150.5q206 0 333 -127zM657.5 221q118.5 0 191.5 83t73 218v27q-8 125 -80 199.5t-185 74.5q-119 0 -191.5 -83 t-72.5 -218t73 -218t191.5 -83z" glyph-name="dcaron" horiz-adv-x="1724" unicode="ď"/><glyph d="M762 1462q356 0 570 -200.5t214 -530.5t-214 -530.5t-570 -200.5h-600v625h-162v213h162v624h600zM477 268h285q205 0 327.5 127t122.5 336t-122.5 336t-327.5 127h-285v-356h283v-213h-283v-357z" glyph-name="Dcroat" horiz-adv-x="1644" unicode="Đ"/><glyph d="M1217 1358h126v-213h-126v-1145h-279v143q-127 -168 -360 -168q-223 0 -358.5 150.5t-135.5 396.5q-2 246 135 396.5t363 150.5q207 0 333 -127v203h-329v213h329v104h302v-104zM657.5 221q118.5 0 191.5 83t73 218v27q-8 125 -80 199.5t-185 74.5q-119 0 -191.5 -83 t-72.5 -218t73 -218t191.5 -83z" glyph-name="dcroat" horiz-adv-x="1343" unicode="đ"/><glyph d="M266 1776h719v-183h-719v183zM1114 1462v-252h-637v-352h576v-254h-576v-352h637v-252h-952v1462h952z" glyph-name="Emacron" horiz-adv-x="1251" unicode="Ē"/><glyph d="M276 1358h719v-182h-719v182zM1190 520v-92h-799q41 -229 344 -229q217 0 383 86v-217q-180 -92 -422 -93q-291 0 -451.5 143.5t-160.5 403.5q0 254 148.5 400.5t404.5 146.5t404.5 -147.5t148.5 -401.5zM636.5 856q-106.5 0 -172 -61.5t-81.5 -176.5h508 q-16 115 -82 176.5t-172.5 61.5z" glyph-name="emacron" horiz-adv-x="1273" unicode="ē"/><glyph d="M624.5 1569q-157.5 0 -253 96t-95.5 256h166q0 -92 48.5 -144.5t134.5 -52.5t134 52.5t48 144.5h166q0 -160 -95.5 -256t-253 -96zM1114 1462v-252h-637v-352h576v-254h-576v-352h637v-252h-952v1462h952z" glyph-name="Ebreve" horiz-adv-x="1251" unicode="Ĕ"/><glyph d="M637 1151q-158 0 -253 96t-95 256h166q0 -92 48 -144t134 -52t134 52t48 144h166q0 -160 -95 -256t-253 -96zM1190 520v-92h-799q41 -229 344 -229q217 0 383 86v-217q-180 -92 -422 -93q-291 0 -451.5 143.5t-160.5 403.5q0 254 148.5 400.5t404.5 146.5t404.5 -147.5 t148.5 -401.5zM636.5 856q-106.5 0 -172 -61.5t-81.5 -176.5h508q-16 115 -82 176.5t-172.5 61.5z" glyph-name="ebreve" horiz-adv-x="1273" unicode="ĕ"/><glyph d="M625 1798l120 -117l-120 -118l-121 118zM1114 1462v-252h-637v-352h576v-254h-576v-352h637v-252h-952v1462h952z" glyph-name="Edotaccent" horiz-adv-x="1251" unicode="Ė"/><glyph d="M637 1380l121 -116l-121 -119l-121 119zM1190 520v-92h-799q41 -229 344 -229q217 0 383 86v-217q-180 -92 -422 -93q-291 0 -451.5 143.5t-160.5 403.5q0 254 148.5 400.5t404.5 146.5t404.5 -147.5t148.5 -401.5zM636.5 856q-106.5 0 -172 -61.5t-81.5 -176.5h508 q-16 115 -82 176.5t-172.5 61.5z" glyph-name="edotaccent" horiz-adv-x="1273" unicode="ė"/><glyph d="M1096 -258q41 0 94 20v-143q-92 -29 -182 -29q-113 0 -177.5 49.5t-64.5 141.5q0 113 106 219h-710v1462h952v-252h-637v-352h576v-254h-576v-352h637v-252q-106 -94 -106 -178q0 -80 88 -80z" glyph-name="Eogonek" horiz-adv-x="1251" unicode="Ę"/><glyph d="M1100 -190q41 0 94 20v-143q-92 -29 -182 -29q-113 0 -177.5 49t-64.5 141q0 66 39 134q-55 -6 -113 -7q-291 0 -451.5 143.5t-160.5 403.5q0 254 148.5 400.5t404.5 146.5t404.5 -147.5t148.5 -401.5v-92h-799q41 -229 344 -229q217 0 383 86v-217q-106 -94 -106 -179 q0 -79 88 -79zM636.5 856q-106.5 0 -172 -61.5t-81.5 -176.5h508q-16 115 -82 176.5t-172.5 61.5z" glyph-name="eogonek" horiz-adv-x="1273" unicode="ę"/><glyph d="M518 1593l-260 328h199l170 -174l170 174h196l-260 -328h-215zM1114 1462v-252h-637v-352h576v-254h-576v-352h637v-252h-952v1462h952z" glyph-name="Ecaron" horiz-adv-x="1251" unicode="Ě"/><glyph d="M528 1176l-260 327h199l170 -174l170 174h197l-261 -327h-215zM1190 520v-92h-799q41 -229 344 -229q217 0 383 86v-217q-180 -92 -422 -93q-291 0 -451.5 143.5t-160.5 403.5q0 254 148.5 400.5t404.5 146.5t404.5 -147.5t148.5 -401.5zM636.5 856q-106.5 0 -172 -61.5 t-81.5 -176.5h508q-16 115 -82 176.5t-172.5 61.5z" glyph-name="ecaron" horiz-adv-x="1273" unicode="ě"/><glyph d="M1036 1593l-170 174l-170 -174h-198l260 328h215l260 -328h-197zM887 569v271h561v-711q-227 -154 -545 -154q-367 0 -585 206t-218 550t218.5 550t584.5 206q305 0 512 -133v-293q-221 154 -483 153q-227 0 -363.5 -132t-136.5 -351t136.5 -351t363.5 -132q104 0 198 26 v295h-243z" glyph-name="Gcircumflex" horiz-adv-x="1595" unicode="Ĝ"/><glyph d="M852 1176l-170 174l-170 -174h-199l260 327h215l261 -327h-197zM938 901v143h279v-950q0 -487 -578 -487q-254 0 -440 94v223q164 -104 383 -104q166 0 257 65.5t91 188.5v43q-129 -141 -348 -142q-223 0 -360.5 150.5t-137.5 396.5q-2 246 134 396.5t360 150.5 q233 0 360 -168zM657.5 221q118.5 0 191.5 83t73 218t-73 218t-191.5 83t-191.5 -83t-73 -218t73 -218t191.5 -83z" glyph-name="gcircumflex" horiz-adv-x="1353" unicode="ĝ"/><glyph d="M866.5 1569q-157.5 0 -253 96t-95.5 256h166q0 -92 48 -144.5t134 -52.5t134.5 52.5t48.5 144.5h165q0 -160 -95 -256t-252.5 -96zM887 569v271h561v-711q-227 -154 -545 -154q-367 0 -585 206t-218 550t218.5 550t584.5 206q305 0 512 -133v-293q-221 154 -483 153 q-227 0 -363.5 -132t-136.5 -351t136.5 -351t363.5 -132q104 0 198 26v295h-243z" glyph-name="Gbreve" horiz-adv-x="1595" unicode="Ğ"/><glyph d="M682 1151q-158 0 -253 96t-95 256h166q0 -92 48 -144t134 -52t134 52t48 144h166q0 -160 -95 -256t-253 -96zM938 901v143h279v-950q0 -487 -578 -487q-254 0 -440 94v223q164 -104 383 -104q166 0 257 65.5t91 188.5v43q-129 -141 -348 -142q-223 0 -360.5 150.5 t-137.5 396.5q-2 246 134 396.5t360 150.5q233 0 360 -168zM657.5 221q118.5 0 191.5 83t73 218t-73 218t-191.5 83t-191.5 -83t-73 -218t73 -218t191.5 -83z" glyph-name="gbreve" horiz-adv-x="1353" unicode="ğ"/><glyph d="M866 1798l121 -117l-121 -118l-121 118zM887 569v271h561v-711q-227 -154 -545 -154q-367 0 -585 206t-218 550t218.5 550t584.5 206q305 0 512 -133v-293q-221 154 -483 153q-227 0 -363.5 -132t-136.5 -351t136.5 -351t363.5 -132q104 0 198 26v295h-243z" glyph-name="Gdotaccent" horiz-adv-x="1595" unicode="Ġ"/><glyph d="M682 1380l121 -116l-121 -119l-121 119zM938 901v143h279v-950q0 -487 -578 -487q-254 0 -440 94v223q164 -104 383 -104q166 0 257 65.5t91 188.5v43q-129 -141 -348 -142q-223 0 -360.5 150.5t-137.5 396.5q-2 246 134 396.5t360 150.5q233 0 360 -168zM657.5 221 q118.5 0 191.5 83t73 218t-73 218t-191.5 83t-191.5 -83t-73 -218t73 -218t191.5 -83z" glyph-name="gdotaccent" horiz-adv-x="1353" unicode="ġ"/><glyph d="M887 569v271h561v-711q-227 -154 -545 -154q-367 0 -585 206t-218 550t218.5 550t584.5 206q305 0 512 -133v-293q-221 154 -483 153q-227 0 -363.5 -132t-136.5 -351t136.5 -351t363.5 -132q104 0 198 26v295h-243zM893 -485h-211l55 374h256z" glyph-name="Gcommaaccent" horiz-adv-x="1595" unicode="Ģ"/><glyph d="M655 1552h209l-55 -376h-256zM938 901v143h279v-950q0 -487 -578 -487q-254 0 -440 94v223q164 -104 383 -104q166 0 257 65.5t91 188.5v43q-129 -141 -348 -142q-223 0 -360.5 150.5t-137.5 396.5q-2 246 134 396.5t360 150.5q233 0 360 -168zM657.5 221 q118.5 0 191.5 83t73 218t-73 218t-191.5 83t-191.5 -83t-73 -218t73 -218t191.5 -83z" glyph-name="gcommaaccent" horiz-adv-x="1353" unicode="ģ"/><glyph d="M965 1593l-170 174l-170 -174h-199l260 328h215l260 -328h-196zM1112 866v596h315v-1462h-315v596h-635v-596h-315v1462h315v-596h635z" glyph-name="Hcircumflex" horiz-adv-x="1589" unicode="Ĥ"/><glyph d="M653 1593h-196l-170 174l-170 -174h-199l260 328h215zM786 1069q182 0 293 -116.5t111 -307.5v-645h-301v604q0 102 -57.5 164.5t-151.5 62.5q-113 0 -178.5 -91t-65.5 -251v-489h-299v1462h297v-579q125 186 352 186z" glyph-name="hcircumflex" horiz-adv-x="1314" unicode="ĥ"/><glyph d="M1407 1270h131v-213h-131v-1057h-317v596h-633v-596h-318v1057h-139v213h139v192h318v-192h633v192h317v-192zM457 866h633v191h-633v-191z" glyph-name="Hbar" horiz-adv-x="1538" unicode="Ħ"/><glyph d="M786 1069q182 0 293 -116.5t111 -307.5v-645h-301v604q0 102 -57.5 164.5t-151.5 62.5q-113 0 -178.5 -91t-65.5 -251v-489h-299v1145h-137v213h137v104h297v-104h326v-213h-326v-262q125 186 352 186z" glyph-name="hbar" horiz-adv-x="1314" unicode="ħ"/><glyph d="M481 1583q-125 0 -207 94l-28 29q-37 43 -88 43q-53 0 -82 -35t-29 -98h-153q0 131 71.5 211t192.5 80q125 0 207 -95l26 -28q41 -43 90 -43q53 0 82 34.5t29 98.5h153q0 -131 -71.5 -211t-192.5 -80zM477 0h-315v1462h315v-1462z" glyph-name="Itilde" horiz-adv-x="638" unicode="Ĩ"/><glyph d="M444 1165q-125 0 -206 95l-29 28q-37 43 -88 43q-53 0 -82 -34.5t-29 -98.5h-153q0 131 71.5 211t192.5 80q125 0 207 -94l26 -29q41 -43 90 -43q53 0 82 35t29 98h154q0 -131 -72 -211t-193 -80zM432 0h-301v1044h301v-1044z" glyph-name="itilde" horiz-adv-x="565" unicode="ĩ"/><glyph d="M678 1593h-719v183h719v-183zM477 0h-315v1462h315v-1462z" glyph-name="Imacron" horiz-adv-x="638" unicode="Ī"/><glyph d="M641 1176h-719v182h719v-182zM432 0h-301v1044h301v-1044z" glyph-name="imacron" horiz-adv-x="565" unicode="ī"/><glyph d="M319.5 1569q-157.5 0 -253 96t-95.5 256h166q0 -92 48 -144.5t134.5 -52.5t134.5 52.5t48 144.5h166q0 -160 -95.5 -256t-253 -96zM477 0h-315v1462h315v-1462z" glyph-name="Ibreve" horiz-adv-x="638" unicode="Ĭ"/><glyph d="M282.5 1151q-157.5 0 -253 96t-95.5 256h166q0 -92 48.5 -144t134.5 -52t134 52t48 144h166q0 -160 -95.5 -256t-253 -96zM432 0h-301v1044h301v-1044z" glyph-name="ibreve" horiz-adv-x="565" unicode="ĭ"/><glyph d="M459 -258q41 0 94 20v-143q-92 -29 -182 -29q-113 0 -177.5 49.5t-64.5 141.5q0 113 107 219h-74v1462h315v-1462q-106 -94 -106 -178q0 -80 88 -80z" glyph-name="Iogonek" horiz-adv-x="638" unicode="Į"/><glyph d="M285 1550l188 -180l-188 -182l-189 182zM389 -258q41 0 94 20v-143q-92 -29 -182 -29q-113 0 -177.5 49.5t-64.5 141.5q0 113 107 219h-31v1044h299v-1044h-26q-106 -94 -107 -178q0 -80 88 -80z" glyph-name="iogonek" horiz-adv-x="569" unicode="į"/><glyph d="M440 1681l-121 -118l-120 118l120 117zM477 0h-315v1462h315v-1462z" glyph-name="Idotaccent" horiz-adv-x="638" unicode="İ"/><glyph d="M432 0h-301v1044h301v-1044z" glyph-name="dotlessi" horiz-adv-x="565" unicode="ı"/><glyph d="M477 0h-315v1462h315v-1462zM1051 -25q-178 0 -336 84v234q125 -66 239 -66q113 0 173.5 62.5t60.5 181.5v991h317v-991q0 -240 -117.5 -368t-336.5 -128z" glyph-name="IJ" horiz-adv-x="1652" unicode="Ĳ"/><glyph d="M473 1370l-188 -182l-189 182l189 180zM1059 1370l-189 -182l-190 182l190 180zM434 0h-299v1044h299v-1044zM637 -393q-131 0 -246 59v223q84 -45 162 -45q166 0 166 191v1009h301v-1009q0 -207 -98.5 -317.5t-284.5 -110.5z" glyph-name="ij" horiz-adv-x="1155" unicode="ĳ"/><glyph d="M815 1921l260 -328h-196l-170 174l-170 -174h-199l260 328h215zM549 471v991h317v-991q0 -240 -117.5 -368t-336.5 -128q-178 0 -336 84v234q125 -66 239 -66q113 0 173.5 62.5t60.5 181.5z" glyph-name="Jcircumflex" horiz-adv-x="1013" unicode="Ĵ"/><glyph d="M489 1503l261 -327h-197l-170 174l-170 -174h-199l260 327h215zM231 35v1009h301v-1009q0 -207 -98 -317.5t-284 -110.5q-131 0 -246 59v223q88 -45 162 -45q165 1 165 191z" glyph-name="jcircumflex" horiz-adv-x="663" unicode="ĵ"/><glyph d="M162 0v1462h315v-1462h-315zM1403 1462l-553 -712l580 -750h-379l-574 750l547 712h379zM768 -485h-211l55 374h256z" glyph-name="Kcommaaccent" horiz-adv-x="1478" unicode="Ķ"/><glyph d="M137 0v1462h299v-1462h-299zM1149 1044l-387 -485l426 -559h-342l-410 559l369 485h344zM647 -485h-211l56 374h256z" glyph-name="kcommaaccent" horiz-adv-x="1239" unicode="ķ"/><glyph d="M137 0v1044h299v-1044h-299zM1149 1044l-387 -485l426 -559h-342l-410 559l369 485h344z" glyph-name="kgreenlandic" horiz-adv-x="1239" unicode="ĸ"/><glyph d="M332 1921h256l-162 -328h-211zM477 1462v-1194h637v-268h-952v1462h315z" glyph-name="Lacute" horiz-adv-x="1189" unicode="Ĺ"/><glyph d="M393 1593h-211l117 328h256zM436 0h-299v1462h299v-1462z" glyph-name="lacute" horiz-adv-x="573" unicode="ĺ"/><glyph d="M477 1462v-1194h637v-268h-952v1462h315zM666 -485h-211l55 374h256z" glyph-name="Lcommaaccent" horiz-adv-x="1189" unicode="Ļ"/><glyph d="M436 0h-299v1462h299v-1462zM313 -485h-211l56 374h256z" glyph-name="lcommaaccent" horiz-adv-x="573" unicode="ļ"/><glyph d="M770 1524h256l-162 -348h-223zM477 1462v-1194h637v-268h-952v1462h315z" glyph-name="Lcaron" horiz-adv-x="1189" unicode="Ľ"/><glyph d="M784 1176h-223l129 348h254zM436 0h-299v1462h299v-1462z" glyph-name="lcaron" horiz-adv-x="944" unicode="ľ"/><glyph d="M477 1462v-1194h637v-268h-952v1462h315zM819 850l121 -117l-121 -117l-121 117z" glyph-name="Ldot" horiz-adv-x="1189" unicode="Ŀ"/><glyph d="M436 0h-299v1462h299v-1462zM799 733l-121 -117l-121 117l121 117z" glyph-name="ldot" horiz-adv-x="798" unicode="ŀ"/><glyph d="M600 791v-523h637v-268h-952v680l-285 -98v213l285 98v569h315v-458l328 114v-213z" glyph-name="Lslash" horiz-adv-x="1312" unicode="Ł"/><glyph d="M432 981l234 82v-213l-234 -82v-768h-301v666l-233 -82v213l233 82v583h301v-481z" glyph-name="lslash" horiz-adv-x="565" unicode="ł"/><glyph d="M852 1921h256l-162 -328h-211zM1202 457v1005h318v-1462h-363l-680 1006v-1006h-315v1462h360z" glyph-name="Nacute" horiz-adv-x="1679" unicode="Ń"/><glyph d="M670 1503h256l-162 -327h-211zM786 1069q182 0 293 -116.5t111 -307.5v-645h-301v604q0 102 -57.5 164.5t-151.5 62.5q-113 0 -178.5 -91t-65.5 -251v-489h-299v1044h297v-161q125 186 352 186z" glyph-name="nacute" horiz-adv-x="1314" unicode="ń"/><glyph d="M1202 457v1005h318v-1462h-363l-680 1006v-1006h-315v1462h360zM868 -485h-211l56 374h256z" glyph-name="Ncommaaccent" horiz-adv-x="1679" unicode="Ņ"/><glyph d="M786 1069q182 0 293 -116.5t111 -307.5v-645h-301v604q0 102 -57.5 164.5t-151.5 62.5q-113 0 -178.5 -91t-65.5 -251v-489h-299v1044h297v-161q125 186 352 186zM684 -485h-211l55 374h256z" glyph-name="ncommaaccent" horiz-adv-x="1314" unicode="ņ"/><glyph d="M733 1593l-260 328h199l170 -174l170 174h196l-260 -328h-215zM1202 457v1005h318v-1462h-363l-680 1006v-1006h-315v1462h360z" glyph-name="Ncaron" horiz-adv-x="1679" unicode="Ň"/><glyph d="M549 1176l-260 327h198l170 -174l170 174h197l-260 -327h-215zM786 1069q182 0 293 -116.5t111 -307.5v-645h-301v604q0 102 -57.5 164.5t-151.5 62.5q-113 0 -178.5 -91t-65.5 -251v-489h-299v1044h297v-161q125 186 352 186z" glyph-name="ncaron" horiz-adv-x="1314" unicode="ň"/><glyph d="M211 1047h-211l90 415h256zM1008 1069q182 0 292.5 -116.5t110.5 -307.5v-645h-299v604q0 102 -57.5 164.5t-153.5 62.5q-113 0 -177.5 -91t-64.5 -251v-489h-301v1044h297v-161q126 186 353 186z" glyph-name="napostrophe" horiz-adv-x="1536" unicode="ŉ"/><glyph d="M1202 457v1005h318v-1505q0 -207 -99.5 -317.5t-285.5 -110.5q-131 0 -246 59v224q84 -45 162 -45q168 0 168 190v43h-62l-680 1006v-1006h-315v1462h360z" glyph-name="Eng" horiz-adv-x="1679" unicode="Ŋ"/><glyph d="M786 1069q182 0 293 -116.5t111 -307.5v-688q0 -207 -98.5 -317.5t-284.5 -110.5q-131 0 -246 59v224q84 -45 162 -45q166 0 166 190v647q0 102 -57.5 164.5t-151.5 62.5q-113 0 -178.5 -91t-65.5 -251v-489h-299v1044h297v-161q125 186 352 186z" glyph-name="eng" horiz-adv-x="1314" unicode="ŋ"/><glyph d="M1231 1593h-719v183h719v-183zM870 -25q-344 0 -557 210t-213 546t213 546t557 210t558 -210t214 -546t-214 -546t-558 -210zM870.5 248q196.5 0 317.5 133t121 350t-121 350t-317.5 133t-317.5 -133t-121 -350t121 -350t317.5 -133z" glyph-name="Omacron" horiz-adv-x="1740" unicode="Ō"/><glyph d="M1016 1176h-719v182h719v-182zM657 -25q-258 0 -415.5 150.5t-157.5 396.5t157.5 396.5t415.5 150.5t416 -150.5t158 -396.5t-158 -396.5t-416 -150.5zM657 221q121 0 193 81t72 220.5t-72 220t-193 80.5q-123 0 -193.5 -80.5t-70.5 -220t70.5 -220.5t193.5 -81z" glyph-name="omacron" horiz-adv-x="1314" unicode="ō"/><glyph d="M870.5 1569q-157.5 0 -253 96t-95.5 256h166q0 -92 48 -144.5t134 -52.5t134.5 52.5t48.5 144.5h166q0 -160 -95.5 -256t-253 -96zM870 -25q-344 0 -557 210t-213 546t213 546t557 210t558 -210t214 -546t-214 -546t-558 -210zM870.5 248q196.5 0 317.5 133t121 350 t-121 350t-317.5 133t-317.5 -133t-121 -350t121 -350t317.5 -133z" glyph-name="Obreve" horiz-adv-x="1740" unicode="Ŏ"/><glyph d="M657.5 1151q-157.5 0 -253 96t-95.5 256h166q0 -92 48 -144t134 -52t134.5 52t48.5 144h166q0 -160 -95.5 -256t-253 -96zM657 -25q-258 0 -415.5 150.5t-157.5 396.5t157.5 396.5t415.5 150.5t416 -150.5t158 -396.5t-158 -396.5t-416 -150.5zM657 221q121 0 193 81 t72 220.5t-72 220t-193 80.5q-123 0 -193.5 -80.5t-70.5 -220t70.5 -220.5t193.5 -81z" glyph-name="obreve" horiz-adv-x="1314" unicode="ŏ"/><glyph d="M737 1593h-170l76 328h217zM1174 1593h-170l75 328h217zM870 -25q-344 0 -557 210t-213 546t213 546t557 210t558 -210t214 -546t-214 -546t-558 -210zM870.5 248q196.5 0 317.5 133t121 350t-121 350t-317.5 133t-317.5 -133t-121 -350t121 -350t317.5 -133z" glyph-name="Ohungarumlaut" horiz-adv-x="1740" unicode="Ő"/><glyph d="M524 1176h-170l76 327h217zM961 1176h-170l75 327h217zM657 -25q-258 0 -415.5 150.5t-157.5 396.5t157.5 396.5t415.5 150.5t416 -150.5t158 -396.5t-158 -396.5t-416 -150.5zM657 221q121 0 193 81t72 220.5t-72 220t-193 80.5q-123 0 -193.5 -80.5t-70.5 -220 t70.5 -220.5t193.5 -81z" glyph-name="ohungarumlaut" horiz-adv-x="1314" unicode="ő"/><glyph d="M2386 1462v-252h-637v-352h575v-254h-575v-352h637v-252h-954v188q-213 -213 -562 -213q-344 0 -557 210t-213 546t213 546t557 210q348 0 562 -213v188h954zM870.5 248q196.5 0 317.5 133t121 350t-121 350t-317.5 133t-317.5 -133t-121 -350t121 -350t317.5 -133z" glyph-name="OE" horiz-adv-x="2521" unicode="Œ"/><glyph d="M2163 520v-92h-801q41 -229 344 -229q215 0 385 86v-217q-184 -92 -422 -93q-377 0 -528 232q-156 -231 -484 -232q-258 0 -415.5 150.5t-157.5 396.5t157.5 396.5t415.5 150.5q326 0 482 -227q143 227 469 227q256 0 405.5 -147.5t149.5 -401.5zM1608 856 q-106 0 -172 -61.5t-82 -176.5h508q-33 238 -254 238zM657 221q121 0 193 81t72 220.5t-72 220t-193 80.5q-123 0 -193.5 -80.5t-70.5 -220t70.5 -220.5t193.5 -81z" glyph-name="oe" horiz-adv-x="2244" unicode="œ"/><glyph d="M678 1921h256l-162 -328h-211zM1315 0h-342l-318 573h-178v-573h-315v1462h538q240 0 380.5 -119.5t140.5 -324.5q0 -137 -65.5 -238.5t-186.5 -154.5zM700 1210h-223v-385h223q92 0 148.5 52.5t56.5 140.5t-56.5 140t-148.5 52z" glyph-name="Racute" horiz-adv-x="1363" unicode="Ŕ"/><glyph d="M588 1176h-211l117 327h256zM436 0h-299v1044h297v-153h2q88 178 297 178q74 0 176 -31v-241q-111 35 -186 34q-133 0 -210 -91t-77 -248v-492z" glyph-name="racute" horiz-adv-x="948" unicode="ŕ"/><glyph d="M969 625l346 -625h-342l-318 573h-178v-573h-315v1462h538q240 0 380.5 -119.5t140.5 -324.5q0 -137 -65.5 -238.5t-186.5 -154.5zM700 1210h-223v-385h223q92 0 148.5 52.5t56.5 140.5t-56.5 140t-148.5 52zM694 -485h-211l56 374h256z" glyph-name="Rcommaaccent" horiz-adv-x="1363" unicode="Ŗ"/><glyph d="M436 0h-299v1044h297v-153h2q88 178 297 178q74 0 176 -31v-241q-111 35 -186 34q-133 0 -210 -91t-77 -248v-492zM313 -485h-211l56 374h256z" glyph-name="rcommaaccent" horiz-adv-x="948" unicode="ŗ"/><glyph d="M559 1593l-260 328h199l170 -174l170 174h196l-260 -328h-215zM1315 0h-342l-318 573h-178v-573h-315v1462h538q240 0 380.5 -119.5t140.5 -324.5q0 -137 -65.5 -238.5t-186.5 -154.5zM700 1210h-223v-385h223q92 0 148.5 52.5t56.5 140.5t-56.5 140t-148.5 52z" glyph-name="Rcaron" horiz-adv-x="1363" unicode="Ř"/><glyph d="M373 1176l-260 327h198l170 -174l170 174h197l-260 -327h-215zM733 1069q74 0 176 -31v-241q-111 35 -186 34q-133 0 -210 -91t-77 -248v-492h-299v1044h297v-153h2q88 178 297 178z" glyph-name="rcaron" horiz-adv-x="948" unicode="ř"/><glyph d="M688 1593h-211l117 328h256zM522 -25q-207 0 -395 82v267q215 -94 387 -95q240 0 240 181q0 70 -43 113.5t-146 82.5l-129 49q-344 131 -344 422q0 188 141.5 299t384.5 111q201 0 379 -82v-266q-203 94 -368 94q-104 0 -161.5 -41t-57.5 -115q0 -61 42 -103t138 -81 l141 -55q340 -131 340 -426q0 -203 -146.5 -320t-402.5 -117z" glyph-name="Sacute" horiz-adv-x="1163" unicode="Ś"/><glyph d="M631 1176h-211l117 327h256zM483 -25q-207 0 -366 62v233q158 -70 336 -69q209 0 209 102q0 66 -99 96l-180 54q-289 80 -289 311q0 145 119 225t340 80q172 0 342 -61v-234q-164 70 -313 70q-88 0 -136.5 -24.5t-48.5 -67.5q0 -57 97 -90l176 -52q295 -86 295 -317 q0 -156 -123 -237t-359 -81z" glyph-name="sacute" horiz-adv-x="1058" unicode="ś"/><glyph d="M752 1593l-170 174l-170 -174h-199l260 328h215l260 -328h-196zM590 893l141 -55q340 -131 340 -426q0 -203 -146.5 -320t-402.5 -117q-207 0 -395 82v267q215 -94 387 -95q240 0 240 181q0 70 -43 113.5t-146 82.5l-129 49q-344 131 -344 422q0 188 141.5 299t384.5 111 q201 0 379 -82v-266q-203 94 -368 94q-104 0 -161.5 -41t-57.5 -115q0 -61 42 -103t138 -81z" glyph-name="Scircumflex" horiz-adv-x="1163" unicode="Ŝ"/><glyph d="M696 1176l-170 174l-170 -174h-198l260 327h215l260 -327h-197zM494 662l176 -52q295 -86 295 -317q0 -156 -123 -237t-359 -81q-207 0 -366 62v233q158 -70 336 -69q209 0 209 102q0 66 -99 96l-180 54q-289 80 -289 311q0 145 119 225t340 80q172 0 342 -61v-234 q-164 70 -313 70q-88 0 -136.5 -24.5t-48.5 -67.5q1 -57 97 -90z" glyph-name="scircumflex" horiz-adv-x="1058" unicode="ŝ"/><glyph d="M1071 412q0 -166 -99.5 -275.5t-277.5 -144.5l-24 -72q168 -35 168 -172q0 -88 -72 -135t-203 -47q-102 0 -196 28v117q59 -18 118 -18q119 0 119 82q0 92 -180 92l37 110q-170 8 -334 80v267q215 -94 387 -95q240 0 240 181q0 70 -43 113.5t-146 82.5l-129 49 q-344 131 -344 422q0 188 141.5 299t384.5 111q201 0 379 -82v-266q-203 94 -368 94q-104 0 -161.5 -41t-57.5 -115q0 -61 42 -103t138 -81l141 -55q340 -131 340 -426z" glyph-name="Scedilla" horiz-adv-x="1163" unicode="Ş"/><glyph d="M965 293q0 -260 -330 -307l-23 -66q168 -35 168 -172q0 -88 -71.5 -135t-202.5 -47q-102 0 -197 28v117q57 -18 119 -18q119 0 119 82q0 92 -180 92l36 110q-156 8 -286 60v233q158 -70 336 -69q209 0 209 102q0 66 -99 96l-180 54q-289 80 -289 311q0 145 119 225 t340 80q172 0 342 -61v-234q-164 70 -313 70q-88 0 -136.5 -24.5t-48.5 -67.5q0 -57 97 -90l176 -52q295 -86 295 -317z" glyph-name="scedilla" horiz-adv-x="1058" unicode="ş"/><glyph d="M473 1593l-260 328h199l170 -174l170 174h196l-260 -328h-215zM590 893l141 -55q340 -131 340 -426q0 -203 -146.5 -320t-402.5 -117q-207 0 -395 82v267q215 -94 387 -95q240 0 240 181q0 70 -43 113.5t-146 82.5l-129 49q-344 131 -344 422q0 188 141.5 299t384.5 111 q201 0 379 -82v-266q-203 94 -368 94q-104 0 -161.5 -41t-57.5 -115q0 -61 42 -103t138 -81z" glyph-name="Scaron" horiz-adv-x="1163" unicode="Š"/><glyph d="M418 1176l-260 327h198l170 -174l170 174h197l-260 -327h-215zM494 662l176 -52q295 -86 295 -317q0 -156 -123 -237t-359 -81q-207 0 -366 62v233q158 -70 336 -69q209 0 209 102q0 66 -99 96l-180 54q-289 80 -289 311q0 145 119 225t340 80q172 0 342 -61v-234 q-164 70 -313 70q-88 0 -136.5 -24.5t-48.5 -67.5q1 -57 97 -90z" glyph-name="scaron" horiz-adv-x="1058" unicode="š"/><glyph d="M866 1194v-1194h-43l-26 -80q168 -35 168 -172q0 -88 -72 -135t-203 -47q-102 0 -196 28v117q59 -18 118 -18q119 0 119 82q0 92 -180 92l45 133h-45v1194h-475v268h1265v-268h-475z" glyph-name="Tcommaaccent" horiz-adv-x="1417" unicode="Ţ"/><glyph d="M887 1044v-237h-352v-428q0 -166 161 -166q82 0 178 47v-221q-111 -47 -186 -57l-20 -62q168 -35 168 -172q0 -88 -72 -135t-203 -47q-102 0 -196 28v117q57 -18 118 -18q119 0 119 82q0 92 -180 92l43 127q-231 70 -232 358v455h-194v237h194v295h302v-295h352z" glyph-name="tcommaaccent" horiz-adv-x="970" unicode="ţ"/><glyph d="M600 1593l-260 328h199l170 -174l170 174h196l-260 -328h-215zM1341 1462v-268h-475v-1194h-315v1194h-475v268h1265z" glyph-name="Tcaron" horiz-adv-x="1417" unicode="Ť"/><glyph d="M887 1044v-237h-352v-428q0 -166 161 -166q82 0 178 47v-221q-145 -63 -268 -64q-180 0 -276.5 97.5t-96.5 279.5v455h-194v237h194v295h302v-295h352z" glyph-name="tcaron" horiz-adv-x="970" unicode="ť"/><glyph d="M1341 1462v-268h-475v-356h330v-213h-330v-625h-315v625h-338v213h338v356h-475v268h1265z" glyph-name="Tbar" horiz-adv-x="1417" unicode="Ŧ"/><glyph d="M887 1044v-237h-352v-172h294v-197h-294v-59q0 -166 161 -166q82 0 178 47v-221q-145 -63 -268 -64q-180 0 -276.5 97.5t-96.5 279.5v86h-200v197h200v172h-194v237h194v295h302v-295h352z" glyph-name="tbar" horiz-adv-x="989" unicode="ŧ"/><glyph d="M621 1749q-53 0 -82 -35t-29 -98h-154q0 131 72 211t193 80q125 0 206 -95l27 -28q41 -43 90 -43q53 0 82 34.5t29 98.5h153q0 -131 -71.5 -211t-192.5 -80q-125 0 -207 94l-28 29q-37 43 -88 43zM1100 575v887h315v-887q0 -270 -174 -435t-458.5 -165t-458.5 165 t-174 435v887h315v-887q0 -152 86 -239.5t231.5 -87.5t231.5 87.5t86 239.5z" glyph-name="Utilde" horiz-adv-x="1564" unicode="Ũ"/><glyph d="M496 1331q-53 0 -82 -34.5t-29 -98.5h-154q0 131 72 211t193 80q125 0 206 -94l27 -29q41 -43 90 -43q53 0 82 35t29 98h153q0 -131 -71.5 -211t-192.5 -80q-125 0 -207 95l-28 28q-37 43 -88 43zM877 555v489h301v-1044h-297v162q-125 -186 -353 -187q-182 0 -292.5 117 t-110.5 307v645h299v-604q0 -102 57.5 -164.5t153.5 -62.5q113 0 177.5 91t64.5 251z" glyph-name="utilde" horiz-adv-x="1314" unicode="ũ"/><glyph d="M422 1776h719v-183h-719v183zM1100 575v887h315v-887q0 -270 -174 -435t-458.5 -165t-458.5 165t-174 435v887h315v-887q0 -152 86 -239.5t231.5 -87.5t231.5 87.5t86 239.5z" glyph-name="Umacron" horiz-adv-x="1564" unicode="Ū"/><glyph d="M297 1358h719v-182h-719v182zM877 555v489h301v-1044h-297v162q-125 -186 -353 -187q-182 0 -292.5 117t-110.5 307v645h299v-604q0 -102 57.5 -164.5t153.5 -62.5q113 0 177.5 91t64.5 251z" glyph-name="umacron" horiz-adv-x="1314" unicode="ū"/><glyph d="M782.5 1569q-157.5 0 -253 96t-95.5 256h166q0 -92 48 -144.5t134 -52.5t134.5 52.5t48.5 144.5h165q0 -160 -95 -256t-252.5 -96zM1100 575v887h315v-887q0 -270 -174 -435t-458.5 -165t-458.5 165t-174 435v887h315v-887q0 -152 86 -239.5t231.5 -87.5t231.5 87.5 t86 239.5z" glyph-name="Ubreve" horiz-adv-x="1564" unicode="Ŭ"/><glyph d="M657.5 1151q-157.5 0 -253 96t-95.5 256h166q0 -92 48 -144t134 -52t134.5 52t48.5 144h166q0 -160 -95.5 -256t-253 -96zM877 555v489h301v-1044h-297v162q-125 -186 -353 -187q-182 0 -292.5 117t-110.5 307v645h299v-604q0 -102 57.5 -164.5t153.5 -62.5 q113 0 177.5 91t64.5 251z" glyph-name="ubreve" horiz-adv-x="1314" unicode="ŭ"/><glyph d="M780.5 1536q-100.5 0 -167 65.5t-66.5 162t66.5 162t167 65.5t168 -65.5t67.5 -162t-67.5 -162t-168 -65.5zM780 1874q-45 0 -76.5 -32t-31.5 -79t30.5 -77.5t77.5 -30.5t79 30.5t32 77.5t-32 79t-79 32zM1100 575v887h315v-887q0 -270 -174 -435t-458.5 -165t-458.5 165 t-174 435v887h315v-887q0 -152 86 -239.5t231.5 -87.5t231.5 87.5t86 239.5z" glyph-name="Uring" horiz-adv-x="1564" unicode="Ů"/><glyph d="M655.5 1118q-100.5 0 -167 65.5t-66.5 162t66.5 162t167 65.5t168 -65.5t67.5 -162t-67.5 -162t-168 -65.5zM655 1456q-45 0 -76.5 -31.5t-31.5 -79t31.5 -78t76.5 -30.5q47 0 79 30.5t32 78t-32 79t-79 31.5zM877 555v489h301v-1044h-297v162q-125 -186 -353 -187 q-182 0 -292.5 117t-110.5 307v645h299v-604q0 -102 57.5 -164.5t153.5 -62.5q113 0 177.5 91t64.5 251z" glyph-name="uring" horiz-adv-x="1314" unicode="ů"/><glyph d="M555 1921h217l-123 -328h-170zM991 1921h217l-123 -328h-170zM1100 575v887h315v-887q0 -270 -174 -435t-458.5 -165t-458.5 165t-174 435v887h315v-887q0 -152 86 -239.5t231.5 -87.5t231.5 87.5t86 239.5z" glyph-name="Uhungarumlaut" horiz-adv-x="1564" unicode="Ű"/><glyph d="M430 1503h217l-123 -327h-170zM866 1503h217l-122 -327h-170zM877 555v489h301v-1044h-297v162q-125 -186 -353 -187q-182 0 -292.5 117t-110.5 307v645h299v-604q0 -102 57.5 -164.5t153.5 -62.5q113 0 177.5 91t64.5 251z" glyph-name="uhungarumlaut" horiz-adv-x="1314" unicode="ű"/><glyph d="M1100 575v887h315v-887q0 -246 -144.5 -405.5t-387.5 -187.5q-86 -82 -86 -160q0 -80 88 -80q41 0 94 20v-143q-92 -29 -182 -29q-113 0 -177.5 49.5t-64.5 141.5q0 106 92 205q-229 39 -363 196.5t-134 392.5v887h315v-887q0 -152 86 -239.5t231.5 -87.5t231.5 87.5 t86 239.5z" glyph-name="Uogonek" horiz-adv-x="1564" unicode="Ų"/><glyph d="M1159 -258q41 0 94 20v-143q-92 -29 -182 -29q-113 0 -177.5 49.5t-64.5 141.5q0 113 107 219h-55v162q-125 -186 -353 -187q-182 0 -292.5 117t-110.5 307v645h299v-604q0 -102 57.5 -164.5t153.5 -62.5q113 0 177.5 91t64.5 251v489h301v-1044q-106 -94 -107 -178 q0 -80 88 -80z" glyph-name="uogonek" horiz-adv-x="1314" unicode="ų"/><glyph d="M1358 1593l-170 174l-170 -174h-199l260 328h215l260 -328h-196zM1710 340l281 1122h331l-403 -1462h-422l-311 1073l-312 -1073h-421l-402 1462h330l281 -1122h4l327 1122h385l328 -1122h4z" glyph-name="Wcircumflex" horiz-adv-x="2371" unicode="Ŵ"/><glyph d="M1090 1176l-170 174l-170 -174h-199l260 327h215l260 -327h-196zM1298 248l181 796h309l-264 -1044h-420l-184 793l-185 -793h-420l-264 1044h309l181 -796h2l198 796h357l198 -796h2z" glyph-name="wcircumflex" horiz-adv-x="1839" unicode="ŵ"/><glyph d="M934 1593l-170 174l-170 -174h-199l260 328h215l260 -328h-196zM764 997l326 465h385l-553 -745v-717h-316v717l-555 745h385z" glyph-name="Ycircumflex" horiz-adv-x="1525" unicode="Ŷ"/><glyph d="M809 1176l-170 174l-170 -174h-199l260 327h215l261 -327h-197zM647 338l262 706h316l-574 -1413h-315l160 371l-445 1042h316l276 -706h4z" glyph-name="ycircumflex" horiz-adv-x="1273" unicode="ŷ"/><glyph d="M557 1798l121 -117l-121 -118l-121 118zM969 1798l121 -117l-121 -118l-121 118zM764 997l326 465h385l-553 -745v-717h-316v717l-555 745h385z" glyph-name="Ydieresis" horiz-adv-x="1525" unicode="Ÿ"/><glyph d="M827 1593h-211l117 328h256zM1333 0h-1227v246l773 948h-752v268h1186v-245l-770 -949h790v-268z" glyph-name="Zacute" horiz-adv-x="1439" unicode="Ź"/><glyph d="M686 1176h-211l117 327h256zM1075 0h-987v217l551 590h-533v237h951v-217l-553 -589h571v-238z" glyph-name="zacute" horiz-adv-x="1161" unicode="ź"/><glyph d="M842 1681l-121 -118l-121 118l121 117zM1333 0h-1227v246l773 948h-752v268h1186v-245l-770 -949h790v-268z" glyph-name="Zdotaccent" horiz-adv-x="1439" unicode="Ż"/><glyph d="M702 1264l-120 -119l-121 119l121 116zM1075 0h-987v217l551 590h-533v237h951v-217l-553 -589h571v-238z" glyph-name="zdotaccent" horiz-adv-x="1161" unicode="ż"/><glyph d="M612 1593l-260 328h199l170 -174l170 174h196l-260 -328h-215zM1313 1217l-770 -949h790v-268h-1227v246l773 948h-752v268h1186v-245z" glyph-name="Zcaron" horiz-adv-x="1439" unicode="Ž"/><glyph d="M473 1176l-260 327h199l170 -174l170 174h196l-260 -327h-215zM1057 827l-553 -589h571v-238h-987v217l551 590h-533v237h951v-217z" glyph-name="zcaron" horiz-adv-x="1161" unicode="ž"/><glyph d="M788 1487q385 0 601.5 -198.5t216.5 -557.5q0 -348 -204 -552t-554 -204q-348 0 -548 203t-200 553v115h1162q-68 369 -537 368q-291 0 -532 -127v263q263 137 595 137zM848 248q174 0 282.5 95t133.5 267h-828q23 -172 130.5 -267t281.5 -95z" glyph-name="uni018F" horiz-adv-x="1703" unicode="Ə"/><glyph d="M993 1202q-121 0 -147 -123l-31 -145h256v-229h-305l-90 -431q-61 -299 -346 -299q-119 0 -260 62v211q98 -45 174 -45q121 0 147 123l80 379h-215v229h264l41 196q61 299 346 300q119 0 260 -62v-211q-102 45 -174 45z" glyph-name="florin" horiz-adv-x="1239" unicode="ƒ"/><glyph d="M1552 1485v76h252v-91q0 -279 -260 -344q98 -174 98 -395q0 -336 -214 -546t-558 -210t-557 210t-213 546t213 546t557 210q305 0 514 -170q78 2 123 47t45 121zM870.5 248q196.5 0 317.5 133t121 350t-121 350t-317.5 133t-317.5 -133t-121 -350t121 -350t317.5 -133z " glyph-name="Ohorn" horiz-adv-x="1740" unicode="Ơ"/><glyph d="M1262 1067v76h251v-90q0 -150 -78.5 -240t-228.5 -115q25 -82 25 -176q0 -246 -158 -396.5t-416 -150.5t-415.5 150.5t-157.5 396.5t157.5 396.5t415.5 150.5q276 0 435 -170q80 4 125 48t45 120zM657 221q121 0 193 81t72 220.5t-72 220t-193 80.5q-123 0 -193.5 -80.5 t-70.5 -220t70.5 -220.5t193.5 -81z" glyph-name="ohorn" horiz-adv-x="1314" unicode="ơ"/><glyph d="M1593 1485v76h252v-91q0 -176 -110.5 -270t-319.5 -94v-531q0 -270 -174 -435t-458.5 -165t-458.5 165t-174 435v887h315v-887q0 -152 86 -239.5t231.5 -87.5t231.5 88t86 239v887h315v-145q84 0 131 45t47 123z" glyph-name="Uhorn" horiz-adv-x="1564" unicode="Ư"/><glyph d="M1356 1067v76h252v-90q0 -176 -111 -270.5t-319 -94.5v-688h-297v162q-125 -186 -353 -187q-182 0 -292.5 117t-110.5 307v645h299v-604q0 -102 57.5 -164.5t153.5 -62.5q113 0 177.5 91t64.5 251v489h301v-145q84 0 131 45t47 123z" glyph-name="uhorn" horiz-adv-x="1314" unicode="ư"/><glyph d="M659 1593l-260 328h199l170 -174l170 174h197l-261 -328h-215zM1483 0h-330l-129 379h-514l-129 -379h-330l504 1462h424zM764 1122l-168 -489h340l-168 489h-4z" glyph-name="uni01CD" horiz-adv-x="1533" unicode="Ǎ"/><glyph d="M522 1176l-260 327h199l170 -174l170 174h196l-260 -327h-215zM586 1069q268 0 409.5 -107.5t141.5 -310.5v-651h-279v129q-106 -154 -362 -154q-195 0 -307.5 93.5t-112.5 255.5q0 164 114.5 253t325.5 89q168 0 324 -60v58q0 186 -299 186q-193 0 -367 -78v223 q191 74 412 74zM584 172q115 0 185.5 61.5t70.5 163.5v13q-98 59 -234 59q-104 0 -163.5 -40t-59.5 -109.5t53.5 -108.5t147.5 -39z" glyph-name="uni01CE" horiz-adv-x="1261" unicode="ǎ"/><glyph d="M211 1593l-260 328h199l169 -174l170 174h197l-260 -328h-215zM477 0h-315v1462h315v-1462z" glyph-name="uni01CF" horiz-adv-x="638" unicode="Ǐ"/><glyph d="M174 1176l-260 327h199l170 -174l170 174h196l-260 -327h-215zM432 0h-301v1044h301v-1044z" glyph-name="uni01D0" horiz-adv-x="565" unicode="ǐ"/><glyph d="M762 1593l-260 328h198l170 -174l170 174h197l-260 -328h-215zM870 1487q344 0 558 -210t214 -546t-214 -546t-558 -210t-557 210t-213 546t213 546t557 210zM870.5 248q196.5 0 317.5 133t121 350t-121 350t-317.5 133t-317.5 -133t-121 -350t121 -350t317.5 -133z" glyph-name="uni01D1" horiz-adv-x="1740" unicode="Ǒ"/><glyph d="M549 1176l-260 327h198l170 -174l170 174h197l-260 -327h-215zM657 1069q258 0 416 -150.5t158 -396.5t-158 -396.5t-416 -150.5t-415.5 150.5t-157.5 396.5t157.5 396.5t415.5 150.5zM657 221q121 0 193 81t72 220.5t-72 220t-193 80.5q-123 0 -193.5 -80.5t-70.5 -220 t70.5 -220.5t193.5 -81z" glyph-name="uni01D2" horiz-adv-x="1314" unicode="ǒ"/><glyph d="M674 1593l-260 328h198l170 -174l170 174h197l-260 -328h-215zM1100 575v887h315v-887q0 -270 -174 -435t-458.5 -165t-458.5 165t-174 435v887h315v-887q0 -152 86 -239.5t231.5 -87.5t231.5 87.5t86 239.5z" glyph-name="uni01D3" horiz-adv-x="1564" unicode="Ǔ"/><glyph d="M549 1176l-260 327h198l170 -174l170 174h197l-260 -327h-215zM877 555v489h301v-1044h-297v162q-125 -186 -353 -187q-182 0 -292.5 117t-110.5 307v645h299v-604q0 -102 57.5 -164.5t153.5 -62.5q113 0 177.5 91t64.5 251z" glyph-name="uni01D4" horiz-adv-x="1314" unicode="ǔ"/><glyph d="M422 2054h719v-180h-719v180zM696 1681l-121 -118l-120 118l120 117zM1108 1681l-121 -118l-121 118l121 117zM1100 575v887h315v-887q0 -270 -174 -435t-458.5 -165t-458.5 165t-174 435v887h315v-887q0 -152 86 -239.5t231.5 -87.5t231.5 87.5t86 239.5z" glyph-name="uni01D5" horiz-adv-x="1564" unicode="Ǖ"/><glyph d="M297 1636h719v-180h-719v180zM571 1264l-120 -119l-121 119l121 116zM983 1264l-121 -119l-121 119l121 116zM877 555v489h301v-1044h-297v162q-125 -186 -353 -187q-182 0 -292.5 117t-110.5 307v645h299v-604q0 -102 57.5 -164.5t153.5 -62.5q113 0 177.5 91t64.5 251z " glyph-name="uni01D6" horiz-adv-x="1314" unicode="ǖ"/><glyph d="M795 2200h256l-164 -326h-211zM575 1798l121 -117l-121 -118l-120 118zM987 1563l-121 118l121 117l121 -117zM1100 575v887h315v-887q0 -270 -174 -435t-458.5 -165t-458.5 165t-174 435v887h315v-887q0 -152 86 -239.5t231.5 -87.5t231.5 87.5t86 239.5z" glyph-name="uni01D7" horiz-adv-x="1564" unicode="Ǘ"/><glyph d="M670 1782h256l-164 -326h-211zM451 1380l120 -116l-120 -119l-121 119zM862 1145l-121 119l121 116l121 -116zM877 555v489h301v-1044h-297v162q-125 -186 -353 -187q-182 0 -292.5 117t-110.5 307v645h299v-604q0 -102 57.5 -164.5t153.5 -62.5q113 0 177.5 91t64.5 251 z" glyph-name="uni01D8" horiz-adv-x="1314" unicode="ǘ"/><glyph d="M674 1874l-260 326h198l170 -175l170 175h197l-260 -326h-215zM575 1563l-120 118l120 117l121 -117zM1108 1681l-121 -118l-121 118l121 117zM1100 575v887h315v-887q0 -270 -174 -435t-458.5 -165t-458.5 165t-174 435v887h315v-887q0 -152 86 -239.5t231.5 -87.5 t231.5 87.5t86 239.5z" glyph-name="uni01D9" horiz-adv-x="1564" unicode="Ǚ"/><glyph d="M549 1456l-260 326h198l170 -174l170 174h197l-260 -326h-215zM451 1145l-121 119l121 116l120 -116zM983 1264l-121 -119l-121 119l121 116zM877 555v489h301v-1044h-297v162q-125 -186 -353 -187q-182 0 -292.5 117t-110.5 307v645h299v-604q0 -102 57.5 -164.5 t153.5 -62.5q113 0 177.5 91t64.5 251z" glyph-name="uni01DA" horiz-adv-x="1314" unicode="ǚ"/><glyph d="M770 2200l117 -326h-211l-162 326h256zM575 1798l121 -117l-121 -118l-120 118zM1108 1681l-121 -118l-121 118l121 117zM1100 575v887h315v-887q0 -270 -174 -435t-458.5 -165t-458.5 165t-174 435v887h315v-887q0 -152 86 -239.5t231.5 -87.5t231.5 87.5t86 239.5z" glyph-name="uni01DB" horiz-adv-x="1564" unicode="Ǜ"/><glyph d="M645 1782l117 -326h-211l-162 326h256zM451 1380l120 -116l-120 -119l-121 119zM983 1264l-121 -119l-121 119l121 116zM877 555v489h301v-1044h-297v162q-125 -186 -353 -187q-182 0 -292.5 117t-110.5 307v645h299v-604q0 -102 57.5 -164.5t153.5 -62.5q113 0 177.5 91 t64.5 251z" glyph-name="uni01DC" horiz-adv-x="1314" unicode="ǜ"/><glyph d="M758 1593l-260 328h198l170 -174l170 174h197l-260 -328h-215zM887 569v271h561v-711q-227 -154 -545 -154q-367 0 -585 206t-218 550t218.5 550t584.5 206q305 0 512 -133v-293q-221 154 -483 153q-227 0 -363.5 -132t-136.5 -351t136.5 -351t363.5 -132q104 0 198 26 v295h-243z" glyph-name="Gcaron" horiz-adv-x="1595" unicode="Ǧ"/><glyph d="M573 1176l-260 327h199l170 -174l170 174h197l-261 -327h-215zM938 901v143h279v-950q0 -487 -578 -487q-254 0 -440 94v223q164 -104 383 -104q166 0 257 65.5t91 188.5v43q-129 -141 -348 -142q-223 0 -360.5 150.5t-137.5 396.5q-2 246 134 396.5t360 150.5 q233 0 360 -168zM657.5 221q118.5 0 191.5 83t73 218t-73 218t-191.5 83t-191.5 -83t-73 -218t73 -218t191.5 -83z" glyph-name="gcaron" horiz-adv-x="1353" unicode="ǧ"/><glyph d="M778 2425h256l-162 -328h-210zM766 1536q-100 0 -167 65.5t-67 162t67 162t167 65.5t167.5 -65.5t67.5 -162t-67.5 -162t-167.5 -65.5zM766 1874q-45 0 -77 -32t-32 -79t32 -77.5t77 -30.5q47 0 79 30.5t32 77.5t-32 79t-79 32zM1483 0h-330l-129 379h-514l-129 -379 h-330l504 1462h424zM764 1122l-168 -489h340l-168 489h-4z" glyph-name="Aringacute" horiz-adv-x="1533" unicode="Ǻ"/><glyph d="M641 2007h256l-162 -328h-211zM628.5 1118q-100.5 0 -167 65.5t-66.5 162t66.5 162t167 65.5t168 -65.5t67.5 -162t-67.5 -162t-168 -65.5zM629 1456q-45 0 -77 -31.5t-32 -79t31 -78t78 -30.5t78.5 30.5t31.5 78t-31.5 79t-78.5 31.5zM586 1069q268 0 409.5 -107.5 t141.5 -310.5v-651h-279v129q-106 -154 -362 -154q-195 0 -307.5 93.5t-112.5 255.5q0 164 114.5 253t325.5 89q168 0 324 -60v58q0 186 -299 186q-193 0 -367 -78v223q191 74 412 74zM584 172q115 0 185.5 61.5t70.5 163.5v13q-98 59 -234 59q-104 0 -163.5 -40 t-59.5 -109.5t53.5 -108.5t147.5 -39z" glyph-name="aringacute" horiz-adv-x="1261" unicode="ǻ"/><glyph d="M1042 1921h256l-161 -328h-211zM1925 1462v-252h-860l123 -352h676v-254h-590l123 -352h528v-252h-772l-127 371h-518l-127 -371h-330l504 1462h1370zM764 1122l-164 -481h334l-166 481h-4z" glyph-name="AEacute" horiz-adv-x="2060" unicode="Ǽ"/><glyph d="M1065 1503h256l-162 -327h-211zM2023 520v-92h-800q41 -229 346 -229q217 0 383 86v-217q-184 -92 -422 -93q-332 0 -494 185q-135 -184 -467 -185q-238 0 -365.5 91.5t-127.5 261.5q0 162 114.5 250t325.5 88q168 0 324 -60v58q0 186 -299 186q-193 0 -367 -78v223 q190 74 412 74q332 0 456 -168q150 168 428 168q256 0 404.5 -147.5t148.5 -401.5zM1470.5 856q-106.5 0 -172 -61.5t-81.5 -176.5h505q-16 115 -80.5 176.5t-171 61.5zM840 397v13q-98 59 -234 59q-104 0 -163.5 -40t-59.5 -109.5t53 -108.5t148 -39q115 0 185.5 61.5 t70.5 163.5z" glyph-name="aeacute" horiz-adv-x="2107" unicode="ǽ"/><glyph d="M852 1862h256l-162 -328h-211zM1438 1485l-125 -207q268 -201 268 -580q0 -324 -205 -525.5t-536 -201.5q-154 0 -285 47l-61 -104h-250l123 205q-268 207 -269 579q0 324 206 525.5t536 201.5q154 0 284 -47l64 107h250zM420 698q0 -197 102 -321l459 764 q-68 23 -141 22q-188 0 -304 -128t-116 -337zM840 236q190 0 306 126.5t116 335.5q0 197 -103 322l-459 -764q72 -20 140 -20z" glyph-name="Oslashacute" horiz-adv-x="1681" unicode="Ǿ"/><glyph d="M670 1503h256l-162 -327h-211zM1110 1130l-98 -161q219 -152 219 -447q0 -246 -158 -396.5t-416 -150.5q-117 0 -221 35l-57 -96h-176l98 164q-217 150 -217 444q0 246 157.5 396.5t415.5 150.5q117 0 222 -35l57 96h174zM393 522q0 -125 56 -200l294 489q-39 12 -86 12 q-123 0 -193.5 -81t-70.5 -220zM657 221q121 0 193 81t72 220q0 123 -56 201l-295 -490q39 -12 86 -12z" glyph-name="oslashacute" horiz-adv-x="1314" unicode="ǿ"/><glyph d="M522 -25q-207 0 -395 82v267q215 -94 387 -95q240 0 240 181q0 70 -43 113.5t-146 82.5l-129 49q-344 131 -344 422q0 188 141.5 299t384.5 111q201 0 379 -82v-266q-203 94 -368 94q-104 0 -161.5 -41t-57.5 -115q0 -61 42 -103t138 -81l141 -55q340 -131 340 -426 q0 -203 -146.5 -320t-402.5 -117zM608 -485h-211l56 374h256z" glyph-name="Scommaaccent" horiz-adv-x="1163" unicode="Ș"/><glyph d="M483 -25q-207 0 -366 62v233q158 -70 336 -69q209 0 209 102q0 66 -99 96l-180 54q-289 80 -289 311q0 145 119 225t340 80q172 0 342 -61v-234q-164 70 -313 70q-88 0 -136.5 -24.5t-48.5 -67.5q0 -57 97 -90l176 -52q295 -86 295 -317q0 -156 -123 -237t-359 -81z M553 -485h-211l55 374h256z" glyph-name="scommaaccent" horiz-adv-x="1058" unicode="ș"/><glyph d="M1341 1462v-268h-475v-1194h-315v1194h-475v268h1265zM735 -485h-211l56 374h256z" glyph-name="uni021A" horiz-adv-x="1417" unicode="Ț"/><glyph d="M887 1044v-237h-352v-428q0 -166 161 -166q82 0 178 47v-221q-145 -63 -268 -64q-180 0 -276.5 97.5t-96.5 279.5v455h-194v237h194v295h302v-295h352zM608 -485h-211l56 374h256z" glyph-name="uni021B" horiz-adv-x="970" unicode="ț"/><glyph d="M150 -393q-131 0 -246 59v223q88 -45 162 -45q166 0 165 191v1009h301v-1009q0 -207 -98 -317.5t-284 -110.5z" glyph-name="uni0237" horiz-adv-x="663" unicode="ȷ"/><glyph d="M915 942v102h302v-1044h-279v143q-127 -168 -360 -168q-223 0 -358.5 150.5t-135.5 396.5q-2 246 135 396.5t363 150.5q206 0 333 -127zM657.5 221q118.5 0 191.5 83t73 218v27q-8 125 -80 199.5t-185 74.5q-119 0 -191.5 -83t-72.5 -218t73 -218t191.5 -83z" glyph-name="uni0251" horiz-adv-x="1353" unicode="ɑ"/><glyph d="M575 1069q291 0 453 -143.5t162 -403.5q0 -254 -148.5 -400.5t-404.5 -146.5t-404.5 147.5t-148.5 401.5v92h799q-41 229 -344 230q-217 0 -383 -86v217q179 92 419 92zM636.5 188q106.5 0 172 61.5t82.5 176.5h-508q16 -115 81.5 -176.5t172 -61.5z" glyph-name="uni0259" horiz-adv-x="1273" unicode="ə"/><glyph d="M379 1593h-256l102 377h209z" glyph-name="uni02BB" horiz-adv-x="557" unicode="ʻ"/><glyph d="M334 1047h-211l90 415h256z" glyph-name="afii57929" horiz-adv-x="591" unicode="ʼ"/><glyph d="M123 1464v160q59 0 97 34t38 87t-38 87t-97 34v159q131 0 212 -76.5t81 -203.5t-81 -204t-212 -77z" glyph-name="uni02BE" horiz-adv-x="538" unicode="ʾ"/><glyph d="M416 1624v-160q-131 0 -212 77t-81 204t81 203.5t212 76.5v-159q-61 0 -98 -34t-37 -87t37 -87t98 -34z" glyph-name="uni02BF" horiz-adv-x="538" unicode="ʿ"/><glyph d="M598 1921l260 -328h-196l-170 174l-170 -174h-199l260 328h215z" glyph-name="circumflex" horiz-adv-x="980" unicode="ˆ"/><glyph d="M492 1747l170 174h196l-260 -328h-215l-260 328h199z" glyph-name="caron" horiz-adv-x="980" unicode="ˇ"/><glyph d="M352 1593h-229v402h229v-402z" glyph-name="uni02C8" horiz-adv-x="475" unicode="ˈ"/><glyph d="M842 1593h-719v183h719v-183z" glyph-name="uni02C9" horiz-adv-x="964" unicode="ˉ"/><glyph d="M334 1593h-211l117 328h256z" glyph-name="uni02CA" horiz-adv-x="618" unicode="ˊ"/><glyph d="M496 1593h-209l-164 328h256z" glyph-name="uni02CB" horiz-adv-x="618" unicode="ˋ"/><glyph d="M352 -532h-229v401h229v-401z" glyph-name="uni02CC" horiz-adv-x="475" unicode="ˌ"/><glyph d="M471 1569q-158 0 -253 96t-95 256h166q0 -92 48 -144.5t134 -52.5t134 52.5t48 144.5h166q0 -160 -95 -256t-253 -96z" glyph-name="breve" horiz-adv-x="942" unicode="˘"/><glyph d="M354 1681l-121 -118l-120 118l120 117z" glyph-name="dotaccent" horiz-adv-x="466" unicode="˙"/><glyph d="M356.5 1536q-100.5 0 -167 65.5t-66.5 162t66.5 162t167 65.5t168 -65.5t67.5 -162t-67.5 -162t-168 -65.5zM356 1655q47 0 79 30.5t32 77.5t-32 79t-79 32q-45 0 -76.5 -32t-31.5 -79t31.5 -77.5t76.5 -30.5z" glyph-name="ring" horiz-adv-x="714" unicode="˚"/><glyph d="M365 -410q-113 0 -177.5 49.5t-64.5 141.5q0 113 106 219h242q-106 -94 -106 -178q0 -80 88 -80q41 0 94 20v-143q-92 -29 -182 -29z" glyph-name="ogonek" horiz-adv-x="669" unicode="˛"/><glyph d="M711 1583q-125 0 -207 94l-29 29q-37 43 -88 43q-53 0 -82 -35t-29 -98h-153q0 131 71.5 211t192.5 80q125 0 207 -95l27 -28q41 -43 90 -43q53 0 81.5 34.5t28.5 98.5h154q0 -131 -71.5 -211t-192.5 -80z" glyph-name="tilde" horiz-adv-x="1097" unicode="˜"/><glyph d="M293 1593h-170l76 328h217zM729 1593h-170l76 328h217z" glyph-name="hungarumlaut" horiz-adv-x="974" unicode="˝"/><glyph d="M-123 1593h-209l-164 328h256z" glyph-name="gravecomb" unicode="̀"/><glyph d="M-285 1593h-211l117 328h256z" glyph-name="acutecomb" unicode="́"/><glyph d="M-383 1921l260 -328h-196l-170 174l-170 -174h-199l260 328h215z" glyph-name="uni0302" unicode="̂"/><glyph d="M-387 1583q-125 0 -207 94l-29 29q-37 43 -88 43q-53 0 -81.5 -35t-28.5 -98h-154q0 131 72 211t192 80q125 0 207 -95l27 -28q41 -43 90 -43q53 0 82 34.5t29 98.5h153q0 -131 -71.5 -211t-192.5 -80z" glyph-name="tildecomb" unicode="̃"/><glyph d="M-123 1593h-719v183h719v-183z" glyph-name="uni0304" unicode="̄"/><glyph d="M-471 1569q-158 0 -253 96t-95 256h166q0 -92 48 -144.5t134 -52.5t134 52.5t48 144.5h166q0 -160 -95 -256t-253 -96z" glyph-name="uni0306" unicode="̆"/><glyph d="M-113 1681l-120 -118l-121 118l121 117z" glyph-name="uni0307" unicode="̇"/><glyph d="M-524 1681l-121 -118l-121 118l121 117zM-113 1681l-120 -118l-121 118l121 117z" glyph-name="uni0308" unicode="̈"/><glyph d="M-291 1573h-229v133q164 0 164 92q0 82 -119 82q-61 0 -119 -18v116q94 29 197 29q131 0 202.5 -47t71.5 -135q0 -137 -168 -172v-80z" glyph-name="hookabovecomb" unicode="̉"/><glyph d="M-358.5 1536q-100.5 0 -167 65.5t-66.5 162t66.5 162t167 65.5t168 -65.5t67.5 -162t-67.5 -162t-168 -65.5zM-358.5 1655q47.5 0 79 30.5t31.5 77.5t-31.5 79t-78.5 32q-45 0 -77 -32t-32 -79t30.5 -77.5t78 -30.5z" glyph-name="uni030A" unicode="̊"/><glyph d="M-682 1593h-170l76 328h217zM-246 1593h-170l76 328h217z" glyph-name="uni030B" unicode="̋"/><glyph d="M-489 1747l170 174h196l-260 -328h-215l-260 328h199z" glyph-name="uni030C" unicode="̌"/><glyph d="M-553 1444v211q84 0 131 45t47 123v75h252v-90q0 -176 -110.5 -270t-319.5 -94z" glyph-name="uni031B" unicode="̛"/><glyph d="M-113 -219l-120 -117l-121 117l121 119z" glyph-name="dotbelowcomb" unicode="̣"/><glyph d="M-524 -219l-121 -117l-121 117l121 119zM-113 -219l-120 -117l-121 117l121 119z" glyph-name="uni0324" unicode="̤"/><glyph d="M-223 -485h-211l55 374h256z" glyph-name="uni0326" unicode="̦"/><glyph d="M-397 -434q-102 0 -197 28v117q57 -18 119 -18q119 0 119 82q0 92 -181 92l45 133h228l-27 -80q168 -35 168 -172q0 -88 -71.5 -135t-202.5 -47z" glyph-name="uni0327" unicode="̧"/><glyph d="M-305 -410q-113 0 -177.5 49.5t-64.5 141.5q0 113 107 219h241q-106 -94 -106 -178q0 -80 88 -80q41 0 94 20v-143q-92 -29 -182 -29z" glyph-name="uni0328" unicode="̨"/><glyph d="M-471 -461q-158 0 -253 95.5t-95 254.5h153q0 -90 52.5 -142t142.5 -52t143.5 52t53.5 142h151q0 -160 -95 -255t-253 -95z" glyph-name="uni032E" unicode="̮"/><glyph d="M-123 -313h-719v182h719v-182z" glyph-name="uni0331" unicode="̱"/><glyph d="M1542 0h-1436v145l609 1317h219l608 -1317v-145zM825 1069l-372 -805h745z" glyph-name="Delta" horiz-adv-x="1648" unicode="Δ"/><glyph d="M1411 252h285v-252h-744v268q174 29 274.5 158t100.5 324q0 211 -118.5 337.5t-319.5 126.5t-319.5 -126.5t-118.5 -337.5q0 -195 100 -324t274 -158v-268h-743v252h283q-248 203 -248 539q0 309 215 502.5t557 193.5q344 0 557 -192.5t213 -503.5q0 -336 -248 -539z" glyph-name="Omega" horiz-adv-x="1777" unicode="Ω"/><glyph d="M889 555v489h301v-1044h-297v162q-125 -186 -352 -187q-53 0 -119 15v-359h-285v1413h299v-604q0 -102 57.5 -164.5t153.5 -62.5q113 0 177.5 91t64.5 251z" glyph-name="mu" horiz-adv-x="1327" unicode="μ"/><glyph d="M1520 1044v-237h-326v-440q0 -154 139 -154q78 0 174 47v-221q-133 -63 -258 -64q-168 0 -262 97.5t-94 267.5v467h-328v-807h-301v807h-194v237h1450z" glyph-name="pi" horiz-adv-x="1591" unicode="π"/><glyph d="M506 0h-301v565q0 119 -103 178v33q37 217 198 341t407 124q270 0 436 -145.5t166 -384.5v-711h-299v711q0 135 -81 211.5t-222 76.5q-229 0 -304 -200v-4q102 -80 103 -230v-565z" glyph-name="uni0E01" horiz-adv-x="1433" unicode="ก"/><glyph d="M662 -25q-248 0 -398.5 129t-150.5 342q0 217 159 347l107 86q43 37 43 77v25h-291v236h567v-250q0 -125 -102 -215l-84 -72q-98 -90 -98 -213q0 -113 67.5 -179.5t180 -66.5t180 66.5t67.5 179.5v750h301v-771q0 -211 -151 -341t-397 -130z" glyph-name="uni0E02" horiz-adv-x="1333" unicode="ข"/><glyph d="M668 -25q-246 0 -397.5 130.5t-151.5 340.5q0 227 180 359l123 92q43 33 43 76v22l-189 -110l-182 121v211h27l164 -109l180 109h242v-250q0 -125 -103 -215l-84 -72q-100 -88 -100 -213q0 -113 67.5 -179.5t180 -66.5t180 66.5t67.5 179.5v750h302v-771 q0 -213 -150.5 -342t-398.5 -129z" glyph-name="uni0E03" horiz-adv-x="1341" unicode="ฃ"/><glyph d="M719 1241q270 0 431 -144.5t161 -389.5v-707h-301v707q0 133 -79 210.5t-212 77.5q-135 0 -214 -77.5t-79 -210.5v-164q70 86 197 86h161v-226h-161q-94 0 -145.5 -52t-51.5 -144v-207h-301v707q0 246 161 390t433 144z" glyph-name="uni0E04" horiz-adv-x="1433" unicode="ค"/><glyph d="M862 1241h33q209 -10 319.5 -134t110.5 -347v-760h-301v786q0 160 -123 195l-106 -127h-140l-106 127q-123 -33 -123 -195v-243q70 86 197 86h161v-226h-161q-94 0 -145.5 -52t-51.5 -144v-207h-301v760q0 223 110.5 347t319.5 134h33l135 -160h4z" glyph-name="uni0E05" horiz-adv-x="1449" unicode="ฅ"/><glyph d="M1001 475v742h302v-768q0 -217 -126 -345.5t-341 -128.5q-266 0 -381 193v-168h-299v453q0 242 182 374l96 70q43 33 43 76v22l-188 -110l-183 121v211h27l164 -109l180 109h248v-261q0 -121 -96 -198l-58 -47q-115 -92 -114 -232v-8q0 -119 72.5 -186.5t201.5 -67.5 q127 0 198.5 68.5t71.5 189.5z" glyph-name="uni0E06" horiz-adv-x="1427" unicode="ฆ"/><glyph d="M686 0h-223l-436 868h340l284 -626h35q131 0 209 102t78 278.5t-79 276.5t-218 100q-82 0 -168 -41v236q113 47 231 47q244 0 389.5 -167t145.5 -447q0 -291 -158 -459t-430 -168z" glyph-name="uni0E07" horiz-adv-x="1361" unicode="ง"/><glyph d="M565 1241q322 0 487 -157.5t165 -465.5q0 -301 -154 -459.5t-445 -158.5h-165l-179 446h-161v213h362l166 -415q276 20 277 374q0 201 -91.5 291t-296.5 90q-252 0 -430 -116v247q209 111 465 111z" glyph-name="uni0E08" horiz-adv-x="1304" unicode="จ"/><glyph d="M639 1241q322 0 474.5 -129t152.5 -401v-711h-297v184q-119 -209 -398 -209q-207 0 -324.5 124t-117.5 343v226h299v-199q0 -117 65.5 -184.5t180.5 -67.5q135 0 213 94.5t78 253.5v146q0 156 -84 222t-279 66q-272 0 -479 -118v254q233 106 516 106z" glyph-name="uni0E09" horiz-adv-x="1390" unicode="ฉ"/><glyph d="M1260 1241l-269 -385q125 -57 194.5 -164.5t69.5 -247.5q0 -213 -156.5 -341t-414.5 -128q-260 0 -415.5 128t-155.5 341q0 219 163 353l103 82q43 37 43 77v25h-281v236h553v-250q0 -121 -102 -215l-84 -72q-100 -88 -100 -215q0 -115 74.5 -181.5t201.5 -66.5 q125 0 201 66.5t76 181.5q0 102 -62.5 171t-171.5 87v174l205 344h328z" glyph-name="uni0E0A" horiz-adv-x="1363" unicode="ช"/><glyph d="M1268 1241l-271 -385q125 -57 195 -164.5t70 -247.5q0 -213 -156 -341t-416 -128q-258 0 -414.5 128t-156.5 341q0 231 182 363l121 90q43 33 43 76v22l-189 -110l-182 121v211h27l164 -109l180 109h235v-250q0 -121 -102 -215l-84 -72q-100 -88 -100 -215 q0 -115 75.5 -181.5t200.5 -66.5q127 0 202 66.5t75 181.5q0 102 -62.5 171t-171.5 87v174l205 344h330z" glyph-name="uni0E0B" horiz-adv-x="1372" unicode="ซ"/><glyph d="M1802 475v742h299v-766q0 -215 -121.5 -345.5t-326.5 -130.5q-254 0 -369 193v-168h-297v711q0 133 -78 210.5t-213 77.5q-106 0 -182 -52t-111 -148v-4q102 -78 103 -230v-256q0 -68 67 -67h101v-242h-244q-102 0 -163.5 62.5t-61.5 166.5v336q0 119 -103 178v31 q37 217 196 342t398 125q264 0 427 -146.5t163 -383.5v-213q0 -131 69.5 -206t190.5 -75q119 0 187.5 69.5t68.5 188.5z" glyph-name="uni0E0C" horiz-adv-x="2226" unicode="ฌ"/><glyph d="M1802 592v625h299v-1135q0 -238 -153.5 -369t-431.5 -131q-266 0 -469 125v270q178 -150 415 -149q162 0 252 71.5t90 200.5v162q-115 -193 -370 -192q-203 0 -325 130t-122 345v166q0 133 -78 210.5t-213 77.5q-106 0 -182 -52t-111 -148v-4q102 -78 103 -230v-256 q0 -68 67 -67h101v-242h-244q-102 0 -163.5 62.5t-61.5 166.5v336q0 117 -103 178v31q37 217 196 342t398 125q264 0 427 -146.5t163 -383.5v-142q0 -119 68.5 -188.5t187.5 -69.5q121 0 190.5 75t69.5 206z" glyph-name="uni0E0D" horiz-adv-x="2226" unicode="ญ"/><glyph d="M702 1241q264 0 428 -146.5t164 -383.5v-1223h-301q-188 98 -382.5 98t-385.5 -98v225q184 98 385 99q199 0 383 -99v998q0 133 -77.5 210.5t-213.5 77.5q-221 0 -290 -198v-4q121 -80 120 -242v-326q0 -104 -61 -166.5t-164 -62.5h-246v242h103q70 0 69 67v246 q0 133 -122 188v33q37 217 194 341t397 124z" glyph-name="uni0E0E" horiz-adv-x="1417" unicode="ฎ"/><glyph d="M702 1241q264 0 428 -146.5t164 -383.5v-1223h-301l-213 104q-123 -129 -317 -129q-139 0 -238 70v234q94 -78 221 -78q188 0 281 157l266 -131v996q0 133 -77.5 210.5t-213.5 77.5q-221 0 -290 -198v-4q121 -80 120 -242v-326q0 -104 -61 -166.5t-164 -62.5h-246v242 h103q70 0 69 67v246q0 133 -122 188v33q37 217 194 341t397 124z" glyph-name="uni0E0F" horiz-adv-x="1417" unicode="ฏ"/><glyph d="M967 1290h307l-182 -250q125 -156 125 -422q0 -301 -154 -459.5t-445 -158.5h-165l-179 446h-161v213h360l162 -411h29q254 27 254 370q0 201 -91.5 291t-296.5 90q-252 0 -430 -116v247q209 111 465 111q197 0 330 -57zM621 -154l266 -131v193h301v-420h-301l-219 106 q-119 -131 -312 -131q-139 0 -237 70v236q92 -80 221 -80q189 -1 281 157z" glyph-name="uni0E10" horiz-adv-x="1294" unicode="ฐ"/><glyph d="M987 1241q158 0 246 -99.5t88 -273.5v-868h-301v883q0 113 -96 112q-49 0 -99 -47l-256 -246q-100 -98 -100 -231v-471h-301v440q0 190 168 353l106 100q35 35 35 80v22l-188 -110l-183 121v211h27l164 -109l180 109h207v-115l29 26q118 113 274 113z" glyph-name="uni0E11" horiz-adv-x="1443" unicode="ฑ"/><glyph d="M1853 475v742h301v-766q0 -217 -122.5 -346.5t-325.5 -129.5q-254 0 -369 195v-170h-299v786q0 166 -125 193l-104 -125h-139l-107 125q-84 -33 -130 -128t-46 -235q0 -190 81 -294.5t228 -104.5q82 0 178 39v-236q-119 -45 -241 -45q-254 0 -399.5 172t-145.5 469 q0 276 129 443.5t352 181.5h35l133 -160h4l133 160h33q209 -10 320.5 -134t111.5 -347v-262q0 -131 70 -206t190 -75q119 0 186.5 69.5t67.5 188.5z" glyph-name="uni0E12" horiz-adv-x="2277" unicode="ฒ"/><glyph d="M1802 498v719h299v-1217h-297v168q-115 -193 -370 -193q-203 0 -325 130.5t-122 345.5v260q0 133 -78 210.5t-213 77.5q-106 0 -182 -52t-111 -148v-4q102 -78 103 -230v-256q0 -68 67 -67h101v-242h-244q-102 0 -163.5 62.5t-61.5 166.5v336q0 119 -103 178v31 q37 217 196 342t398 125q264 0 427 -146.5t163 -383.5v-236q0 -119 68.5 -188.5t187.5 -69.5q121 0 190.5 75t69.5 206z" glyph-name="uni0E13" horiz-adv-x="2238" unicode="ณ"/><glyph d="M635 -25q-248 0 -397.5 168t-149.5 447q0 299 175 475t476 176q276 0 441.5 -147.5t165.5 -395.5v-698h-302v698q0 139 -82.5 220t-230.5 81q-164 0 -254 -102t-90 -291q0 -182 83 -285.5t228 -103.5q80 0 176 39v-236q-118 -45 -239 -45z" glyph-name="uni0E14" horiz-adv-x="1470" unicode="ด"/><glyph d="M877 1241h34q211 -10 323 -134t112 -347v-760h-302v786q0 166 -126 193l-105 -125h-141l-105 125q-84 -35 -132 -131t-48 -234q0 -186 83 -291.5t228 -105.5q80 0 176 39v-236q-119 -45 -239 -45q-252 0 -399.5 173.5t-147.5 465.5q0 276 130 444.5t355 182.5h33 l133 -160h4z" glyph-name="uni0E15" horiz-adv-x="1470" unicode="ต"/><glyph d="M707 1241q270 0 436 -145.5t166 -384.5v-711h-299v711q0 135 -81 211.5t-222 76.5q-229 0 -304 -200v-4q102 -78 103 -230v-256q0 -68 67 -67h109v-242h-252q-102 0 -163.5 62.5t-61.5 166.5v336q0 119 -103 178v33q37 217 198 341t407 124z" glyph-name="uni0E16" horiz-adv-x="1433" unicode="ถ"/><glyph d="M825 1241q217 0 343 -131t126 -356v-754h-301v727q0 129 -71.5 200.5t-202.5 71.5q-133 0 -208 -76.5t-75 -215.5v-707h-299v1217h297v-181q119 205 391 205z" glyph-name="uni0E17" horiz-adv-x="1417" unicode="ท"/><glyph d="M662 -25q-256 0 -394.5 105.5t-138.5 302.5v160h299v-152q0 -88 60.5 -135t173.5 -47q115 0 175 46t60 134q0 131 -141 148l-328 38q-147 18 -231 101.5t-84 214.5q0 168 142 259t409 91q240 0 473 -78v-239q-240 84 -459 84q-264 0 -264 -117q0 -84 125 -96l290 -37 q178 -20 272.5 -117.5t94.5 -257.5q0 -197 -138 -302.5t-396 -105.5z" glyph-name="uni0E18" horiz-adv-x="1284" unicode="ธ"/><glyph d="M981 565v652h301v-1217h-299v176q-119 -201 -391 -201q-215 0 -341 131.5t-126 356.5v754h299v-728q0 -127 70.5 -199.5t193.5 -72.5q137 0 215 93t78 255z" glyph-name="uni0E19" horiz-adv-x="1417" unicode="น"/><glyph d="M706.5 -25q-266.5 0 -424 143.5t-157.5 387.5v711h299v-711q0 -131 77 -210t206 -79t204.5 78t75.5 211v711h301v-711q0 -244 -157.5 -387.5t-424 -143.5z" glyph-name="uni0E1A" horiz-adv-x="1413" unicode="บ"/><glyph d="M706.5 -25q-266.5 0 -424 143.5t-157.5 387.5v711h299v-711q0 -131 77 -210t206 -79t204.5 78t75.5 211v1030h301v-1030q0 -244 -157.5 -387.5t-424 -143.5z" glyph-name="uni0E1B" horiz-adv-x="1413" unicode="ป"/><glyph d="M494 0h-357v979q0 109 63.5 173.5t170.5 64.5h231v-246h-104q-59 0 -60 -58v-430q0 -123 -14 -223h4q20 53 53 100l166 207h170l166 -207q31 -43 53 -100h4q-14 100 -14 223v734h301v-1217h-356l-176 227q-35 45 -62 101h-4q-20 -51 -59 -101z" glyph-name="uni0E1C" horiz-adv-x="1464" unicode="ผ"/><glyph d="M494 0h-357v979q0 109 63.5 173.5t170.5 64.5h231v-246h-104q-59 0 -60 -58v-430q0 -123 -14 -223h4q20 53 53 100l166 207h170l166 -207q31 -43 53 -100h4q-14 100 -14 223v1053h301v-1536h-356l-176 227q-35 45 -62 101h-4q-20 -51 -59 -101z" glyph-name="uni0E1D" horiz-adv-x="1464" unicode="ฝ"/><glyph d="M684 0h-356l-289 1217h309l137 -664q29 -170 43 -320h4q27 172 60 320l178 664h295l176 -664q33 -133 62 -320h4q14 156 41 320l139 664h309l-291 -1217h-354l-170 625q-39 170 -63 354q-31 -213 -64 -354z" glyph-name="uni0E1E" horiz-adv-x="1835" unicode="พ"/><glyph d="M684 0h-356l-289 1217h309l137 -664q29 -170 43 -320h4q27 172 60 320l178 664h295l176 -664q33 -133 62 -320h4q16 182 39 324l172 979h309l-322 -1536h-354l-170 625q-39 170 -63 354q-31 -213 -64 -354z" glyph-name="uni0E1F" horiz-adv-x="1853" unicode="ฟ"/><glyph d="M307 0h-246v242h103q70 0 69 67v246q0 133 -122 188v33q37 217 195.5 341t395.5 124q264 0 428 -146.5t164 -383.5v-711h-301v711q0 133 -78.5 210.5t-212.5 77.5q-221 0 -290 -198v-4q121 -80 120 -242v-326q0 -104 -61.5 -166.5t-163.5 -62.5z" glyph-name="uni0E20" horiz-adv-x="1417" unicode="ภ"/><glyph d="M993 489v728h301v-754q0 -225 -126 -356.5t-343 -131.5q-272 0 -391 205v-180h-297v1217h299v-707q0 -139 75 -216t208 -77q131 0 202.5 71.5t71.5 200.5z" glyph-name="uni0E21" horiz-adv-x="1417" unicode="ม"/><glyph d="M963 436v781h301v-781q0 -221 -151.5 -341t-430.5 -120q-274 0 -428 114t-154 314q0 203 148 283q-135 80 -135 256q0 141 91 220t253 79q96 0 200 -33v-239q-59 27 -112 26q-131 0 -131 -114q0 -57 36.5 -88t102.5 -31h127v-217h-129q-72 0 -111 -37t-39 -102 q0 -88 74 -136.5t207 -48.5q281 0 281 215z" glyph-name="uni0E22" horiz-adv-x="1388" unicode="ย"/><glyph d="M530 -25q-227 0 -419 86v242q211 -86 413 -86q238 0 238 133q0 88 -125 125l-234 64q-152 41 -233.5 130t-81.5 214q0 166 135 262t369 96q207 0 403 -72v-239q-221 70 -389 69q-217 0 -217 -116q0 -78 115 -109l233 -65q160 -45 243 -137.5t83 -223.5 q0 -174 -141.5 -273.5t-391.5 -99.5z" glyph-name="uni0E23" horiz-adv-x="1150" unicode="ร"/><glyph d="M707 1241q270 0 436 -145.5t166 -384.5v-1223h-299v1223q0 135 -81 211.5t-222 76.5q-229 0 -304 -200v-4q102 -78 103 -230v-256q0 -68 67 -67h109v-242h-252q-102 0 -163.5 62.5t-61.5 166.5v336q0 119 -103 178v33q37 217 198 341t407 124z" glyph-name="uni0E24" horiz-adv-x="1433" unicode="ฤ"/><glyph d="M682 1241q580 0 580 -440v-801h-301v461q-147 86 -320 86q-252 0 -252 -178q0 -172 225 -172q80 0 142 20v-217q-96 -25 -201 -25q-223 0 -345 103.5t-122 290.5q0 193 132 297t378 104q203 0 367 -86v117q0 199 -338 198q-268 0 -453 -125v252q211 115 508 115z" glyph-name="uni0E25" horiz-adv-x="1386" unicode="ล"/><glyph d="M1294 -512h-301v1223q0 133 -77.5 210.5t-213.5 77.5q-221 0 -290 -198v-4q121 -80 120 -242v-326q0 -104 -61 -166.5t-164 -62.5h-246v242h103q70 0 69 67v246q0 133 -122 188v33q37 217 194.5 341t396.5 124q264 0 428 -146.5t164 -383.5v-1223z" glyph-name="uni0E26" horiz-adv-x="1417" unicode="ฦ"/><glyph d="M498 -25q-231 0 -412 109v244q178 -111 367 -111q186 0 283.5 100.5t97.5 291t-98.5 290.5t-284.5 100q-184 0 -353 -102v242q172 102 400 102q299 0 469 -168t170 -465q0 -299 -169 -466t-470 -167z" glyph-name="uni0E27" horiz-adv-x="1222" unicode="ว"/><glyph d="M1061 1290h328l-183 -254q104 -135 105 -329v-707h-301v707q0 133 -79 210.5t-212 77.5q-135 0 -214 -77.5t-79 -210.5v-177q70 98 207 99h151v-226h-161q-94 0 -145.5 -52t-51.5 -144v-207h-301v707q0 246 160.5 390t433.5 144q154 0 280 -51z" glyph-name="uni0E28" horiz-adv-x="1439" unicode="ศ"/><glyph d="M1288 872h133v-243h-133v-123q0 -244 -157.5 -387.5t-424 -143.5t-424 143.5t-157.5 387.5v711h299v-711q0 -131 77 -210t206 -79t204.5 78t75.5 211v123h-264v243h264v345h301v-345z" glyph-name="uni0E29" horiz-adv-x="1452" unicode="ษ"/><glyph d="M1012 1290h329l-165 -229q86 -104 86 -260v-801h-301v461q-147 86 -320 86q-252 0 -252 -178q0 -172 225 -172q80 0 142 20v-217q-96 -25 -201 -25q-223 0 -345 103.5t-122 290.5q0 193 132 297t378 104q203 0 367 -86v117q0 199 -338 198q-268 0 -453 -125v252 q211 115 496 115q158 0 286 -39z" glyph-name="uni0E2A" horiz-adv-x="1392" unicode="ส"/><glyph d="M887 829q182 -16 279.5 -120.5t97.5 -284.5v-424h-301v424q0 86 -48.5 133t-136.5 47h-108l-232 -227v-377h-301v1217h301v-474h4l471 474h379z" glyph-name="uni0E2B" horiz-adv-x="1384" unicode="ห"/><glyph d="M1774 1536l-263 -344q96 -23 151.5 -91.5t55.5 -170.5q0 -47 -14 -105l-199 -825h-354l-170 625q-39 170 -63 354q-31 -213 -64 -354l-170 -625h-356l-289 1217h309l137 -664q29 -170 43 -320h4q27 172 60 320l178 664h295l176 -664q33 -133 62 -320h4q14 150 41 320 l69 291q10 55 10 86q0 115 -124 114h-66v173l231 319h306z" glyph-name="uni0E2C" horiz-adv-x="1812" unicode="ฬ"/><glyph d="M582 1241q319 0 499.5 -170t180.5 -471q0 -297 -175.5 -461t-492.5 -164q-283 0 -481 129v580h487v-227h-188v-189q92 -41 186 -41q172 0 267.5 98.5t95.5 274.5q0 186 -109 287.5t-307 101.5q-221 0 -408 -123v264q195 111 445 111z" glyph-name="uni0E2D" horiz-adv-x="1347" unicode="อ"/><glyph d="M1008 1290h307l-193 -264q139 -164 140 -426q0 -297 -175.5 -461t-492.5 -164q-283 0 -481 129v580h487v-227h-188v-189q92 -41 186 -41q172 0 267.5 98.5t95.5 274.5q0 186 -109 287.5t-307 101.5q-221 0 -408 -123v264q195 111 445 111q195 0 348 -67z" glyph-name="uni0E2E" horiz-adv-x="1357" unicode="ฮ"/><glyph d="M924 741v476h301v-1217h-301v526q-145 -80 -349 -80q-240 0 -369.5 104.5t-129.5 297.5q0 186 121.5 289.5t339.5 103.5q104 0 206 -29v-202q-63 20 -139 20q-229 0 -229 -182q0 -188 256 -189q166 0 293 82z" glyph-name="uni0E2F" horiz-adv-x="1361" unicode="ฯ"/><glyph d="M713 713h-404q-102 0 -162.5 58t-60.5 159v131h254v-76q0 -61 59 -61h314v-211zM713 160h-404q-102 0 -162.5 58t-60.5 159v131h254v-76q0 -61 59 -61h314v-211z" glyph-name="uni0E30" horiz-adv-x="800" unicode="ะ"/><glyph d="M-123 1350h-582q-90 0 -141 50t-51 140v162h268v-100q0 -55 56 -56h450v-196z" glyph-name="uni0E31" unicode="ั"/><glyph d="M1022 0h-301v727q0 272 -293 272q-197 0 -375 -116v247q190 111 420 111q270 0 409.5 -131t139.5 -383v-727z" glyph-name="uni0E32" horiz-adv-x="1144" unicode="า"/><glyph d="M-338 1337q-125 0 -200.5 72t-75.5 188q0 119 75.5 191t200.5 72q123 0 199 -72t76 -191q0 -117 -76 -188.5t-199 -71.5zM-338 1493q45 0 72.5 28.5t27.5 76t-27.5 77t-72.5 29.5t-73.5 -29.5t-28.5 -77t27.5 -76t74.5 -28.5zM1022 0h-301v727q0 272 -293 272 q-197 0 -375 -116v247q190 111 420 111q270 0 409.5 -131t139.5 -383v-727z" glyph-name="uni0E33" horiz-adv-x="1144" unicode="ำ"/><glyph d="M-123 1350h-977v196h977v-196z" glyph-name="uni0E34" unicode="ิ"/><glyph d="M-123 1350h-977v196h692v217h285v-413z" glyph-name="uni0E35" unicode="ี"/><glyph d="M-350.5 1796q98.5 0 163 -63.5t64.5 -159.5t-64.5 -159.5t-162.5 -63.5h-787v196h562q-2 8 -3 27q0 96 64.5 159.5t163 63.5zM-350 1493q35 0 57.5 23.5t22.5 56.5t-23.5 56.5t-56.5 23.5t-56.5 -23.5t-23.5 -56.5t22.5 -56.5t57.5 -23.5z" glyph-name="uni0E36" unicode="ึ"/><glyph d="M-365 1546v217h242v-413h-977v196h371v217h244v-217h120z" glyph-name="uni0E37" unicode="ื"/><glyph d="M-123 -569h-270v264h-139v196h409v-460z" glyph-name="uni0E38" unicode="ุ"/><glyph d="M-434.5 -594q-145.5 0 -229.5 61.5t-84 167.5v76h-114v180h350v-223q0 -74 78 -74t78 74v223h233v-256q0 -106 -83 -167.5t-228.5 -61.5z" glyph-name="uni0E39" unicode="ู"/><glyph d="M-303 -399q-59 10 -94 53t-27 102q10 59 54 92t105.5 25t96.5 -51t25 -103q-8 -59 -53.5 -92.5t-106.5 -25.5z" glyph-name="uni0E3A" unicode="ฺ"/><glyph d="M1202 371q0 -174 -118.5 -272.5t-335.5 -102.5v-119h-230v119h-356v1407h356v117h230v-119q203 -10 313 -107.5t110 -265.5q0 -229 -202 -321q233 -86 233 -336zM670 1167h-203v-366h203q94 0 149 49t55 133t-55 134t-149 50zM467 231h225q94 0 149.5 49.5t55.5 133.5 t-55.5 133t-149.5 49h-225v-365z" glyph-name="uni0E3F" horiz-adv-x="1325" unicode="฿"/><glyph d="M600 0h-240q-102 0 -162.5 62.5t-60.5 166.5v988h299v-908q0 -68 70 -67h94v-242z" glyph-name="uni0E40" horiz-adv-x="679" unicode="เ"/><glyph d="M600 0h-240q-102 0 -162.5 62.5t-60.5 166.5v988h299v-908q0 -68 70 -67h94v-242zM1280 0h-240q-102 0 -162.5 62.5t-60.5 166.5v988h299v-908q0 -68 70 -67h94v-242z" glyph-name="uni0E41" horiz-adv-x="1359" unicode="แ"/><glyph d="M672 0h-248q-102 0 -163.5 62.5t-61.5 166.5v893q0 156 -55.5 266.5t-172.5 194.5v285h768v-221h-479v-9q125 -102 182.5 -223t57.5 -293v-813q0 -68 67 -67h105v-242z" glyph-name="uni0E42" horiz-adv-x="753" unicode="โ"/><glyph d="M678 0h-248q-102 0 -163.5 62.5t-61.5 166.5v772q0 225 168 357l88 72q55 45 55 104t-56.5 94t-152.5 35q-184 0 -336 -111v236q162 104 377 104q209 0 327 -90t118 -250q0 -156 -117 -247l-66 -54q-104 -86 -104 -229v-713q0 -68 67 -67h105v-242z" glyph-name="uni0E43" horiz-adv-x="768" unicode="ใ"/><glyph d="M686 0h-250q-102 0 -162.5 62.5t-60.5 166.5v865q0 186 60.5 315t193.5 229v9h-496v221h783v-285q-240 -160 -240 -489v-785q0 -68 68 -67h104v-242z" glyph-name="uni0E44" horiz-adv-x="776" unicode="ไ"/><glyph d="M1022 -512h-301v1239q0 272 -293 272q-197 0 -375 -116v247q190 111 420 111q270 0 409.5 -131t139.5 -383v-1239z" glyph-name="uni0E45" horiz-adv-x="1144" unicode="ๅ"/><glyph d="M823 1241h35q209 -10 321.5 -129t112.5 -317v-1307h-301v1307q0 158 -127 184l-104 -125h-142l-104 125q-63 -16 -101 -69.5t-38 -129.5q0 -98 57 -152.5t160 -54.5q59 0 113 19v-238q-74 -25 -166 -24q-211 0 -337 121.5t-126 328.5q0 201 120.5 327t323.5 134h33 l133 -160h4z" glyph-name="uni0E46" horiz-adv-x="1417" unicode="ๆ"/><glyph d="M-567 1333h-84q-129 0 -205 72t-76 192q0 125 80 199t219 74h510v-172h-477q-119 0 -119 -101q0 -90 92 -90l103 97h141q39 -96 139 -97q61 0 109 27v-168q-53 -33 -127 -33q-127 0 -193 103h-6z" glyph-name="uni0E47" unicode="็"/><glyph d="M-123 1350h-285v374h285v-374z" glyph-name="uni0E48" unicode="่"/><glyph d="M-123 1350h-698v131q119 43 119 108q0 53 -76 53q-39 0 -80 -16v158q68 31 153 31q106 0 169 -44.5t63 -117.5q0 -63 -45 -109v-2h395v-192z" glyph-name="uni0E49" unicode="้"/><glyph d="M-317 1614v201h194v-201q0 -123 -70.5 -193.5t-195.5 -70.5h-205v186q0 61 -49 84l-66 -74h-102l-63 74q-63 -35 -64 -117q0 -84 66 -149v-4h-213q-51 76 -52 172q0 121 76 201.5t201 91.5h4l94 -109h4l94 109h5q119 -8 188.5 -80t69.5 -187v-30h10q74 0 74 96z" glyph-name="uni0E4A" unicode="๊"/><glyph d="M-260 1350h-270v120h-138v197h138v125h270v-125h137v-197h-137v-120z" glyph-name="uni0E4B" unicode="๋"/><glyph d="M-494 1350h-268v159q0 90 51.5 141.5t141.5 51.5h446v-197h-315q-55 0 -56 -55v-100z" glyph-name="uni0E4C" unicode="์"/><glyph d="M-399 1337q-123 0 -199 72t-76 188q0 119 76 191t199 72q125 0 200.5 -72t75.5 -191q0 -117 -75.5 -188.5t-200.5 -71.5zM-399 1493q47 0 74.5 28.5t27.5 76t-28.5 77t-73.5 29.5t-73 -29.5t-28 -77t28 -76t73 -28.5z" glyph-name="uni0E4D" unicode="ํ"/><glyph d="M-317 1337q-109 0 -170.5 51.5t-61.5 139.5q0 145 154 176v4q-29 37 -29 86q0 68 47 105.5t131 37.5q61 0 121 -24l2 -111q-33 16 -74 17q-70 0 -69 -56q0 -43 51 -59l27 -12l2 -111q-45 20 -82 21q-92 0 -92 -74t92 -74q39 0 86 21v-109q-61 -29 -135 -29z" glyph-name="uni0E4E" unicode="๎"/><glyph d="M741 -25q-297 0 -478 174.5t-181 459t181 458.5t478 174t477.5 -174t180.5 -458.5t-180.5 -459t-477.5 -174.5zM741 63q254 0 410 151t156 394.5t-156 394t-410 150.5t-409.5 -150.5t-155.5 -394t155.5 -394.5t409.5 -151zM741.5 260q-155.5 0 -252 95.5t-96.5 253 t96.5 252.5t252 95t252 -95t96.5 -252.5t-96.5 -253t-252 -95.5z" glyph-name="uni0E4F" horiz-adv-x="1482" unicode="๏"/><glyph d="M682 -25q-266 0 -433 161t-167 417t167 416.5t433 160.5t432 -160.5t166 -416.5t-166 -417t-432 -161zM682 227q143 0 232.5 90.5t89.5 235.5t-89.5 235.5t-232.5 90.5t-232.5 -90.5t-89.5 -235.5t89.5 -235.5t232.5 -90.5z" glyph-name="uni0E50" horiz-adv-x="1361" unicode="๐"/><glyph d="M553 -25q-104 0 -201 23v227q111 -18 183 -18q399 0 399 364q0 160 -80 244t-231 84q-123 0 -194 -53t-71 -148q0 -84 56.5 -131t156.5 -47q84 0 150 33v-197q-88 -41 -207 -41q-197 0 -314.5 105.5t-117.5 281.5q0 195 147.5 311.5t393.5 116.5q274 0 430.5 -148 t156.5 -411q0 -276 -176 -436t-481 -160z" glyph-name="uni0E51" horiz-adv-x="1292" unicode="๑"/><glyph d="M1143 1130q131 0 210 -88t79 -233v-317q0 -248 -168 -382.5t-478 -134.5q-326 0 -496.5 150.5t-170.5 435.5v656h252v-639q0 -381 415 -381q188 0 291 77.5t103 221.5v305q0 53 -22.5 82.5t-61.5 29.5q-35 0 -56.5 -24.5t-21.5 -69.5v-102h-193v102q0 94 -67 94 q-86 0 -86 -153q0 -184 153 -185q61 0 117 25v-194q-76 -35 -170 -35q-162 0 -250 100t-88 289q0 174 74 272t205 98q147 0 209 -114h4q59 114 217 114z" glyph-name="uni0E52" horiz-adv-x="1550" unicode="๒"/><glyph d="M965 1130q152 0 239.5 -104t87.5 -287v-739h-268v727q0 160 -111 160q-47 0 -73.5 -33t-26.5 -92v-227h-219v227q0 57 -25.5 91t-68.5 34q-68 0 -105 -84t-37 -236q0 -188 58.5 -274t185.5 -86q53 0 111 20v-227q-74 -25 -164 -25q-227 0 -347 152t-120 440 q0 266 98.5 414.5t274.5 148.5t250 -139h4q74 139 256 139z" glyph-name="uni0E53" horiz-adv-x="1411" unicode="๓"/><glyph d="M891 348q0 -74 49 -116t137 -42q61 0 135 27v-213q-92 -29 -182 -29q-164 0 -262 74q-100 -74 -236 -74q-205 0 -327.5 157t-122.5 409q0 272 148.5 418.5t416.5 146.5h197q168 0 168 147h268q0 -184 -98.5 -279t-288.5 -95h-197q-338 0 -338 -338q0 -154 60.5 -244 t169.5 -90q31 0 65 10q-16 61 -16 127q0 172 100.5 266.5t282.5 94.5q68 0 137 -17v-201q-45 12 -90 13q-82 0 -129 -41t-47 -111z" glyph-name="uni0E54" horiz-adv-x="1325" unicode="๔"/><glyph d="M891 348q0 -74 48 -116t138 -42q61 0 135 27v-213q-86 -29 -182 -29q-164 0 -262 74q-100 -74 -236 -74q-203 0 -326.5 153t-123.5 396q0 422 369 539v4q-27 49 -27 104q0 96 63.5 157t165.5 61q98 0 163 -59.5t65 -151.5q0 -37 -13 -68h9q135 8 135 143h268 q0 -186 -99.5 -280t-287.5 -94h-174q-172 0 -266.5 -89.5t-94.5 -265.5q0 -143 61.5 -230t168.5 -87q31 0 65 10q-16 61 -16 127q0 172 101.5 266.5t281.5 94.5q72 0 137 -17v-201q-45 12 -88 13q-86 0 -132 -41t-46 -111zM653 1231q-31 0 -49 -19.5t-18 -50.5 q0 -29 18.5 -48t48.5 -19q29 0 47.5 19.5t18.5 47.5q0 31 -18.5 50.5t-47.5 19.5z" glyph-name="uni0E55" horiz-adv-x="1325" unicode="๕"/><glyph d="M666 -25q-233 0 -408 109v246q178 -123 369 -123q178 0 279.5 95t101.5 261q0 152 -82 244t-215 92q-188 0 -267 -176h-264l-180 530h283l82 -290h4q123 168 374 167q246 0 393.5 -154.5t147.5 -412.5q0 -272 -165.5 -430t-452.5 -158z" glyph-name="uni0E56" horiz-adv-x="1366" unicode="๖"/><glyph d="M1450 371v846h268v-846q0 -178 -102.5 -274.5t-290.5 -96.5h-301v727q0 160 -111 160q-47 0 -73.5 -33t-26.5 -92v-227h-219v227q0 57 -25.5 91t-68.5 34q-68 0 -105 -84t-37 -236q0 -188 58.5 -274t185.5 -86q53 0 111 20v-227q-74 -25 -164 -25q-227 0 -347 152 t-120 440q0 266 98.5 414.5t274.5 148.5t250 -139h4q74 139 256 139q152 0 239.5 -104t87.5 -287v-506h33q125 1 125 138z" glyph-name="uni0E57" horiz-adv-x="1837" unicode="๗"/><glyph d="M958 705q182 0 283.5 -96.5t101.5 -270.5q0 -166 -94 -264.5t-254 -98.5q-197 0 -268 140q-72 -139 -260 -140q-180 0 -282.5 142.5t-102.5 392.5q0 291 147.5 443.5t427.5 152.5h267q168 0 168 147h268q0 -186 -99.5 -282.5t-287.5 -96.5h-268q-180 0 -263.5 -88 t-83.5 -276q0 -303 156 -303q47 0 75.5 31.5t28.5 85.5v77h220v-77q0 -117 108 -117q57 0 89 38t32 105q0 150 -158 150q-49 0 -100 -15v199q69 21 149 21z" glyph-name="uni0E58" horiz-adv-x="1429" unicode="๘"/><glyph d="M518 -25q-209 0 -322.5 153t-113.5 439q0 270 101.5 416.5t287.5 146.5q182 0 262 -139h4q70 139 240 139q182 0 231 -141l9 -22h4l69 286h283l-182 -583h-240l-47 143q-27 74 -92 74q-90 0 -111 -115l252 -772h-276l-261 801q-27 86 -104 86q-154 0 -154 -320 q0 -360 211 -360q51 0 103 22v-229q-78 -25 -154 -25z" glyph-name="uni0E59" horiz-adv-x="1572" unicode="๙"/><glyph d="M924 741v476h301v-1217h-301v526q-145 -80 -349 -80q-240 0 -369.5 104.5t-129.5 297.5q0 186 121.5 289.5t339.5 103.5q104 0 206 -29v-202q-63 20 -139 20q-229 0 -229 -182q0 -188 256 -189q166 0 293 82zM1391 0v1217h301v-1217h-301z" glyph-name="uni0E5A" horiz-adv-x="1826" unicode="๚"/><glyph d="M2099 754h299v-146h-180l-41 -170h-186q-33 98 -64 201h-8v-262h-197q-61 180 -88 276h-8v-331h-196q-61 201 -74 245q-41 -227 -218 -367.5t-429 -140.5q-270 0 -439.5 159t-169.5 411q0 236 145.5 381t379.5 145q205 0 330.5 -111.5t125.5 -291.5q0 -158 -98 -256.5 t-254 -98.5q-74 0 -137 25v184q41 -23 92 -22q78 0 127 50t49 130q0 92 -64.5 148.5t-170.5 56.5q-137 0 -221.5 -93.5t-84.5 -246.5q0 -174 110 -277.5t294 -103.5q213 0 342 138t129 366v206h201q45 -150 98 -360h8v299h197q39 -125 84 -307h6v246h211q37 -102 69 -215h9 q6 55 22 133z" glyph-name="uni0E5B" horiz-adv-x="2486" unicode="๛"/><glyph d="M762 1462q356 0 570 -200.5t214 -530.5t-214 -530.5t-570 -200.5h-600v1462h600zM477 268h285q205 0 327.5 127t122.5 336t-122.5 336t-327.5 127h-285v-926zM823 -336l-121 117l121 119l121 -119z" glyph-name="uni1E0C" horiz-adv-x="1644" unicode="Ḍ"/><glyph d="M915 942v520h302v-1462h-279v143q-127 -168 -360 -168q-223 0 -358.5 150.5t-135.5 396.5q-2 246 135 396.5t363 150.5q206 0 333 -127zM657.5 221q118.5 0 191.5 83t73 218v27q-8 125 -80 199.5t-185 74.5q-119 0 -191.5 -83t-72.5 -218t73 -218t191.5 -83zM682 -336 l-121 117l121 119l121 -119z" glyph-name="uni1E0D" horiz-adv-x="1353" unicode="ḍ"/><glyph d="M762 1462q356 0 570 -200.5t214 -530.5t-214 -530.5t-570 -200.5h-600v1462h600zM477 268h285q205 0 327.5 127t122.5 336t-122.5 336t-327.5 127h-285v-926zM1182 -313h-719v182h719v-182z" glyph-name="uni1E0E" horiz-adv-x="1644" unicode="Ḏ"/><glyph d="M915 942v520h302v-1462h-279v143q-127 -168 -360 -168q-223 0 -358.5 150.5t-135.5 396.5q-2 246 135 396.5t363 150.5q206 0 333 -127zM657.5 221q118.5 0 191.5 83t73 218v27q-8 125 -80 199.5t-185 74.5q-119 0 -191.5 -83t-72.5 -218t73 -218t191.5 -83zM1040 -313 h-718v182h718v-182z" glyph-name="uni1E0F" horiz-adv-x="1353" unicode="ḏ"/><glyph d="M506 1776h719v-183h-719v183zM887 569v271h561v-711q-227 -154 -545 -154q-367 0 -585 206t-218 550t218.5 550t584.5 206q305 0 512 -133v-293q-221 154 -483 153q-227 0 -363.5 -132t-136.5 -351t136.5 -351t363.5 -132q104 0 198 26v295h-243z" glyph-name="uni1E20" horiz-adv-x="1595" unicode="Ḡ"/><glyph d="M322 1358h718v-182h-718v182zM938 901v143h279v-950q0 -487 -578 -487q-254 0 -440 94v223q164 -104 383 -104q166 0 257 65.5t91 188.5v43q-129 -141 -348 -142q-223 0 -360.5 150.5t-137.5 396.5q-2 246 134 396.5t360 150.5q233 0 360 -168zM657.5 221 q118.5 0 191.5 83t73 218t-73 218t-191.5 83t-191.5 -83t-73 -218t73 -218t191.5 -83z" glyph-name="uni1E21" horiz-adv-x="1353" unicode="ḡ"/><glyph d="M1112 866v596h315v-1462h-315v596h-635v-596h-315v1462h315v-596h635zM795 -336l-121 117l121 119l120 -119z" glyph-name="uni1E24" horiz-adv-x="1589" unicode="Ḥ"/><glyph d="M786 1069q182 0 293 -116.5t111 -307.5v-645h-301v604q0 102 -57.5 164.5t-151.5 62.5q-113 0 -178.5 -91t-65.5 -251v-489h-299v1462h297v-579q125 186 352 186zM664 -336l-121 117l121 119l120 -119z" glyph-name="uni1E25" horiz-adv-x="1314" unicode="ḥ"/><glyph d="M1112 866v596h315v-1462h-315v596h-635v-596h-315v1462h315v-596h635zM795 -305q90 0 143 52t53 142h152q0 -160 -95.5 -255t-253 -95t-253 95.5t-95.5 254.5h154q0 -90 52.5 -142t142.5 -52z" glyph-name="uni1E2A" horiz-adv-x="1589" unicode="Ḫ"/><glyph d="M786 1069q182 0 293 -116.5t111 -307.5v-645h-301v604q0 102 -57.5 164.5t-151.5 62.5q-113 0 -178.5 -91t-65.5 -251v-489h-299v1462h297v-579q125 186 352 186zM663.5 -305q90.5 0 143.5 52t53 142h152q0 -160 -95.5 -255t-253 -95t-253 95.5t-95.5 254.5h154 q0 -90 52 -142t142.5 -52z" glyph-name="uni1E2B" horiz-adv-x="1314" unicode="ḫ"/><glyph d="M477 1462v-1194h637v-268h-952v1462h315zM637 -336l-121 117l121 119l121 -119z" glyph-name="uni1E36" horiz-adv-x="1189" unicode="Ḷ"/><glyph d="M436 0h-299v1462h299v-1462zM408 -219l-121 -117l-121 117l121 119z" glyph-name="uni1E37" horiz-adv-x="573" unicode="ḷ"/><glyph d="M-41 1776h719v-183h-719v183zM477 1462v-1194h637v-268h-952v1462h315zM637 -336l-121 117l121 119l121 -119z" glyph-name="uni1E38" horiz-adv-x="1189" unicode="Ḹ"/><glyph d="M645 1593h-719v183h719v-183zM436 0h-299v1462h299v-1462zM408 -219l-121 -117l-121 117l121 119z" glyph-name="uni1E39" horiz-adv-x="573" unicode="ḹ"/><glyph d="M477 1462v-1194h637v-268h-952v1462h315zM997 -313h-718v182h718v-182z" glyph-name="uni1E3A" horiz-adv-x="1189" unicode="Ḻ"/><glyph d="M436 0h-299v1462h299v-1462zM645 -313h-719v182h719v-182z" glyph-name="uni1E3B" horiz-adv-x="573" unicode="ḻ"/><glyph d="M1792 1462v-1462h-317v987l-377 -661h-244l-377 661v-987h-315v1462h368l447 -782l444 782h371zM977 -336l-121 117l121 119l121 -119z" glyph-name="uni1E42" horiz-adv-x="1951" unicode="Ṃ"/><glyph d="M1425 1069q168 0 268.5 -107.5t100.5 -287.5v-674h-301v618q0 98 -47 155.5t-129 57.5q-94 0 -147.5 -76.5t-53.5 -215.5v-539h-301v618q0 98 -48 155.5t-130 57.5q-94 0 -147.5 -77.5t-53.5 -214.5v-539h-299v1044h297v-153q111 178 322 178q115 0 198.5 -54t124.5 -153 q113 207 346 207zM958 -336l-120 117l120 119l121 -119z" glyph-name="uni1E43" horiz-adv-x="1918" unicode="ṃ"/><glyph d="M840 1798l121 -117l-121 -118l-121 118zM1202 457v1005h318v-1462h-363l-680 1006v-1006h-315v1462h360z" glyph-name="uni1E44" horiz-adv-x="1679" unicode="Ṅ"/><glyph d="M657 1380l121 -116l-121 -119l-120 119zM786 1069q182 0 293 -116.5t111 -307.5v-645h-301v604q0 102 -57.5 164.5t-151.5 62.5q-113 0 -178.5 -91t-65.5 -251v-489h-299v1044h297v-161q125 186 352 186z" glyph-name="uni1E45" horiz-adv-x="1314" unicode="ṅ"/><glyph d="M1202 457v1005h318v-1462h-363l-680 1006v-1006h-315v1462h360zM840 -336l-121 117l121 119l121 -119z" glyph-name="uni1E46" horiz-adv-x="1679" unicode="Ṇ"/><glyph d="M786 1069q182 0 293 -116.5t111 -307.5v-645h-301v604q0 102 -57.5 164.5t-151.5 62.5q-113 0 -178.5 -91t-65.5 -251v-489h-299v1044h297v-161q125 186 352 186zM657 -336l-120 117l120 119l121 -119z" glyph-name="uni1E47" horiz-adv-x="1314" unicode="ṇ"/><glyph d="M1202 457v1005h318v-1462h-363l-680 1006v-1006h-315v1462h360zM1200 -313h-719v182h719v-182z" glyph-name="uni1E48" horiz-adv-x="1679" unicode="Ṉ"/><glyph d="M786 1069q182 0 293 -116.5t111 -307.5v-645h-301v604q0 102 -57.5 164.5t-151.5 62.5q-113 0 -178.5 -91t-65.5 -251v-489h-299v1044h297v-161q125 186 352 186zM1016 -313h-719v182h719v-182z" glyph-name="uni1E49" horiz-adv-x="1314" unicode="ṉ"/><glyph d="M969 625l346 -625h-342l-318 573h-178v-573h-315v1462h538q240 0 380.5 -119.5t140.5 -324.5q0 -137 -65.5 -238.5t-186.5 -154.5zM700 1210h-223v-385h223q92 0 148.5 52.5t56.5 140.5t-56.5 140t-148.5 52zM668 -336l-121 117l121 119l120 -119z" glyph-name="uni1E5A" horiz-adv-x="1363" unicode="Ṛ"/><glyph d="M436 0h-299v1044h297v-153h2q88 178 297 178q74 0 176 -31v-241q-111 35 -186 34q-133 0 -210 -91t-77 -248v-492zM408 -219l-121 -117l-121 117l121 119z" glyph-name="uni1E5B" horiz-adv-x="948" unicode="ṛ"/><glyph d="M307 1776h719v-183h-719v183zM969 625l346 -625h-342l-318 573h-178v-573h-315v1462h538q240 0 380.5 -119.5t140.5 -324.5q0 -137 -65.5 -238.5t-186.5 -154.5zM700 1210h-223v-385h223q92 0 148.5 52.5t56.5 140.5t-56.5 140t-148.5 52zM668 -336l-121 117l121 119 l120 -119z" glyph-name="uni1E5C" horiz-adv-x="1363" unicode="Ṝ"/><glyph d="M840 1176h-719v182h719v-182zM436 0h-299v1044h297v-153h2q88 178 297 178q74 0 176 -31v-241q-111 35 -186 34q-133 0 -210 -91t-77 -248v-492zM408 -219l-121 -117l-121 117l121 119z" glyph-name="uni1E5D" horiz-adv-x="948" unicode="ṝ"/><glyph d="M655 573h-178v-573h-315v1462h538q240 0 380.5 -119.5t140.5 -324.5q0 -137 -65.5 -238.5t-186.5 -154.5l346 -625h-342zM700 1210h-223v-385h223q92 0 148.5 52.5t56.5 140.5t-56.5 140t-148.5 52zM1026 -313h-719v182h719v-182z" glyph-name="uni1E5E" horiz-adv-x="1363" unicode="Ṟ"/><glyph d="M436 0h-299v1044h297v-153h2q88 178 297 178q74 0 176 -31v-241q-111 35 -186 34q-133 0 -210 -91t-77 -248v-492zM645 -313h-719v182h719v-182z" glyph-name="uni1E5F" horiz-adv-x="948" unicode="ṟ"/><glyph d="M702 1681l-120 -118l-121 118l121 117zM522 -25q-207 0 -395 82v267q215 -94 387 -95q240 0 240 181q0 70 -43 113.5t-146 82.5l-129 49q-344 131 -344 422q0 188 141.5 299t384.5 111q201 0 379 -82v-266q-203 94 -368 94q-104 0 -161.5 -41t-57.5 -115q0 -61 42 -103 t138 -81l141 -55q340 -131 340 -426q0 -203 -146.5 -320t-402.5 -117z" glyph-name="uni1E60" horiz-adv-x="1163" unicode="Ṡ"/><glyph d="M645 1264l-121 -119l-121 119l121 116zM483 -25q-207 0 -366 62v233q158 -70 336 -69q209 0 209 102q0 66 -99 96l-180 54q-289 80 -289 311q0 145 119 225t340 80q172 0 342 -61v-234q-164 70 -313 70q-88 0 -136.5 -24.5t-48.5 -67.5q0 -57 97 -90l176 -52 q295 -86 295 -317q0 -156 -123 -237t-359 -81z" glyph-name="uni1E61" horiz-adv-x="1058" unicode="ṡ"/><glyph d="M522 -25q-207 0 -395 82v267q215 -94 387 -95q240 0 240 181q0 70 -43 113.5t-146 82.5l-129 49q-344 131 -344 422q0 188 141.5 299t384.5 111q201 0 379 -82v-266q-203 94 -368 94q-104 0 -161.5 -41t-57.5 -115q0 -61 42 -103t138 -81l141 -55q340 -131 340 -426 q0 -203 -146.5 -320t-402.5 -117zM702 -219l-120 -117l-121 117l121 119z" glyph-name="uni1E62" horiz-adv-x="1163" unicode="Ṣ"/><glyph d="M483 -25q-207 0 -366 62v233q158 -70 336 -69q209 0 209 102q0 66 -99 96l-180 54q-289 80 -289 311q0 145 119 225t340 80q172 0 342 -61v-234q-164 70 -313 70q-88 0 -136.5 -24.5t-48.5 -67.5q0 -57 97 -90l176 -52q295 -86 295 -317q0 -156 -123 -237t-359 -81z M645 -219l-121 -117l-121 117l121 119z" glyph-name="uni1E63" horiz-adv-x="1058" unicode="ṣ"/><glyph d="M1341 1462v-268h-475v-1194h-315v1194h-475v268h1265zM709 -336l-121 117l121 119l120 -119z" glyph-name="uni1E6C" horiz-adv-x="1417" unicode="Ṭ"/><glyph d="M887 1044v-237h-352v-428q0 -166 161 -166q82 0 178 47v-221q-145 -63 -268 -64q-180 0 -276.5 97.5t-96.5 279.5v455h-194v237h194v295h302v-295h352zM582 -336l-121 117l121 119l120 -119z" glyph-name="uni1E6D" horiz-adv-x="970" unicode="ṭ"/><glyph d="M1341 1462v-268h-475v-1194h-315v1194h-475v268h1265zM1067 -313h-719v182h719v-182z" glyph-name="uni1E6E" horiz-adv-x="1417" unicode="Ṯ"/><glyph d="M233 352v455h-194v237h194v295h302v-295h352v-237h-352v-428q0 -166 161 -166q82 0 178 47v-221q-145 -63 -268 -64q-180 0 -276.5 97.5t-96.5 279.5zM221 -313v182h719v-182h-719z" glyph-name="uni1E6F" horiz-adv-x="970" unicode="ṯ"/><glyph d="M1174 1921l116 -328h-209l-163 328h256zM1710 340l281 1122h331l-403 -1462h-422l-311 1073l-312 -1073h-421l-402 1462h330l281 -1122h4l327 1122h385l328 -1122h4z" glyph-name="Wgrave" horiz-adv-x="2371" unicode="Ẁ"/><glyph d="M907 1503l117 -327h-209l-164 327h256zM1298 248l181 796h309l-264 -1044h-420l-184 793l-185 -793h-420l-264 1044h309l181 -796h2l198 796h357l198 -796h2z" glyph-name="wgrave" horiz-adv-x="1839" unicode="ẁ"/><glyph d="M1198 1921h256l-162 -328h-211zM1710 340l281 1122h331l-403 -1462h-422l-311 1073l-312 -1073h-421l-402 1462h330l281 -1122h4l327 1122h385l328 -1122h4z" glyph-name="Wacute" horiz-adv-x="2371" unicode="Ẃ"/><glyph d="M932 1503h256l-162 -327h-211zM1298 248l181 796h309l-264 -1044h-420l-184 793l-185 -793h-420l-264 1044h309l181 -796h2l198 796h357l198 -796h2z" glyph-name="wacute" horiz-adv-x="1839" unicode="ẃ"/><glyph d="M979 1798l121 -117l-121 -118l-121 118zM1391 1798l120 -117l-120 -118l-121 118zM1710 340l281 1122h331l-403 -1462h-422l-311 1073l-312 -1073h-421l-402 1462h330l281 -1122h4l327 1122h385l328 -1122h4z" glyph-name="Wdieresis" horiz-adv-x="2371" unicode="Ẅ"/><glyph d="M713 1380l121 -116l-121 -119l-121 119zM1124 1380l121 -116l-121 -119l-120 119zM1298 248l181 796h309l-264 -1044h-420l-184 793l-185 -793h-420l-264 1044h309l181 -796h2l198 796h357l198 -796h2z" glyph-name="wdieresis" horiz-adv-x="1839" unicode="ẅ"/><glyph d="M764 1798l121 -117l-121 -118l-121 118zM764 997l326 465h385l-553 -745v-717h-316v717l-555 745h385z" glyph-name="uni1E8E" horiz-adv-x="1525" unicode="Ẏ"/><glyph d="M637 1380l121 -116l-121 -119l-121 119zM647 338l262 706h316l-574 -1413h-315l160 371l-445 1042h316l276 -706h4z" glyph-name="uni1E8F" horiz-adv-x="1273" unicode="ẏ"/><glyph d="M1333 0h-1227v246l773 948h-752v268h1186v-245l-770 -949h790v-268zM842 -219l-121 -117l-121 117l121 119z" glyph-name="uni1E92" horiz-adv-x="1439" unicode="Ẓ"/><glyph d="M1075 0h-987v217l551 590h-533v237h951v-217l-553 -589h571v-238zM702 -219l-120 -117l-121 117l121 119z" glyph-name="uni1E93" horiz-adv-x="1161" unicode="ẓ"/><glyph d="M176 1675l121 -116l-121 -119l-121 119zM588 1675l121 -116l-121 -119l-121 119zM887 1044v-237h-352v-428q0 -166 161 -166q82 0 178 47v-221q-145 -63 -268 -64q-180 0 -276.5 97.5t-96.5 279.5v455h-194v237h194v295h302v-295h352z" glyph-name="uni1E97" horiz-adv-x="970" unicode="ẗ"/><glyph d="M1249 993l-223 -162q322 -131 322 -423q0 -195 -132.5 -314t-349.5 -119q-158 0 -305 72v244q135 -63 248 -64q106 0 163.5 47.5t57.5 131.5q0 119 -133 172l-223 90v211l325 237q-113 119 -268 119q-121 0 -187.5 -60.5t-66.5 -168.5v-1006h-315v1032q0 211 149.5 333 t407.5 122q336 0 530 -242v-252z" glyph-name="uni1E9E" horiz-adv-x="1470" unicode="ẞ"/><glyph d="M979 1462l504 -1462h-330l-129 379h-514l-129 -379h-330l504 1462h424zM764 1122l-168 -489h340l-168 489h-4zM766 -336l-121 117l121 119l121 -119z" glyph-name="uni1EA0" horiz-adv-x="1533" unicode="Ạ"/><glyph d="M586 1069q268 0 409.5 -107.5t141.5 -310.5v-651h-279v129q-106 -154 -362 -154q-195 0 -307.5 93.5t-112.5 255.5q0 164 114.5 253t325.5 89q168 0 324 -60v58q0 186 -299 186q-193 0 -367 -78v223q191 74 412 74zM584 172q115 0 185.5 61.5t70.5 163.5v13 q-98 59 -234 59q-104 0 -163.5 -40t-59.5 -109.5t53.5 -108.5t147.5 -39zM631 -336l-121 117l121 119l121 -119z" glyph-name="uni1EA1" horiz-adv-x="1261" unicode="ạ"/><glyph d="M815 1798q0 82 -119 82q-61 0 -118 -18v116q94 29 196 29q131 0 203 -47t72 -135q0 -137 -168 -172v-80h-230v133q164 0 164 92zM1483 0h-330l-129 379h-514l-129 -379h-330l504 1462h424zM764 1122l-168 -489h340l-168 489h-4z" glyph-name="uni1EA2" horiz-adv-x="1533" unicode="Ả"/><glyph d="M680 1380q0 82 -119 82q-61 0 -119 -18v117q94 29 197 28q131 0 202.5 -47t71.5 -135q0 -137 -168 -172v-80h-229v133q164 0 164 92zM586 1069q268 0 409.5 -107.5t141.5 -310.5v-651h-279v129q-106 -154 -362 -154q-195 0 -307.5 93.5t-112.5 255.5q0 164 114.5 253 t325.5 89q168 0 324 -60v58q0 186 -299 186q-193 0 -367 -78v223q191 74 412 74zM584 172q115 0 185.5 61.5t70.5 163.5v13q-98 59 -234 59q-104 0 -163.5 -40t-59.5 -109.5t53.5 -108.5t147.5 -39z" glyph-name="uni1EA3" horiz-adv-x="1261" unicode="ả"/><glyph d="M1077 2226h256l-164 -325h-211zM938 1593l-170 174l-170 -174h-199l260 328h215l261 -328h-197zM1483 0h-330l-129 379h-514l-129 -379h-330l504 1462h424zM764 1122l-168 -489h340l-168 489h-4z" glyph-name="uni1EA4" horiz-adv-x="1533" unicode="Ấ"/><glyph d="M940 1808h256l-164 -325h-211zM801 1176l-170 174l-170 -174h-199l260 327h215l260 -327h-196zM586 1069q268 0 409.5 -107.5t141.5 -310.5v-651h-279v129q-106 -154 -362 -154q-195 0 -307.5 93.5t-112.5 255.5q0 164 114.5 253t325.5 89q168 0 324 -60v58 q0 186 -299 186q-193 0 -367 -78v223q191 74 412 74zM584 172q115 0 185.5 61.5t70.5 163.5v13q-98 59 -234 59q-104 0 -163.5 -40t-59.5 -109.5t53.5 -108.5t147.5 -39z" glyph-name="uni1EA5" horiz-adv-x="1261" unicode="ấ"/><glyph d="M459 2226l116 -325h-210l-162 325h256zM768 1767l-170 -174h-199l260 328h215l261 -328h-197zM1483 0h-330l-129 379h-514l-129 -379h-330l504 1462h424zM764 1122l-168 -489h340l-168 489h-4z" glyph-name="uni1EA6" horiz-adv-x="1533" unicode="Ầ"/><glyph d="M322 1808l116 -325h-211l-161 325h256zM631 1350l-170 -174h-199l260 327h215l260 -327h-196zM586 1069q268 0 409.5 -107.5t141.5 -310.5v-651h-279v129q-106 -154 -362 -154q-195 0 -307.5 93.5t-112.5 255.5q0 164 114.5 253t325.5 89q168 0 324 -60v58 q0 186 -299 186q-193 0 -367 -78v223q191 74 412 74zM584 172q115 0 185.5 61.5t70.5 163.5v13q-98 59 -234 59q-104 0 -163.5 -40t-59.5 -109.5t53.5 -108.5t147.5 -39z" glyph-name="uni1EA7" horiz-adv-x="1261" unicode="ầ"/><glyph d="M1178 2019q0 82 -119 82q-61 0 -119 -18v117q92 29 197 28q129 0 201.5 -47t72.5 -135q0 -137 -168 -172v-80h-229v133q164 0 164 92zM938 1593l-170 174l-170 -174h-199l260 328h215l261 -328h-197zM1483 0h-330l-129 379h-514l-129 -379h-330l504 1462h424zM764 1122 l-168 -489h340l-168 489h-4z" glyph-name="uni1EA8" horiz-adv-x="1533" unicode="Ẩ"/><glyph d="M999 1810q129 0 202 -47t73 -135q0 -137 -168 -172v-80h-229v133q164 0 163 93q0 82 -118 81q-61 0 -119 -18v117q92 28 196 28zM801 1176l-170 174l-170 -174h-199l260 327h215l260 -327h-196zM586 1069q268 0 409.5 -107.5t141.5 -310.5v-651h-279v129 q-106 -154 -362 -154q-195 0 -307.5 93.5t-112.5 255.5q0 164 114.5 253t325.5 89q168 0 324 -60v58q0 186 -299 186q-193 0 -367 -78v223q191 74 412 74zM584 172q115 0 185.5 61.5t70.5 163.5v13q-98 59 -234 59q-104 0 -163.5 -40t-59.5 -109.5t53.5 -108.5t147.5 -39z " glyph-name="uni1EA9" horiz-adv-x="1261" unicode="ẩ"/><glyph d="M604 2126q-53 0 -81.5 -35t-28.5 -98h-152q0 133 71.5 212t190.5 79q123 0 209 -95l27 -28q41 -43 90 -43q53 0 81.5 34.5t28.5 98.5h154q0 -131 -72.5 -210t-191.5 -79q-125 0 -209 92l-27 29q-37 43 -90 43zM874 1921l261 -328h-197l-170 174l-170 -174h-199l260 328 h215zM1483 0h-330l-129 379h-514l-129 -379h-330l504 1462h424zM764 1122l-168 -489h340l-168 489h-4z" glyph-name="uni1EAA" horiz-adv-x="1533" unicode="Ẫ"/><glyph d="M467 1708q-53 0 -82 -35t-29 -98h-151q0 133 71.5 212t190.5 79q123 0 209 -94l26 -29q41 -43 91 -43q53 0 81.5 34.5t28.5 98.5h154q0 -131 -73 -210t-191 -79q-125 0 -209 92l-27 29q-37 43 -90 43zM737 1503l260 -327h-196l-170 174l-170 -174h-199l260 327h215z M586 1069q268 0 409.5 -107.5t141.5 -310.5v-651h-279v129q-106 -154 -362 -154q-195 0 -307.5 93.5t-112.5 255.5q0 164 114.5 253t325.5 89q168 0 324 -60v58q0 186 -299 186q-193 0 -367 -78v223q191 74 412 74zM584 172q115 0 185.5 61.5t70.5 163.5v13q-98 59 -234 59 q-104 0 -163.5 -40t-59.5 -109.5t53.5 -108.5t147.5 -39z" glyph-name="uni1EAB" horiz-adv-x="1261" unicode="ẫ"/><glyph d="M938 1593l-170 174l-170 -174h-199l260 328h215l261 -328h-197zM979 1462l504 -1462h-330l-129 379h-514l-129 -379h-330l504 1462h424zM764 1122l-168 -489h340l-168 489h-4zM766 -336l-121 117l121 119l121 -119z" glyph-name="uni1EAC" horiz-adv-x="1533" unicode="Ậ"/><glyph d="M801 1176l-170 174l-170 -174h-199l260 327h215l260 -327h-196zM586 1069q268 0 409.5 -107.5t141.5 -310.5v-651h-279v129q-106 -154 -362 -154q-195 0 -307.5 93.5t-112.5 255.5q0 164 114.5 253t325.5 89q168 0 324 -60v58q0 186 -299 186q-193 0 -367 -78v223 q191 74 412 74zM584 172q115 0 185.5 61.5t70.5 163.5v13q-98 59 -234 59q-104 0 -163.5 -40t-59.5 -109.5t53.5 -108.5t147.5 -39zM631 -336l-121 117l121 119l121 -119z" glyph-name="uni1EAD" horiz-adv-x="1261" unicode="ậ"/><glyph d="M778 2267h256l-164 -325h-208zM766 1569q-158 0 -253 96t-95 256h166q0 -92 48 -144.5t134 -52.5t134 52.5t48 144.5h166q0 -160 -95 -256t-253 -96zM1483 0h-330l-129 379h-514l-129 -379h-330l504 1462h424zM764 1122l-168 -489h340l-168 489h-4z" glyph-name="uni1EAE" horiz-adv-x="1533" unicode="Ắ"/><glyph d="M643 1849h256l-164 -325h-209zM630.5 1151q-157.5 0 -252.5 96t-95 256h166q0 -92 48 -144t134 -52t134 52t48 144h166q0 -160 -95.5 -256t-253 -96zM586 1069q268 0 409.5 -107.5t141.5 -310.5v-651h-279v129q-106 -154 -362 -154q-195 0 -307.5 93.5t-112.5 255.5 q0 164 114.5 253t325.5 89q168 0 324 -60v58q0 186 -299 186q-193 0 -367 -78v223q191 74 412 74zM584 172q115 0 185.5 61.5t70.5 163.5v13q-98 59 -234 59q-104 0 -163.5 -40t-59.5 -109.5t53.5 -108.5t147.5 -39z" glyph-name="uni1EAF" horiz-adv-x="1261" unicode="ắ"/><glyph d="M754 2267l116 -325h-208l-164 325h256zM766 1569q-158 0 -253 96t-95 256h166q0 -92 48 -144.5t134 -52.5t134 52.5t48 144.5h166q0 -160 -95 -256t-253 -96zM1483 0h-330l-129 379h-514l-129 -379h-330l504 1462h424zM764 1122l-168 -489h340l-168 489h-4z" glyph-name="uni1EB0" horiz-adv-x="1533" unicode="Ằ"/><glyph d="M618 1849l117 -325h-209l-164 325h256zM630.5 1151q-157.5 0 -252.5 96t-95 256h166q0 -92 48 -144t134 -52t134 52t48 144h166q0 -160 -95.5 -256t-253 -96zM586 1069q268 0 409.5 -107.5t141.5 -310.5v-651h-279v129q-106 -154 -362 -154q-195 0 -307.5 93.5 t-112.5 255.5q0 164 114.5 253t325.5 89q168 0 324 -60v58q0 186 -299 186q-193 0 -367 -78v223q191 74 412 74zM584 172q115 0 185.5 61.5t70.5 163.5v13q-98 59 -234 59q-104 0 -163.5 -40t-59.5 -109.5t53.5 -108.5t147.5 -39z" glyph-name="uni1EB1" horiz-adv-x="1261" unicode="ằ"/><glyph d="M815 2124q0 82 -119 82q-61 0 -118 -19v117q98 31 196 31q129 0 202 -48.5t73 -134.5q0 -141 -168 -172v-82h-230v134q164 0 164 92zM766 1569q-158 0 -253 96t-95 256h166q0 -92 48 -144.5t134 -52.5t134 52.5t48 144.5h166q0 -160 -95 -256t-253 -96zM1483 0h-330 l-129 379h-514l-129 -379h-330l504 1462h424zM764 1122l-168 -489h340l-168 489h-4z" glyph-name="uni1EB2" horiz-adv-x="1533" unicode="Ẳ"/><glyph d="M680 1706q0 82 -119 82q-61 0 -119 -19v117q98 31 197 31q129 0 201.5 -48t72.5 -134q0 -141 -168 -172v-82h-229v133q164 0 164 92zM630.5 1151q-157.5 0 -252.5 96t-95 256h166q0 -92 48 -144t134 -52t134 52t48 144h166q0 -160 -95.5 -256t-253 -96zM586 1069 q268 0 409.5 -107.5t141.5 -310.5v-651h-279v129q-106 -154 -362 -154q-195 0 -307.5 93.5t-112.5 255.5q0 164 114.5 253t325.5 89q168 0 324 -60v58q0 186 -299 186q-193 0 -367 -78v223q191 74 412 74zM584 172q115 0 185.5 61.5t70.5 163.5v13q-98 59 -234 59 q-104 0 -163.5 -40t-59.5 -109.5t53.5 -108.5t147.5 -39z" glyph-name="uni1EB3" horiz-adv-x="1261" unicode="ẳ"/><glyph d="M604 2126q-53 0 -81.5 -35t-28.5 -98h-154q0 131 71.5 211t192.5 80q125 0 207 -95l29 -28q37 -43 88 -43q53 0 81.5 34.5t28.5 98.5h154q0 -131 -72.5 -210t-191.5 -79q-127 0 -207 92l-27 29q-41 43 -90 43zM766 1724q86 0 134 52.5t48 144.5h166q0 -160 -95 -256 t-253 -96t-253 96t-95 256h166q0 -92 48 -144.5t134 -52.5zM1483 0h-330l-129 379h-514l-129 -379h-330l504 1462h424zM764 1122l-168 -489h340l-168 489h-4z" glyph-name="uni1EB4" horiz-adv-x="1533" unicode="Ẵ"/><glyph d="M469 1708q-53 0 -82 -35t-29 -98h-153q0 131 71.5 211t192.5 80q125 0 207 -94l29 -29q37 -43 88 -43q53 0 81.5 34.5t28.5 98.5h154q0 -131 -73 -210t-191 -79q-127 0 -207 92l-27 29q-41 43 -90 43zM631 1307q86 0 134 52t48 144h166q0 -160 -95.5 -256t-253 -96 t-252.5 96t-95 256h166q0 -92 48 -144t134 -52zM586 1069q268 0 409.5 -107.5t141.5 -310.5v-651h-279v129q-106 -154 -362 -154q-195 0 -307.5 93.5t-112.5 255.5q0 164 114.5 253t325.5 89q168 0 324 -60v58q0 186 -299 186q-193 0 -367 -78v223q191 74 412 74zM584 172 q115 0 185.5 61.5t70.5 163.5v13q-98 59 -234 59q-104 0 -163.5 -40t-59.5 -109.5t53.5 -108.5t147.5 -39z" glyph-name="uni1EB5" horiz-adv-x="1261" unicode="ẵ"/><glyph d="M766 1569q-158 0 -253 96t-95 256h166q0 -92 48 -144.5t134 -52.5t134 52.5t48 144.5h166q0 -160 -95 -256t-253 -96zM979 1462l504 -1462h-330l-129 379h-514l-129 -379h-330l504 1462h424zM764 1122l-168 -489h340l-168 489h-4zM766 -336l-121 117l121 119l121 -119z " glyph-name="uni1EB6" horiz-adv-x="1533" unicode="Ặ"/><glyph d="M630.5 1151q-157.5 0 -252.5 96t-95 256h166q0 -92 48 -144t134 -52t134 52t48 144h166q0 -160 -95.5 -256t-253 -96zM586 1069q268 0 409.5 -107.5t141.5 -310.5v-651h-279v129q-106 -154 -362 -154q-195 0 -307.5 93.5t-112.5 255.5q0 164 114.5 253t325.5 89 q168 0 324 -60v58q0 186 -299 186q-193 0 -367 -78v223q191 74 412 74zM584 172q115 0 185.5 61.5t70.5 163.5v13q-98 59 -234 59q-104 0 -163.5 -40t-59.5 -109.5t53.5 -108.5t147.5 -39zM631 -336l-121 117l121 119l121 -119z" glyph-name="uni1EB7" horiz-adv-x="1261" unicode="ặ"/><glyph d="M1114 1462v-252h-637v-352h576v-254h-576v-352h637v-252h-952v1462h952zM625 -336l-121 117l121 119l120 -119z" glyph-name="uni1EB8" horiz-adv-x="1251" unicode="Ẹ"/><glyph d="M1190 520v-92h-799q41 -229 344 -229q217 0 383 86v-217q-180 -92 -422 -93q-291 0 -451.5 143.5t-160.5 403.5q0 254 148.5 400.5t404.5 146.5t404.5 -147.5t148.5 -401.5zM636.5 856q-106.5 0 -172 -61.5t-81.5 -176.5h508q-16 115 -82 176.5t-172.5 61.5zM637 -336 l-121 117l121 119l121 -119z" glyph-name="uni1EB9" horiz-adv-x="1273" unicode="ẹ"/><glyph d="M674 1798q0 82 -119 82q-59 0 -119 -18v116q94 29 197 29q131 0 202.5 -47t71.5 -135q0 -137 -168 -172v-80h-229v133q164 0 164 92zM1114 1462v-252h-637v-352h576v-254h-576v-352h637v-252h-952v1462h952z" glyph-name="uni1EBA" horiz-adv-x="1251" unicode="Ẻ"/><glyph d="M686 1380q0 82 -119 82q-59 0 -118 -18v117q94 29 196 28q131 0 203 -47t72 -135q0 -137 -168 -172v-80h-230v133q164 0 164 92zM1190 520v-92h-799q41 -229 344 -229q217 0 383 86v-217q-180 -92 -422 -93q-291 0 -451.5 143.5t-160.5 403.5q0 254 148.5 400.5 t404.5 146.5t404.5 -147.5t148.5 -401.5zM636.5 856q-106.5 0 -172 -61.5t-81.5 -176.5h508q-16 115 -82 176.5t-172.5 61.5z" glyph-name="uni1EBB" horiz-adv-x="1273" unicode="ẻ"/><glyph d="M465 1749q-53 0 -82 -35t-29 -98h-153q0 131 71.5 211t192.5 80q125 0 207 -95l26 -28q41 -43 90 -43q53 0 82 34.5t29 98.5h154q0 -131 -72 -211t-193 -80q-125 0 -206 94l-29 29q-37 43 -88 43zM1114 1462v-252h-637v-352h576v-254h-576v-352h637v-252h-952v1462h952z " glyph-name="uni1EBC" horiz-adv-x="1251" unicode="Ẽ"/><glyph d="M475 1331q-53 0 -81.5 -34.5t-28.5 -98.5h-154q0 131 71.5 211t192.5 80q125 0 207 -94l27 -29q41 -43 90 -43q53 0 81.5 35t28.5 98h154q0 -131 -71.5 -211t-192.5 -80q-125 0 -207 95l-29 28q-37 43 -88 43zM1190 520v-92h-799q41 -229 344 -229q217 0 383 86v-217 q-180 -92 -422 -93q-291 0 -451.5 143.5t-160.5 403.5q0 254 148.5 400.5t404.5 146.5t404.5 -147.5t148.5 -401.5zM636.5 856q-106.5 0 -172 -61.5t-81.5 -176.5h508q-16 115 -82 176.5t-172.5 61.5z" glyph-name="uni1EBD" horiz-adv-x="1273" unicode="ẽ"/><glyph d="M936 2226h256l-164 -325h-211zM797 1593l-170 174l-170 -174h-199l260 328h215l260 -328h-196zM162 1462h952v-252h-637v-352h576v-254h-576v-352h637v-252h-952v1462z" glyph-name="uni1EBE" horiz-adv-x="1251" unicode="Ế"/><glyph d="M946 1808h256l-164 -325h-211zM807 1176l-170 174l-170 -174h-199l260 327h215l261 -327h-197zM637 1069q256 0 404.5 -147.5t148.5 -401.5v-92h-799q41 -229 344 -229q217 0 383 86v-217q-180 -92 -422 -93q-291 0 -451.5 143.5t-160.5 403.5q0 254 148.5 400.5 t404.5 146.5zM636.5 856q-106.5 0 -172 -61.5t-81.5 -176.5h508q-16 115 -82 176.5t-172.5 61.5z" glyph-name="uni1EBF" horiz-adv-x="1273" unicode="ế"/><glyph d="M317 2226l117 -325h-211l-162 325h256zM627 1767l-170 -174h-199l260 328h215l260 -328h-196zM1114 1462v-252h-637v-352h576v-254h-576v-352h637v-252h-952v1462h952z" glyph-name="uni1EC0" horiz-adv-x="1251" unicode="Ề"/><glyph d="M328 1808l116 -325h-211l-161 325h256zM637 1350l-170 -174h-199l260 327h215l261 -327h-197zM1190 520v-92h-799q41 -229 344 -229q217 0 383 86v-217q-180 -92 -422 -93q-291 0 -451.5 143.5t-160.5 403.5q0 254 148.5 400.5t404.5 146.5t404.5 -147.5t148.5 -401.5z M636.5 856q-106.5 0 -172 -61.5t-81.5 -176.5h508q-16 115 -82 176.5t-172.5 61.5z" glyph-name="uni1EC1" horiz-adv-x="1273" unicode="ề"/><glyph d="M995 2228q129 0 202 -47t73 -135q0 -137 -168 -172v-80h-230v133q164 0 164 92q0 82 -118 82q-59 0 -119 -18v117q92 28 196 28zM797 1593l-170 174l-170 -174h-199l260 328h215l260 -328h-196zM162 1462h952v-252h-637v-352h576v-254h-576v-352h637v-252h-952v1462z" glyph-name="uni1EC2" horiz-adv-x="1251" unicode="Ể"/><glyph d="M1006 1810q129 0 201.5 -47t72.5 -135q0 -137 -168 -172v-80h-229v133q164 0 164 93q0 82 -119 81q-59 0 -119 -18v117q93 28 197 28zM807 1176l-170 174l-170 -174h-199l260 327h215l261 -327h-197zM637 1069q256 0 404.5 -147.5t148.5 -401.5v-92h-799 q41 -229 344 -229q217 0 383 86v-217q-180 -92 -422 -93q-291 0 -451.5 143.5t-160.5 403.5q0 254 148.5 400.5t404.5 146.5zM636.5 856q-106.5 0 -172 -61.5t-81.5 -176.5h508q-16 115 -82 176.5t-172.5 61.5z" glyph-name="uni1EC3" horiz-adv-x="1273" unicode="ể"/><glyph d="M463 2126q-53 0 -82 -35t-29 -98h-151q0 133 71.5 212t190.5 79q123 0 209 -95l26 -28q41 -43 90 -43q53 0 82 34.5t29 98.5h154q0 -131 -73 -210t-192 -79q-125 0 -208 92l-27 29q-37 43 -90 43zM733 1921l260 -328h-196l-170 174l-170 -174h-199l260 328h215z M1114 1462v-252h-637v-352h576v-254h-576v-352h637v-252h-952v1462h952z" glyph-name="uni1EC4" horiz-adv-x="1251" unicode="Ễ"/><glyph d="M473 1708q-53 0 -82 -35t-29 -98h-151q0 133 71.5 212t190.5 79q123 0 209 -94l27 -29q41 -43 90 -43q53 0 81.5 34.5t28.5 98.5h154q0 -131 -72.5 -210t-191.5 -79q-125 0 -209 92l-27 29q-37 43 -90 43zM743 1503l261 -327h-197l-170 174l-170 -174h-199l260 327h215z M1190 520v-92h-799q41 -229 344 -229q217 0 383 86v-217q-180 -92 -422 -93q-291 0 -451.5 143.5t-160.5 403.5q0 254 148.5 400.5t404.5 146.5t404.5 -147.5t148.5 -401.5zM636.5 856q-106.5 0 -172 -61.5t-81.5 -176.5h508q-16 115 -82 176.5t-172.5 61.5z" glyph-name="uni1EC5" horiz-adv-x="1273" unicode="ễ"/><glyph d="M797 1593l-170 174l-170 -174h-199l260 328h215l260 -328h-196zM1114 1462v-252h-637v-352h576v-254h-576v-352h637v-252h-952v1462h952zM625 -336l-121 117l121 119l120 -119z" glyph-name="uni1EC6" horiz-adv-x="1251" unicode="Ệ"/><glyph d="M807 1176l-170 174l-170 -174h-199l260 327h215l261 -327h-197zM1190 520v-92h-799q41 -229 344 -229q217 0 383 86v-217q-180 -92 -422 -93q-291 0 -451.5 143.5t-160.5 403.5q0 254 148.5 400.5t404.5 146.5t404.5 -147.5t148.5 -401.5zM636.5 856q-106.5 0 -172 -61.5 t-81.5 -176.5h508q-16 115 -82 176.5t-172.5 61.5zM637 -336l-121 117l121 119l121 -119z" glyph-name="uni1EC7" horiz-adv-x="1273" unicode="ệ"/><glyph d="M434 1573h-229v133q164 0 164 92q0 82 -119 82q-61 0 -119 -18v116q94 29 197 29q131 0 202.5 -47t71.5 -135q0 -137 -168 -172v-80zM477 0h-315v1462h315v-1462z" glyph-name="uni1EC8" horiz-adv-x="638" unicode="Ỉ"/><glyph d="M397 1155h-229v133q164 0 164 92q0 82 -119 82q-61 0 -119 -18v117q94 29 197 28q131 0 202.5 -47t71.5 -135q0 -137 -168 -172v-80zM432 0h-301v1044h301v-1044z" glyph-name="uni1EC9" horiz-adv-x="565" unicode="ỉ"/><glyph d="M477 0h-315v1462h315v-1462zM440 -219l-121 -117l-120 117l120 119z" glyph-name="uni1ECA" horiz-adv-x="638" unicode="Ị"/><glyph d="M473 1370l-188 -182l-189 182l189 180zM434 0h-299v1044h299v-1044zM406 -219l-121 -117l-121 117l121 119z" glyph-name="uni1ECB" horiz-adv-x="569" unicode="ị"/><glyph d="M870 -25q-344 0 -557 210t-213 546t213 546t557 210t558 -210t214 -546t-214 -546t-558 -210zM870.5 248q196.5 0 317.5 133t121 350t-121 350t-317.5 133t-317.5 -133t-121 -350t121 -350t317.5 -133zM991 -219l-121 -117l-120 117l120 119z" glyph-name="uni1ECC" horiz-adv-x="1740" unicode="Ọ"/><glyph d="M657 -25q-258 0 -415.5 150.5t-157.5 396.5t157.5 396.5t415.5 150.5t416 -150.5t158 -396.5t-158 -396.5t-416 -150.5zM657 221q121 0 193 81t72 220.5t-72 220t-193 80.5q-123 0 -193.5 -80.5t-70.5 -220t70.5 -220.5t193.5 -81zM778 -219l-121 -117l-120 117l120 119z " glyph-name="uni1ECD" horiz-adv-x="1314" unicode="ọ"/><glyph d="M985 1573h-229v133q164 0 164 92q0 82 -119 82q-59 0 -119 -18v116q94 29 197 29q131 0 202.5 -47t71.5 -135q0 -137 -168 -172v-80zM870 -25q-344 0 -557 210t-213 546t213 546t557 210t558 -210t214 -546t-214 -546t-558 -210zM870.5 248q196.5 0 317.5 133t121 350 t-121 350t-317.5 133t-317.5 -133t-121 -350t121 -350t317.5 -133z" glyph-name="uni1ECE" horiz-adv-x="1740" unicode="Ỏ"/><glyph d="M770 1155h-229v133q164 0 164 92q0 82 -119 82q-61 0 -119 -18v117q94 29 197 28q131 0 202.5 -47t71.5 -135q0 -137 -168 -172v-80zM657 -25q-258 0 -415.5 150.5t-157.5 396.5t157.5 396.5t415.5 150.5t416 -150.5t158 -396.5t-158 -396.5t-416 -150.5zM657 221 q121 0 193 81t72 220.5t-72 220t-193 80.5q-123 0 -193.5 -80.5t-70.5 -220t70.5 -220.5t193.5 -81z" glyph-name="uni1ECF" horiz-adv-x="1314" unicode="ỏ"/><glyph d="M1180 2226h256l-164 -325h-211zM1040 1593l-170 174l-170 -174h-198l260 328h215l260 -328h-197zM870 1487q344 0 558 -210t214 -546t-214 -546t-558 -210t-557 210t-213 546t213 546t557 210zM870.5 248q196.5 0 317.5 133t121 350t-121 350t-317.5 133t-317.5 -133 t-121 -350t121 -350t317.5 -133z" glyph-name="uni1ED0" horiz-adv-x="1740" unicode="Ố"/><glyph d="M967 1808h256l-164 -325h-211zM827 1176l-170 174l-170 -174h-198l260 327h215l260 -327h-197zM657 1069q258 0 416 -150.5t158 -396.5t-158 -396.5t-416 -150.5t-415.5 150.5t-157.5 396.5t157.5 396.5t415.5 150.5zM657 221q121 0 193 81t72 220.5t-72 220t-193 80.5 q-123 0 -193.5 -80.5t-70.5 -220t70.5 -220.5t193.5 -81z" glyph-name="uni1ED1" horiz-adv-x="1314" unicode="ố"/><glyph d="M561 2226l117 -325h-211l-162 325h256zM870 1767l-170 -174h-198l260 328h215l260 -328h-197zM870 1487q344 0 558 -210t214 -546t-214 -546t-558 -210t-557 210t-213 546t213 546t557 210zM870.5 248q196.5 0 317.5 133t121 350t-121 350t-317.5 133t-317.5 -133 t-121 -350t121 -350t317.5 -133z" glyph-name="uni1ED2" horiz-adv-x="1740" unicode="Ồ"/><glyph d="M348 1808l117 -325h-211l-162 325h256zM657 1350l-170 -174h-198l260 327h215l260 -327h-197zM657 1069q258 0 416 -150.5t158 -396.5t-158 -396.5t-416 -150.5t-415.5 150.5t-157.5 396.5t157.5 396.5t415.5 150.5zM657 221q121 0 193 81t72 220.5t-72 220t-193 80.5 q-123 0 -193.5 -80.5t-70.5 -220t70.5 -220.5t193.5 -81z" glyph-name="uni1ED3" horiz-adv-x="1314" unicode="ồ"/><glyph d="M1280 2019q0 82 -119 82q-59 0 -119 -18v117q92 29 197 28q129 0 201.5 -47t72.5 -135q0 -137 -167 -172v-80h-230v133q164 0 164 92zM1040 1593l-170 174l-170 -174h-198l260 328h215l260 -328h-197zM870 1487q344 0 558 -210t214 -546t-214 -546t-558 -210t-557 210 t-213 546t213 546t557 210zM870.5 248q196.5 0 317.5 133t121 350t-121 350t-317.5 133t-317.5 -133t-121 -350t121 -350t317.5 -133z" glyph-name="uni1ED4" horiz-adv-x="1740" unicode="Ổ"/><glyph d="M1026 1810q129 0 201.5 -47t72.5 -135q0 -137 -167 -172v-80h-230v133q164 0 164 93q0 82 -119 81q-59 0 -119 -18v117q93 28 197 28zM827 1176l-170 174l-170 -174h-198l260 327h215l260 -327h-197zM657 1069q258 0 416 -150.5t158 -396.5t-158 -396.5t-416 -150.5 t-415.5 150.5t-157.5 396.5t157.5 396.5t415.5 150.5zM657 221q121 0 193 81t72 220.5t-72 220t-193 80.5q-123 0 -193.5 -80.5t-70.5 -220t70.5 -220.5t193.5 -81z" glyph-name="uni1ED5" horiz-adv-x="1314" unicode="ổ"/><glyph d="M706.5 2126q-53.5 0 -82 -35t-28.5 -98h-152q0 133 72 212t191 79q123 0 208 -95l27 -28q41 -43 90 -43q53 0 82 34.5t29 98.5h153q0 -131 -72.5 -210t-191.5 -79q-125 0 -209 92l-26 29q-37 43 -90.5 43zM977 1921l260 -328h-197l-170 174l-170 -174h-198l260 328h215z M870 1487q344 0 558 -210t214 -546t-214 -546t-558 -210t-557 210t-213 546t213 546t557 210zM870.5 248q196.5 0 317.5 133t121 350t-121 350t-317.5 133t-317.5 -133t-121 -350t121 -350t317.5 -133z" glyph-name="uni1ED6" horiz-adv-x="1740" unicode="Ỗ"/><glyph d="M493.5 1708q-53.5 0 -82 -35t-28.5 -98h-152q0 133 72 212t191 79q123 0 208 -94l27 -29q41 -43 90 -43q53 0 82 34.5t29 98.5h153q0 -131 -72.5 -210t-191.5 -79q-125 0 -209 92l-26 29q-37 43 -90.5 43zM764 1503l260 -327h-197l-170 174l-170 -174h-198l260 327h215z M657 1069q258 0 416 -150.5t158 -396.5t-158 -396.5t-416 -150.5t-415.5 150.5t-157.5 396.5t157.5 396.5t415.5 150.5zM657 221q121 0 193 81t72 220.5t-72 220t-193 80.5q-123 0 -193.5 -80.5t-70.5 -220t70.5 -220.5t193.5 -81z" glyph-name="uni1ED7" horiz-adv-x="1314" unicode="ỗ"/><glyph d="M1040 1593l-170 174l-170 -174h-198l260 328h215l260 -328h-197zM870 1487q344 0 558 -210t214 -546t-214 -546t-558 -210t-557 210t-213 546t213 546t557 210zM870.5 248q196.5 0 317.5 133t121 350t-121 350t-317.5 133t-317.5 -133t-121 -350t121 -350t317.5 -133z M870 -336l-120 117l120 119l121 -119z" glyph-name="uni1ED8" horiz-adv-x="1740" unicode="Ộ"/><glyph d="M827 1176l-170 174l-170 -174h-198l260 327h215l260 -327h-197zM657 1069q258 0 416 -150.5t158 -396.5t-158 -396.5t-416 -150.5t-415.5 150.5t-157.5 396.5t157.5 396.5t415.5 150.5zM657 221q121 0 193 81t72 220.5t-72 220t-193 80.5q-123 0 -193.5 -80.5t-70.5 -220 t70.5 -220.5t193.5 -81zM657 -336l-120 117l120 119l121 -119z" glyph-name="uni1ED9" horiz-adv-x="1314" unicode="ộ"/><glyph d="M883 1921h256l-162 -328h-211zM1552 1485v76h252v-91q0 -279 -260 -344q98 -174 98 -395q0 -336 -214 -546t-558 -210t-557 210t-213 546t213 546t557 210q305 0 514 -170q78 2 123 47t45 121zM870.5 248q196.5 0 317.5 133t121 350t-121 350t-317.5 133t-317.5 -133 t-121 -350t121 -350t317.5 -133z" glyph-name="uni1EDA" horiz-adv-x="1740" unicode="Ớ"/><glyph d="M670 1503h256l-162 -327h-211zM1262 1067v76h251v-90q0 -150 -78.5 -240t-228.5 -115q25 -82 25 -176q0 -246 -158 -396.5t-416 -150.5t-415.5 150.5t-157.5 396.5t157.5 396.5t415.5 150.5q276 0 435 -170q80 4 125 48t45 120zM657 221q121 0 193 81t72 220.5t-72 220 t-193 80.5q-123 0 -193.5 -80.5t-70.5 -220t70.5 -220.5t193.5 -81z" glyph-name="uni1EDB" horiz-adv-x="1314" unicode="ớ"/><glyph d="M858 1921l117 -328h-209l-164 328h256zM1552 1485v76h252v-91q0 -279 -260 -344q98 -174 98 -395q0 -336 -214 -546t-558 -210t-557 210t-213 546t213 546t557 210q305 0 514 -170q78 2 123 47t45 121zM870.5 248q196.5 0 317.5 133t121 350t-121 350t-317.5 133 t-317.5 -133t-121 -350t121 -350t317.5 -133z" glyph-name="uni1EDC" horiz-adv-x="1740" unicode="Ờ"/><glyph d="M645 1503l117 -327h-209l-164 327h256zM1262 1067v76h251v-90q0 -150 -78.5 -240t-228.5 -115q25 -82 25 -176q0 -246 -158 -396.5t-416 -150.5t-415.5 150.5t-157.5 396.5t157.5 396.5t415.5 150.5q276 0 435 -170q80 4 125 48t45 120zM657 221q121 0 193 81t72 220.5 t-72 220t-193 80.5q-123 0 -193.5 -80.5t-70.5 -220t70.5 -220.5t193.5 -81z" glyph-name="uni1EDD" horiz-adv-x="1314" unicode="ờ"/><glyph d="M920 1798q0 82 -119 82q-59 0 -119 -18v116q94 29 197 29q131 0 202.5 -47t71.5 -135q0 -137 -168 -172v-80h-229v133q164 0 164 92zM1552 1485v76h252v-91q0 -279 -260 -344q98 -174 98 -395q0 -336 -214 -546t-558 -210t-557 210t-213 546t213 546t557 210 q305 0 514 -170q78 2 123 47t45 121zM870.5 248q196.5 0 317.5 133t121 350t-121 350t-317.5 133t-317.5 -133t-121 -350t121 -350t317.5 -133z" glyph-name="uni1EDE" horiz-adv-x="1740" unicode="Ở"/><glyph d="M705 1380q0 82 -119 82q-61 0 -119 -18v117q94 29 197 28q131 0 202.5 -47t71.5 -135q0 -137 -168 -172v-80h-229v133q164 0 164 92zM1262 1067v76h251v-90q0 -150 -78.5 -240t-228.5 -115q25 -82 25 -176q0 -246 -158 -396.5t-416 -150.5t-415.5 150.5t-157.5 396.5 t157.5 396.5t415.5 150.5q276 0 435 -170q80 4 125 48t45 120zM657 221q121 0 193 81t72 220.5t-72 220t-193 80.5q-123 0 -193.5 -80.5t-70.5 -220t70.5 -220.5t193.5 -81z" glyph-name="uni1EDF" horiz-adv-x="1314" unicode="ở"/><glyph d="M709 1749q-53 0 -82 -35t-29 -98h-154q0 131 72 211t193 80q125 0 206 -95l27 -28q41 -43 90 -43q53 0 82 34.5t29 98.5h153q0 -131 -71.5 -211t-192.5 -80q-125 0 -207 94l-28 29q-37 43 -88 43zM1552 1485v76h252v-91q0 -279 -260 -344q98 -174 98 -395 q0 -336 -214 -546t-558 -210t-557 210t-213 546t213 546t557 210q305 0 514 -170q78 2 123 47t45 121zM870.5 248q196.5 0 317.5 133t121 350t-121 350t-317.5 133t-317.5 -133t-121 -350t121 -350t317.5 -133z" glyph-name="uni1EE0" horiz-adv-x="1740" unicode="Ỡ"/><glyph d="M496 1331q-53 0 -82 -34.5t-29 -98.5h-154q0 131 72 211t193 80q125 0 206 -94l27 -29q41 -43 90 -43q53 0 82 35t29 98h153q0 -131 -71.5 -211t-192.5 -80q-125 0 -207 95l-28 28q-37 43 -88 43zM1262 1067v76h251v-90q0 -150 -78.5 -240t-228.5 -115q25 -82 25 -176 q0 -246 -158 -396.5t-416 -150.5t-415.5 150.5t-157.5 396.5t157.5 396.5t415.5 150.5q276 0 435 -170q80 4 125 48t45 120zM657 221q121 0 193 81t72 220.5t-72 220t-193 80.5q-123 0 -193.5 -80.5t-70.5 -220t70.5 -220.5t193.5 -81z" glyph-name="uni1EE1" horiz-adv-x="1314" unicode="ỡ"/><glyph d="M1552 1485v76h252v-91q0 -279 -260 -344q98 -174 98 -395q0 -336 -214 -546t-558 -210t-557 210t-213 546t213 546t557 210q305 0 514 -170q78 2 123 47t45 121zM870.5 248q196.5 0 317.5 133t121 350t-121 350t-317.5 133t-317.5 -133t-121 -350t121 -350t317.5 -133z M870 -336l-120 117l120 119l121 -119z" glyph-name="uni1EE2" horiz-adv-x="1740" unicode="Ợ"/><glyph d="M1262 1067v76h251v-90q0 -150 -78.5 -240t-228.5 -115q25 -82 25 -176q0 -246 -158 -396.5t-416 -150.5t-415.5 150.5t-157.5 396.5t157.5 396.5t415.5 150.5q276 0 435 -170q80 4 125 48t45 120zM657 221q121 0 193 81t72 220.5t-72 220t-193 80.5q-123 0 -193.5 -80.5 t-70.5 -220t70.5 -220.5t193.5 -81zM657 -336l-120 117l120 119l121 -119z" glyph-name="uni1EE3" horiz-adv-x="1314" unicode="ợ"/><glyph d="M1100 575v887h315v-887q0 -270 -174 -435t-458.5 -165t-458.5 165t-174 435v887h315v-887q0 -152 86 -239.5t231.5 -87.5t231.5 87.5t86 239.5zM782 -336l-120 117l120 119l121 -119z" glyph-name="uni1EE4" horiz-adv-x="1564" unicode="Ụ"/><glyph d="M877 555v489h301v-1044h-297v162q-125 -186 -353 -187q-182 0 -292.5 117t-110.5 307v645h299v-604q0 -102 57.5 -164.5t153.5 -62.5q113 0 177.5 91t64.5 251zM657 -336l-120 117l120 119l121 -119z" glyph-name="uni1EE5" horiz-adv-x="1314" unicode="ụ"/><glyph d="M831 1798q0 82 -118 82q-61 0 -119 -18v116q94 29 197 29q131 0 202.5 -47t71.5 -135q0 -137 -168 -172v-80h-229v133q163 0 163 92zM1100 575v887h315v-887q0 -270 -174 -435t-458.5 -165t-458.5 165t-174 435v887h315v-887q0 -152 86 -239.5t231.5 -87.5t231.5 87.5 t86 239.5z" glyph-name="uni1EE6" horiz-adv-x="1564" unicode="Ủ"/><glyph d="M707 1380q0 82 -119 82q-59 0 -119 -18v117q94 29 197 28q131 0 202.5 -47t71.5 -135q0 -137 -168 -172v-80h-229v133q164 0 164 92zM877 555v489h301v-1044h-297v162q-125 -186 -353 -187q-182 0 -292.5 117t-110.5 307v645h299v-604q0 -102 57.5 -164.5t153.5 -62.5 q113 0 177.5 91t64.5 251z" glyph-name="uni1EE7" horiz-adv-x="1314" unicode="ủ"/><glyph d="M795 1921h256l-162 -328h-211zM1593 1485v76h252v-91q0 -176 -110.5 -270t-319.5 -94v-531q0 -270 -174 -435t-458.5 -165t-458.5 165t-174 435v887h315v-887q0 -152 86 -239.5t231.5 -87.5t231.5 88t86 239v887h315v-145q84 0 131 45t47 123z" glyph-name="uni1EE8" horiz-adv-x="1564" unicode="Ứ"/><glyph d="M670 1503h256l-162 -327h-211zM1356 1067v76h252v-90q0 -176 -111 -270.5t-319 -94.5v-688h-297v162q-125 -186 -353 -187q-182 0 -292.5 117t-110.5 307v645h299v-604q0 -102 57.5 -164.5t153.5 -62.5q113 0 177.5 91t64.5 251v489h301v-145q84 0 131 45t47 123z" glyph-name="uni1EE9" horiz-adv-x="1314" unicode="ứ"/><glyph d="M770 1921l117 -328h-209l-164 328h256zM1593 1485v76h252v-91q0 -176 -110.5 -270t-319.5 -94v-531q0 -270 -174 -435t-458.5 -165t-458.5 165t-174 435v887h315v-887q0 -152 86 -239.5t231.5 -87.5t231.5 88t86 239v887h315v-145q84 0 131 45t47 123z" glyph-name="uni1EEA" horiz-adv-x="1564" unicode="Ừ"/><glyph d="M645 1503l117 -327h-209l-164 327h256zM1356 1067v76h252v-90q0 -176 -111 -270.5t-319 -94.5v-688h-297v162q-125 -186 -353 -187q-182 0 -292.5 117t-110.5 307v645h299v-604q0 -102 57.5 -164.5t153.5 -62.5q113 0 177.5 91t64.5 251v489h301v-145q84 0 131 45t47 123 z" glyph-name="uni1EEB" horiz-adv-x="1314" unicode="ừ"/><glyph d="M831 1798q0 82 -118 82q-61 0 -119 -18v116q94 29 197 29q131 0 202.5 -47t71.5 -135q0 -137 -168 -172v-80h-229v133q163 0 163 92zM1593 1485v76h252v-91q0 -176 -110.5 -270t-319.5 -94v-531q0 -270 -174 -435t-458.5 -165t-458.5 165t-174 435v887h315v-887 q0 -152 86 -239.5t231.5 -87.5t231.5 88t86 239v887h315v-145q84 0 131 45t47 123z" glyph-name="uni1EEC" horiz-adv-x="1564" unicode="Ử"/><glyph d="M707 1380q0 82 -119 82q-59 0 -119 -18v117q94 29 197 28q131 0 202.5 -47t71.5 -135q0 -137 -168 -172v-80h-229v133q164 0 164 92zM1356 1067v76h252v-90q0 -176 -111 -270.5t-319 -94.5v-688h-297v162q-125 -186 -353 -187q-182 0 -292.5 117t-110.5 307v645h299v-604 q0 -102 57.5 -164.5t153.5 -62.5q113 0 177.5 91t64.5 251v489h301v-145q84 0 131 45t47 123z" glyph-name="uni1EED" horiz-adv-x="1314" unicode="ử"/><glyph d="M621 1749q-53 0 -82 -35t-29 -98h-154q0 131 72 211t193 80q125 0 206 -95l27 -28q41 -43 90 -43q53 0 82 34.5t29 98.5h153q0 -131 -71.5 -211t-192.5 -80q-125 0 -207 94l-28 29q-37 43 -88 43zM1593 1485v76h252v-91q0 -176 -110.5 -270t-319.5 -94v-531 q0 -270 -174 -435t-458.5 -165t-458.5 165t-174 435v887h315v-887q0 -152 86 -239.5t231.5 -87.5t231.5 88t86 239v887h315v-145q84 0 131 45t47 123z" glyph-name="uni1EEE" horiz-adv-x="1564" unicode="Ữ"/><glyph d="M496 1331q-53 0 -82 -34.5t-29 -98.5h-154q0 131 72 211t193 80q125 0 206 -94l27 -29q41 -43 90 -43q53 0 82 35t29 98h153q0 -131 -71.5 -211t-192.5 -80q-125 0 -207 95l-28 28q-37 43 -88 43zM1356 1067v76h252v-90q0 -176 -111 -270.5t-319 -94.5v-688h-297v162 q-125 -186 -353 -187q-182 0 -292.5 117t-110.5 307v645h299v-604q0 -102 57.5 -164.5t153.5 -62.5q113 0 177.5 91t64.5 251v489h301v-145q84 0 131 45t47 123z" glyph-name="uni1EEF" horiz-adv-x="1314" unicode="ữ"/><glyph d="M1593 1485v76h252v-91q0 -176 -110.5 -270t-319.5 -94v-531q0 -270 -174 -435t-458.5 -165t-458.5 165t-174 435v887h315v-887q0 -152 86 -239.5t231.5 -87.5t231.5 88t86 239v887h315v-145q84 0 131 45t47 123zM782 -336l-120 117l120 119l121 -119z" glyph-name="uni1EF0" horiz-adv-x="1564" unicode="Ự"/><glyph d="M1356 1067v76h252v-90q0 -176 -111 -270.5t-319 -94.5v-688h-297v162q-125 -186 -353 -187q-182 0 -292.5 117t-110.5 307v645h299v-604q0 -102 57.5 -164.5t153.5 -62.5q113 0 177.5 91t64.5 251v489h301v-145q84 0 131 45t47 123zM657 -336l-120 117l120 119l121 -119z " glyph-name="uni1EF1" horiz-adv-x="1314" unicode="ự"/><glyph d="M752 1921l116 -328h-209l-163 328h256zM764 997l326 465h385l-553 -745v-717h-316v717l-555 745h385z" glyph-name="Ygrave" horiz-adv-x="1525" unicode="Ỳ"/><glyph d="M625 1503l116 -327h-209l-163 327h256zM647 338l262 706h316l-574 -1413h-315l160 371l-445 1042h316l276 -706h4z" glyph-name="ygrave" horiz-adv-x="1273" unicode="ỳ"/><glyph d="M764 997l326 465h385l-553 -745v-717h-316v717l-555 745h385zM764 -336l-121 117l121 119l121 -119z" glyph-name="uni1EF4" horiz-adv-x="1525" unicode="Ỵ"/><glyph d="M647 338l262 706h316l-574 -1413h-315l160 371l-445 1042h316l276 -706h4zM1047 -336l-121 117l121 119l120 -119z" glyph-name="uni1EF5" horiz-adv-x="1273" unicode="ỵ"/><glyph d="M813 1798q0 82 -119 82q-59 0 -119 -18v116q94 29 197 29q131 0 203 -47t72 -135q0 -137 -168 -172v-80h-230v133q164 0 164 92zM764 997l326 465h385l-553 -745v-717h-316v717l-555 745h385z" glyph-name="uni1EF6" horiz-adv-x="1525" unicode="Ỷ"/><glyph d="M686 1380q0 82 -119 82q-59 0 -118 -18v117q94 29 196 28q131 0 203 -47t72 -135q0 -137 -168 -172v-80h-230v133q164 0 164 92zM647 338l262 706h316l-574 -1413h-315l160 371l-445 1042h316l276 -706h4z" glyph-name="uni1EF7" horiz-adv-x="1273" unicode="ỷ"/><glyph d="M602 1749q-53 0 -81.5 -35t-28.5 -98h-154q0 131 71.5 211t192.5 80q125 0 207 -95l27 -28q41 -43 90 -43q53 0 81.5 34.5t28.5 98.5h154q0 -131 -71.5 -211t-192.5 -80q-125 0 -207 94l-29 29q-37 43 -88 43zM764 997l326 465h385l-553 -745v-717h-316v717l-555 745h385 z" glyph-name="uni1EF8" horiz-adv-x="1525" unicode="Ỹ"/><glyph d="M475 1331q-53 0 -81.5 -34.5t-28.5 -98.5h-154q0 131 71.5 211t192.5 80q125 0 207 -94l27 -29q41 -43 90 -43q53 0 81.5 35t28.5 98h154q0 -131 -71.5 -211t-192.5 -80q-125 0 -207 95l-29 28q-37 43 -88 43zM647 338l262 706h316l-574 -1413h-315l160 371l-445 1042 h316l276 -706h4z" glyph-name="uni1EF9" horiz-adv-x="1273" unicode="ỹ"/><glyph glyph-name="uni2007" horiz-adv-x="1228" unicode=" "/><glyph d="M1034 434h-985v230h985v-230z" glyph-name="uni2010" horiz-adv-x="1083" unicode="‐"/><glyph d="M1036 434h-999v230h999v-230z" glyph-name="figuredash" horiz-adv-x="1073" unicode="‒"/><glyph d="M1407 434h-1358v230h1358v-230z" glyph-name="endash" horiz-adv-x="1456" unicode="–"/><glyph d="M1679 434h-1630v230h1630v-230z" glyph-name="emdash" horiz-adv-x="1728" unicode="—"/><glyph d="M2064 434h-2027v230h2027v-230z" glyph-name="afii00208" horiz-adv-x="2101" unicode="―"/><glyph d="M379 1128h-256l102 375h209z" glyph-name="quoteleft" horiz-adv-x="557" unicode="‘"/><glyph d="M334 1128h-211l55 375h256z" glyph-name="quoteright" horiz-adv-x="557" unicode="’"/><glyph d="M334 -225h-211l55 375h256z" glyph-name="quotesinglbase" horiz-adv-x="557" unicode="‚"/><glyph d="M379 1128h-256l102 375h209zM774 1128h-256l103 375h208z" glyph-name="quotedblleft" horiz-adv-x="952" unicode="“"/><glyph d="M334 1128h-211l55 375h256zM729 1128h-211l55 375h256z" glyph-name="quotedblright" horiz-adv-x="952" unicode="”"/><glyph d="M334 -225h-211l55 375h256zM729 -225h-211l55 375h256z" glyph-name="quotedblbase" horiz-adv-x="952" unicode="„"/><glyph d="M766 1227h379v-269h-379v-1081h-317v1081h-379v269h379v358h317v-358z" glyph-name="dagger" horiz-adv-x="1214" unicode="†"/><glyph d="M1145 1227v-269h-379v-454h379v-268h-379v-359h-317v359h-379v268h379v454h-379v269h379v358h317v-358h379z" glyph-name="daggerdbl" horiz-adv-x="1214" unicode="‡"/><glyph d="M610 522l-270 -262l-270 262l270 262z" glyph-name="bullet" horiz-adv-x="679" unicode="•"/><glyph d="M387 135l-160 -151l-157 151l157 150zM844 135l-160 -151l-158 151l158 150zM1298 135l-157 -151l-158 151l158 150z" glyph-name="ellipsis" horiz-adv-x="1370" unicode="…"/><glyph d="M422 758q-152 0 -246 92t-94 241.5t94 241.5t246 92q154 0 248 -92t94 -241.5t-94 -241.5t-248 -92zM623 0h-316l828 1401h315zM421.5 938q63.5 0 100.5 41t37 112.5t-37 112.5t-100.5 41t-100 -41t-36.5 -112.5t36.5 -112.5t100 -41zM1333 -25q-152 0 -246 92.5t-94 242 t94.5 241.5t245.5 92q154 0 248 -92t94 -241.5t-94 -242t-248 -92.5zM2091 -25q-152 0 -246 92.5t-94 242t94 241.5t246 92q154 0 248 -92t94 -241.5t-94 -242t-248 -92.5zM1333.5 156q63.5 0 100 41t36.5 112.5t-36.5 112.5t-100 41t-99.5 -41t-36 -112.5t36 -112.5 t99.5 -41zM2091 156q63 0 100 41t37 112.5t-37 112.5t-100 41t-99 -41t-36 -112.5t36 -112.5t99 -41z" glyph-name="perthousand" horiz-adv-x="2514" unicode="‰"/><glyph d="M352 1085h-229v377h229v-377z" glyph-name="minute" horiz-adv-x="475" unicode="′"/><glyph d="M352 1085h-229v377h229v-377zM723 1085h-229v377h229v-377z" glyph-name="second" horiz-adv-x="845" unicode="″"/><glyph d="M752 0h-330l-299 522l299 522h330l-291 -522z" glyph-name="guilsinglleft" horiz-adv-x="874" unicode="‹"/><glyph d="M453 0h-330l291 522l-291 522h330l299 -522z" glyph-name="guilsinglright" horiz-adv-x="874" unicode="›"/><glyph d="M1229 1401l-950 -1401h-195l950 1401h195z" glyph-name="fraction" horiz-adv-x="1312" unicode="⁄"/><glyph d="M389.5 848q-145.5 0 -230.5 94t-85 256t85 256t230.5 94t231.5 -94t86 -256t-86 -256t-231.5 -94zM389 985q70 0 110 56.5t40 156.5t-40 156.5t-110 56.5q-68 0 -107.5 -57.5t-39.5 -155.5t39.5 -155.5t107.5 -57.5z" glyph-name="uni2070" horiz-adv-x="780" unicode="⁰"/><glyph d="M541 860h-160v139h-320v115l263 422h217v-399h84v-138h-84v-139zM231 1141v-4h150v223h-4z" glyph-name="uni2074" horiz-adv-x="722" unicode="⁴"/><glyph d="M362 1309q119 0 182.5 -57.5t63.5 -164.5q0 -115 -75.5 -177t-219.5 -62q-121 0 -215 45v137q90 -45 199 -45q143 0 143 102q0 104 -161 105q-88 0 -168 -29l34 373h410v-137h-264l-8 -103q42 13 79 13z" glyph-name="uni2075" horiz-adv-x="681" unicode="⁵"/><glyph d="M406 1307q104 0 167.5 -60.5t63.5 -161.5q0 -109 -72.5 -173t-191.5 -64q-137 0 -212 86t-75 242q0 176 84 274t233 98q92 0 168 -41v-139q-72 43 -153 43q-156 0 -170 -160h4q56 56 154 56zM365 981q49 0 77.5 28.5t28.5 76t-29.5 76t-76.5 28.5q-49 0 -79 -28.5 t-30 -76.5q2 -49 32 -76.5t77 -27.5z" glyph-name="uni2076" horiz-adv-x="722" unicode="⁶"/><glyph d="M311 860h-178l244 535v4h-316v137h498v-129z" glyph-name="uni2077" horiz-adv-x="620" unicode="⁷"/><glyph d="M346 848q-123 0 -197.5 56.5t-74.5 148.5q0 106 100 155v4q-86 47 -86 142q0 88 70.5 141t187.5 53q119 0 189.5 -53t70.5 -141q0 -96 -86 -142v-4q102 -51 103 -155q0 -92 -76 -148.5t-201 -56.5zM346 1260q45 0 72.5 23.5t27.5 62.5q0 37 -27.5 59t-72.5 22 t-71.5 -22.5t-26.5 -58.5q0 -39 27.5 -62.5t70.5 -23.5zM346 969q49 0 79 24.5t30 65.5t-31 67.5t-78 26.5t-76.5 -26.5t-29.5 -67.5t29.5 -65.5t76.5 -24.5z" glyph-name="uni2078" horiz-adv-x="696" unicode="⁸"/><glyph d="M350 1548q137 0 212 -86t75 -241q0 -176 -84 -274.5t-234 -98.5q-92 0 -167 41v139q70 -43 153 -43q152 0 168 158h-2q-57 -53 -154 -53q-104 0 -167.5 60t-63.5 161q0 109 72.5 173t191.5 64zM358.5 1206q47.5 0 78 29t30.5 76q-2 47 -31.5 75.5t-77 28.5t-77 -28.5 t-29.5 -75.5t29.5 -76t77 -29z" glyph-name="uni2079" horiz-adv-x="722" unicode="⁹"/><glyph d="M516 639h-186q-236 211 -236 547t236 547h186q-217 -246 -217 -547t217 -547z" glyph-name="uni207D" horiz-adv-x="557" unicode="⁽"/><glyph d="M227 639h-186q217 246 217 547t-217 547h186q236 -211 236 -547t-236 -547z" glyph-name="uni207E" horiz-adv-x="557" unicode="⁾"/><glyph d="M479 1481q96 0 154.5 -61.5t58.5 -162.5v-339h-164v319q0 51 -28.5 82t-77.5 31q-57 0 -91 -49.5t-34 -131.5v-251h-166v548h164v-80q65 95 184 95z" glyph-name="uni207F" horiz-adv-x="811" unicode="ⁿ"/><glyph d="M389.5 -147q-145.5 0 -230.5 94t-85 256t85 256t230.5 94t231.5 -94t86 -256t-86 -256t-231.5 -94zM389 -10q70 0 110 56t40 156.5t-40 157t-110 56.5q-68 0 -107.5 -57.5t-39.5 -156t39.5 -155.5t107.5 -57z" glyph-name="uni2080" horiz-adv-x="780" unicode="₀"/><glyph d="M412 -135h-160v504h-4l-174 -115v162l190 125h148v-676z" glyph-name="uni2081" horiz-adv-x="546" unicode="₁"/><glyph d="M600 -135h-489v119l260 237q55 53 55 103q0 92 -127 92q-92 0 -170 -45v137q100 45 203 45q123 0 191.5 -56.5t68.5 -156.5q0 -106 -98 -199l-146 -135v-4h252v-137z" glyph-name="uni2082" horiz-adv-x="710" unicode="₂"/><glyph d="M328 -147q-125 0 -217 43v137q90 -43 198 -43q137 0 137 80q0 76 -108 75h-109v119h107q90 0 90 74q0 78 -117 78q-88 0 -178 -45v137q90 45 205 45q121 0 189.5 -52t68.5 -143q0 -100 -84 -145v-4q102 -43 102 -158q0 -94 -74.5 -146t-209.5 -52z" glyph-name="uni2083" horiz-adv-x="686" unicode="₃"/><glyph d="M625 4h-84v-139h-160v139h-320v115l263 422h217v-400h84v-137zM381 365h-4l-146 -220v-4h150v224z" glyph-name="uni2084" horiz-adv-x="722" unicode="₄"/><glyph d="M362 313q119 0 182.5 -57t63.5 -164q0 -115 -75.5 -177t-219.5 -62q-121 0 -215 45v137q90 -45 199 -45q143 0 143 102q0 104 -161 105q-88 0 -168 -29l34 373h410v-138h-264l-8 -102q42 12 79 12z" glyph-name="uni2085" horiz-adv-x="681" unicode="₅"/><glyph d="M406 311q104 0 167.5 -60.5t63.5 -160.5q0 -109 -72.5 -173t-191.5 -64q-137 0 -212 86t-75 241q0 176 84 274.5t233 98.5q92 0 168 -41v-139q-72 43 -153 43q-156 0 -170 -160h4q56 55 154 55zM365 -14q49 0 77.5 28.5t28.5 75.5t-29.5 76t-76.5 29q-49 0 -79 -29 t-30 -76q2 -49 32 -76.5t77 -27.5z" glyph-name="uni2086" horiz-adv-x="722" unicode="₆"/><glyph d="M311 -135h-178l244 534v4h-316v138h498v-129z" glyph-name="uni2087" horiz-adv-x="620" unicode="₇"/><glyph d="M346 -147q-123 0 -197.5 56t-74.5 148q0 106 100 156v4q-86 47 -86 141q0 88 70.5 141.5t187.5 53.5q119 0 189.5 -53.5t70.5 -141.5q0 -96 -86 -141v-4q102 -51 103 -156q0 -92 -76 -148t-201 -56zM346 264q45 0 72.5 23.5t27.5 62.5q0 37 -27.5 59.5t-72.5 22.5 t-71.5 -22.5t-26.5 -59.5q0 -39 27.5 -62.5t70.5 -23.5zM346 -27q49 0 79 25t30 65.5t-31 67.5t-78 27t-76.5 -27t-29.5 -67.5t29.5 -65.5t76.5 -25z" glyph-name="uni2088" horiz-adv-x="696" unicode="₈"/><glyph d="M350 553q137 0 212 -86t75 -242q0 -176 -84 -274t-234 -98q-92 0 -167 41v139q70 -43 153 -43q152 0 168 157h-2q-57 -53 -154 -53q-104 0 -167.5 60.5t-63.5 160.5q0 109 72.5 173.5t191.5 64.5zM358.5 211q47.5 0 78 28.5t30.5 75.5q-2 47 -31.5 76t-77 29t-77 -29 t-29.5 -76t29.5 -75.5t77 -28.5z" glyph-name="uni2089" horiz-adv-x="722" unicode="₉"/><glyph d="M516 -356h-186q-236 211 -236 546.5t236 546.5h186q-217 -246 -217 -546.5t217 -546.5z" glyph-name="uni208D" horiz-adv-x="557" unicode="₍"/><glyph d="M227 -356h-186q217 246 217 547t-217 546h186q236 -211 236 -546.5t-236 -546.5z" glyph-name="uni208E" horiz-adv-x="557" unicode="₎"/><glyph d="M901 227q231 0 428 154v-279q-207 -131 -481 -131q-121 0 -225 25l-37 -82h-160l57 129q-63 31 -106 61l-86 -190h-158l131 291q-166 190 -166 493q0 328 192.5 522.5t524.5 204.5l27 60h157l-30 -66q86 -12 125 -22l41 88h159l-61 -137q47 -20 84 -43v-275 q-82 61 -182 100l-398 -882q82 -21 164 -21zM858 1169l-348 -770q43 -55 94 -90l387 856q-47 6 -90 6q-29 0 -43 -2zM418 698q0 -66 12 -125l252 557q-125 -53 -194.5 -164.5t-69.5 -267.5z" glyph-name="colonmonetary" horiz-adv-x="1452" unicode="₡"/><glyph d="M459 260h618v-260h-958v227q131 113 157 262h-145v166h143q-4 35 -32 133h-111v166h68q-4 45 -4 70q0 193 128 299.5t357 106.5q156 0 317 -60v-248q-137 63 -262 64q-236 0 -235 -203q0 -18 2 -29h346v-166h-303q29 -94 35 -133h268v-166h-268q-25 -127 -121 -229z" glyph-name="lira" horiz-adv-x="1146" unicode="₤"/><glyph d="M1432 803h129v-205h-129v-598h-347l-405 598h-246v-598h-305v598h-129v205h129v598h346l406 -598h245v598h306v-598zM434 963v-160h109zM1018 598l108 -160v160h-108z" glyph-name="uni20A6" horiz-adv-x="1560" unicode="₦"/><glyph d="M1128 1077h117v-205h-117q-35 -152 -163.5 -237.5t-325.5 -85.5h-205v-549h-305v872h-129v205h129v324h510q197 0 325.5 -86t163.5 -238zM639 1159h-205v-82h373q-53 82 -168 82zM434 791h205q115 0 168 81h-373v-81z" glyph-name="peseta" horiz-adv-x="1245" unicode="₧"/><glyph d="M1165 1303h123v-205h-123v-1098h-266v135q-121 -160 -346 -160q-213 0 -343 144.5t-130 380t131 380t346 144.5q199 0 322 -123v197h-318v205h318v98h286v-98zM631 211q113 0 182.5 80t69.5 209v18q-6 123 -75 198t-177 75q-115 0 -184.5 -80t-69.5 -211 q0 -129 69.5 -209t184.5 -80zM997 -299h-688v172h688v-172z" glyph-name="dong" horiz-adv-x="1288" unicode="₫"/><glyph d="M1051 471h-574q55 -115 167 -177.5t263 -62.5q229 0 430 152v-272q-207 -135 -483 -136q-279 0 -467 131.5t-252 364.5h-135v164h109q-2 23 -2.5 68t2.5 67h-109v164h135q63 231 246.5 363.5t452.5 132.5q287 0 503 -158l-82 -223q-143 125 -356 125q-147 0 -257 -62.5 t-165 -177.5h680v-164h-725q-4 -45 -4 -67.5t4 -67.5h619v-164z" glyph-name="Euro" horiz-adv-x="1456" unicode="€"/><glyph d="M1073 1208h172v-166h-110q4 -45 4 -67q0 -25 -4 -66h110v-166h-170q-129 -195 -436 -194h-205v-549h-305v743h-129v166h129v133h-129v166h129v193h510q303 0 434 -193zM434 791h205q88 0 142.5 50t54.5 134t-54.5 134t-142.5 50h-205v-368z" glyph-name="uni20B1" horiz-adv-x="1245" unicode="₱"/><glyph d="M950 1161v-358h445v-682q-184 -129 -445 -148v-96h-229v105q-289 41 -456 232.5t-167 484t167 484t456 232.5v105h229v-97q242 -16 414 -125v-282q-189 129 -414 145zM420 698q0 -162 80 -276.5t221 -159.5v875q-141 -45 -221 -160t-80 -279zM950 545v-307q63 2 140 22 v285h-140z" glyph-name="uni20B2" horiz-adv-x="1544" unicode="₲"/><glyph d="M1329 381v-279q-164 -104 -379 -127v-98h-229v103q-291 35 -457 226t-166 492q0 303 166 493.5t457 225.5v103h229v-99q197 -18 367 -116v-275q-168 123 -367 139v-940q207 17 379 152zM418 698q0 -166 80 -282.5t223 -161.5v891q-143 -47 -223 -163t-80 -284z" glyph-name="uni20B5" horiz-adv-x="1452" unicode="₵"/><glyph d="M745 602l349 -602h-328l-317 551h-343v242h377q74 0 125 34.5t66 96.5h-568v104h568q-14 61 -65.5 96t-125.5 35h-377v242h986v-107h-252q125 -96 143 -266h109v-104h-109q-25 -230 -238 -322z" glyph-name="uni20B9" horiz-adv-x="1165" unicode="₹"/><glyph d="M805 578v129h291v-129q0 -264 -162 -421t-432 -157h-291v571l-154 -69v170l154 67v131l-154 -67v168l154 69v361h291v-232l219 99v-170l-219 -99v-131l219 99v-168l-219 -99v-438q137 0 220 84.5t83 231.5z" glyph-name="uni20BA" horiz-adv-x="1165" unicode="₺"/><glyph d="M645 549h-207v-168h363v-164h-363v-217h-303v217h-135v164h135v168h-135v164h135v688h510q229 0 364.5 -116t135.5 -310q0 -197 -135.5 -311.5t-364.5 -114.5zM645 1159h-207v-368h207q88 0 142.5 50t54.5 134t-54.5 134t-142.5 50z" glyph-name="uni20BD" horiz-adv-x="1218" unicode="₽"/><glyph d="M938 901v143h279v-950q0 -487 -578 -487q-254 0 -440 94v223q164 -104 383 -104q166 0 257 65.5t91 188.5v43q-129 -141 -348 -142q-223 0 -360.5 150.5t-137.5 396.5q-2 246 134 396.5t360 150.5q233 0 360 -168zM657.5 221q118.5 0 191.5 83t73 218t-73 218t-191.5 83 t-191.5 -83t-73 -218t73 -218t191.5 -83z" glyph-name="uni210A" horiz-adv-x="1353" unicode="ℊ"/><glyph d="M510 545v-166q0 -166 162 -166q82 0 178 47v-221q-141 -63 -268 -64q-180 0 -276.5 97.5t-96.5 279.5v189h-152v172h152v307q0 180 93 282.5t255 102.5q164 0 256 -105.5t92 -300.5q0 -203 -101 -319.5t-294 -134.5zM612 1217q-102 0 -102 -193v-305q207 37 207 301 q-1 197 -105 197z" glyph-name="afii61289" horiz-adv-x="976" unicode="ℓ"/><glyph d="M870 1487q346 0 561.5 -210t215.5 -546t-215 -546t-562 -210q-344 0 -560 210t-216 546t216 546t560 210zM870.5 109q280.5 0 453.5 172t173 450.5t-173 450.5t-453.5 172t-453.5 -172t-173 -450.5t173 -450.5t453.5 -172zM928 1171q150 0 232.5 -73.5t82.5 -198.5 t-83 -198.5t-232 -73.5h-127v-336h-197v880h324zM801 784h127q57 0 89 31t32 84t-32 84t-89 31h-127v-230z" glyph-name="uni2117" horiz-adv-x="1740" unicode="℗"/><glyph d="M328 1229l61 -25q152 -59 152 -186q0 -88 -64.5 -138.5t-175.5 -50.5q-90 0 -172 39v119q82 -41 164 -41q104 0 104 72q0 51 -80 82l-55 20q-156 61 -156 185q0 82 61.5 129t166.5 47q92 0 176 -39v-119q-84 41 -166 41q-92 0 -92 -59q0 -47 76 -76zM1358 1462v-614h-139 v403l-152 -266h-111l-151 266v-403h-141v614h163l185 -321l182 321h164z" glyph-name="uni2120" horiz-adv-x="1515" unicode="℠"/><glyph d="M70 1462h542v-125h-200v-489h-142v489h-200v125zM1405 1462v-614h-141v401l-152 -264h-108l-152 264v-401h-141v614h163l185 -321l182 321h164z" glyph-name="trademark" horiz-adv-x="1562" unicode="™"/><glyph d="M1411 252h285v-252h-744v268q174 29 274.5 158t100.5 324q0 211 -118.5 337.5t-319.5 126.5t-319.5 -126.5t-118.5 -337.5q0 -195 100 -324t274 -158v-268h-743v252h283q-248 203 -248 539q0 309 215 502.5t557 193.5q344 0 557 -192.5t213 -503.5q0 -336 -248 -539z" glyph-name="uni2126" horiz-adv-x="1777" unicode="Ω"/><glyph d="M823 -25q-324 0 -516 206t-192 550q0 348 194.5 552t497.5 204q301 0 495.5 -197.5t194.5 -529.5v-29h-1247v-385q78 -154 228.5 -240t344.5 -86q201 0 360.5 89.5t229.5 238.5h53q-76 -172 -248 -272.5t-395 -100.5zM250 1118v-342h1112v354q-82 147 -227.5 229.5 t-327.5 82.5q-184 0 -331.5 -85t-225.5 -239z" glyph-name="estimated" horiz-adv-x="1609" unicode="℮"/><glyph d="M412 725h-160v504h-4l-174 -115v162l190 125h148v-676zM1186 1401h194l-950 -1401h-194zM1317 -12q-125 0 -217 43v137q88 -43 198 -43q137 0 138 80q0 76 -109 76h-108v118h106q90 0 90 74q0 78 -117 78q-88 0 -178 -45v137q90 45 205 45q121 0 189.5 -52t68.5 -142 q0 -102 -84 -146v-4q102 -43 103 -158q0 -94 -75 -146t-210 -52z" glyph-name="onethird" horiz-adv-x="1675" unicode="⅓"/><glyph d="M600 725h-489v119l260 237q55 53 55 103q0 92 -127 92q-92 0 -170 -45v137q100 45 203 45q123 0 191.5 -56.5t68.5 -156.5q0 -106 -98 -199l-146 -135v-4h252v-137zM358 0l951 1401h194l-950 -1401h-195zM1440 -12q-125 0 -217 43v137q88 -43 198 -43q137 0 138 80 q0 76 -109 76h-109v118h107q90 0 90 74q0 78 -117 78q-88 0 -178 -45v137q90 45 205 45q121 0 189.5 -52t68.5 -142q0 -102 -84 -146v-4q102 -43 102 -158q0 -94 -74.5 -146t-209.5 -52z" glyph-name="twothirds" horiz-adv-x="1798" unicode="⅔"/><glyph d="M412 725h-160v504h-4l-174 -115v162l190 125h148v-676zM1186 1401h194l-950 -1401h-194zM1292 -12q-123 0 -197.5 56t-74.5 149q0 104 98 155v4q-84 45 -84 142q0 88 71 141t187.5 53t187 -53t70.5 -141q0 -98 -84 -142v-4q100 -51 101 -155q0 -92 -75 -148.5t-200 -56.5 zM1292 399q45 0 72 23.5t27 62.5q0 37 -27 59.5t-72 22.5t-71.5 -22.5t-26.5 -59.5q0 -39 26.5 -62.5t71.5 -23.5zM1292 109q49 0 78 24.5t29 65.5t-30 67.5t-77 26.5t-76.5 -26.5t-29.5 -67.5t29.5 -65.5t76.5 -24.5z" glyph-name="oneeighth" horiz-adv-x="1640" unicode="⅛"/><glyph d="M328 713q-125 0 -217 43v137q90 -43 198 -43q137 0 137 80q0 76 -108 76h-109v118h107q90 0 90 74q0 78 -117 78q-88 0 -178 -45v137q90 45 205 45q121 0 189.5 -52t68.5 -142q0 -100 -84 -146v-4q102 -43 102 -158q0 -94 -74.5 -146t-209.5 -52zM285 0l950 1401h195 l-951 -1401h-194zM1341 -12q-123 0 -197.5 56t-74.5 149q0 104 98 155v4q-84 45 -84 142q0 88 71 141t187.5 53t187 -53t70.5 -141q0 -98 -83 -142v-4q100 -51 100 -155q0 -92 -75 -148.5t-200 -56.5zM1341 399q45 0 72 23.5t27 62.5q0 37 -27 59.5t-72 22.5t-71.5 -22.5 t-26.5 -59.5q0 -39 26.5 -62.5t71.5 -23.5zM1341 109q49 0 78 24.5t29 65.5t-29.5 67.5t-77 26.5t-77 -26.5t-29.5 -67.5t29.5 -65.5t76.5 -24.5z" glyph-name="threeeighths" horiz-adv-x="1689" unicode="⅜"/><glyph d="M608 952q0 -115 -75.5 -177t-219.5 -62q-121 0 -215 45v137q90 -45 199 -45q143 0 143 102q0 104 -161 105q-88 0 -168 -29l34 373h410v-137h-264l-8 -103q43 12 79 13q119 0 182.5 -58t63.5 -164zM276 0l951 1401h194l-950 -1401h-195zM1507 352v-4q100 -51 101 -155 q0 -92 -75 -148.5t-200 -56.5q-123 0 -197.5 56t-74.5 149q0 104 98 155v4q-84 45 -84 142q0 88 71 141t187 53q119 0 188.5 -53t69.5 -141q0 -99 -84 -142zM1333 567q-45 0 -71.5 -22.5t-26.5 -59.5q0 -39 26.5 -62.5t71.5 -23.5t72 23.5t27 62.5q0 37 -27 59.5t-72 22.5z M1333 109q49 0 78 24.5t29 65.5t-30 67.5t-77 26.5t-76.5 -26.5t-29.5 -67.5t29.5 -65.5t76.5 -24.5z" glyph-name="fiveeighths" horiz-adv-x="1681" unicode="⅝"/><glyph d="M311 725h-178l244 535v4h-316v137h498v-129zM1327 1401l-950 -1401h-193l951 1401h192zM1239 -12q-123 0 -197.5 56t-74.5 149q0 106 100 155v4q-86 47 -86 142q0 88 70.5 141t187.5 53q119 0 189.5 -53t70.5 -141q0 -96 -86 -142v-4q102 -51 103 -155q0 -92 -76 -148.5 t-201 -56.5zM1239 399q45 0 72.5 23.5t27.5 62.5q0 37 -27.5 59.5t-72.5 22.5t-71.5 -22.5t-26.5 -59.5q0 -39 27.5 -62.5t70.5 -23.5zM1239 109q49 0 79 24.5t30 65.5t-31 67.5t-78 26.5t-76.5 -26.5t-29.5 -67.5t29.5 -65.5t76.5 -24.5z" glyph-name="seveneighths" horiz-adv-x="1589" unicode="⅞"/><glyph d="M682 287l-160 -164l-608 608l608 608l160 -163l-293 -295h1012v-299h-1012z" glyph-name="arrowleft" horiz-adv-x="1314" unicode="←"/><glyph d="M807 0h-299v1012l-295 -293l-164 160l608 608l609 -608l-164 -160l-295 293v-1012z" glyph-name="arrowup" horiz-adv-x="1314" unicode="↑"/><glyph d="M1401 731l-608 -608l-160 164l293 295h-1012v299h1012l-293 295l160 163z" glyph-name="arrowright" horiz-adv-x="1314" unicode="→"/><glyph d="M1266 584l-609 -609l-608 609l164 159l295 -292v1011h299v-1011l295 292z" glyph-name="arrowdown" horiz-adv-x="1314" unicode="↓"/><glyph d="M469 1196v229q362 0 563 -203.5t201 -570.5q0 -319 -156.5 -497.5t-439.5 -178.5q-248 0 -399.5 135.5t-151.5 356.5q0 211 134 336t360 125q207 0 319 -113h6q-23 178 -138.5 279.5t-297.5 101.5zM655 236q100 0 166 61t68 170q0 104 -64.5 167.5t-169.5 63.5 q-106 0 -171.5 -63.5t-65.5 -168t66.5 -167.5t170.5 -63z" glyph-name="partialdiff" horiz-adv-x="1316" unicode="∂"/><glyph d="M557 -197h-317v1391h-170v268h1267v-268h-168v-1391h-317v1391h-295v-1391z" glyph-name="product" horiz-adv-x="1409" unicode="∏"/><glyph d="M1094 -197h-992v246l439 584l-439 584v245h992v-268h-611v-8l416 -553l-416 -553v-8h611v-269z" glyph-name="summation" horiz-adv-x="1198" unicode="∑"/><glyph d="M1012 559h-918v262h918v-262z" glyph-name="minus" horiz-adv-x="1105" unicode="−"/><glyph d="M406 -172h-336l536 1671h336z" glyph-name="uni2215" horiz-adv-x="1011" unicode="∕"/><glyph d="M559 694l-244 -237l-245 237l245 238z" glyph-name="uni2219" horiz-adv-x="628" unicode="∙"/><glyph d="M809 -197h-328l-209 856h-215v261h432l166 -703h7l397 1245h291z" glyph-name="radical" horiz-adv-x="1456" unicode="√"/><glyph d="M455 295q-168 0 -276.5 111.5t-108.5 285.5t108.5 286t276.5 112q203 0 315 -170q111 170 313 170q168 0 276.5 -112t108.5 -286t-108.5 -285.5t-276.5 -111.5q-203 0 -313 170q-112 -170 -315 -170zM483 524q141 0 187 168q-45 168 -187 168q-72 0 -115.5 -46 t-43.5 -122t43.5 -122t115.5 -46zM1055 524q72 0 117 46t45 122t-45.5 122t-116.5 46q-141 0 -187 -168q46 -168 187 -168z" glyph-name="infinity" horiz-adv-x="1538" unicode="∞"/><glyph d="M295 -221q-109 0 -225 51v236q70 -35 135 -35q119 0 119 112v992q0 168 85 260t242 92q111 0 226 -51v-236q-66 35 -134 35q-119 0 -118 -113v-991q0 -170 -86 -261t-244 -91z" glyph-name="integral" horiz-adv-x="948" unicode="∫"/><glyph d="M776 745q-94 0 -223 52q-127 49 -223 49q-135 0 -236 -78v272q106 78 236 78q94 0 223 -51q133 -51 223 -51q131 0 236 78v-271q-107 -78 -236 -78zM776 295q-94 0 -223 51q-133 51 -223 51q-131 0 -236 -80v271q106 78 236 78q94 0 223 -52q127 -49 223 -49 q135 0 236 78v-272q-103 -76 -236 -76z" glyph-name="approxequal" horiz-adv-x="1105" unicode="≈"/><glyph d="M1012 1044v-260h-281l-82 -184h363v-260h-475l-101 -227h-274l100 227h-168v260h281l82 184h-363v260h475l101 228h274l-100 -228h168z" glyph-name="notequal" horiz-adv-x="1105" unicode="≠"/><glyph d="M111 907l884 385v-270l-551 -231l551 -232v-270l-884 387v231zM995 0h-884v219h884v-219z" glyph-name="lessequal" horiz-adv-x="1105" unicode="≤"/><glyph d="M111 1022v270l884 -385v-231l-884 -387v270l551 232zM995 0h-884v219h884v-219z" glyph-name="greaterequal" horiz-adv-x="1105" unicode="≥"/><glyph d="M1585 0h-1462v1462h1462v-1462z" glyph-name="filledbox" horiz-adv-x="1708" unicode="■"/><glyph d="M1630 0h-1507l754 1462z" glyph-name="triagup" horiz-adv-x="1753" unicode="▲"/><glyph d="M1630 0h-1507l754 1462zM877 1380l-693 -1343h1385z" glyph-name="uni25B3" horiz-adv-x="1753" unicode="△"/><glyph d="M1585 731l-1462 -754v1508z" glyph-name="uni25B6" horiz-adv-x="1609" unicode="▶"/><glyph d="M1585 731l-1462 -754v1508zM160 1423v-1384l1343 692z" glyph-name="uni25B7" horiz-adv-x="1609" unicode="▷"/><glyph d="M1630 1462l-753 -1462l-754 1462h1507z" glyph-name="triagdn" horiz-adv-x="1753" unicode="▼"/><glyph d="M1630 1462l-753 -1462l-754 1462h1507zM184 1425l693 -1343l692 1343h-1385z" glyph-name="uni25BD" horiz-adv-x="1753" unicode="▽"/><glyph d="M1487 1485v-1508l-1462 754z" glyph-name="uni25C0" horiz-adv-x="1609" unicode="◀"/><glyph d="M1487 1485v-1508l-1462 754zM106 731l1344 -692v1384z" glyph-name="uni25C1" horiz-adv-x="1609" unicode="◁"/><glyph d="M1049 522l-435 -422l-434 422l434 422z" glyph-name="uni25C6" horiz-adv-x="1228" unicode="◆"/><glyph d="M702 0h-176l-352 731l352 731h176l353 -731zM348 731l264 -551h4l265 551l-265 551h-4z" glyph-name="lozenge" horiz-adv-x="1228" unicode="◊"/><glyph d="M975 47h-631q-25 0 -25 25v204q0 10 9 31l434 852q8 18 29 19h184q25 0 24 -25v-205q0 -10 -8 -30l-303 -596q-12 -29 19 -29h268q25 0 24 -25v-196q1 -25 -24 -25zM1257 47h-184q-25 0 -24 25v204q0 10 8 31l303 596q12 29 -19 29h-268q-25 0 -24 24v197q0 25 24 25h631 q25 0 25 -25v-205q0 -10 -9 -30l-434 -852q-9 -19 -29 -19z" glyph-name="uniF8FF" horiz-adv-x="2048" unicode=""/><glyph d="M1143 809v47h205v-313q0 -121 35.5 -178.5t111.5 -57.5t111.5 57.5t35.5 178.5q0 299 -183 480t-488 181t-488.5 -185t-183.5 -496.5t183.5 -497t488.5 -185.5q328 0 497 209h250q-106 -186 -300.5 -287.5t-446.5 -101.5q-393 0 -635 236.5t-242 625.5t242 625.5 t635 236.5q389 0 632.5 -229t243.5 -594q0 -207 -90 -314.5t-262 -107.5q-195 0 -281 133q-98 -133 -280 -133q-158 0 -255 101.5t-97 265.5t96 265t254 101q125 0 211 -63zM969 307q80 0 127 54.5t47 144.5t-47 144.5t-127 54.5q-78 0 -126 -54.5t-48 -144.5t48 -144.5 t126 -54.5z" glyph-name="at.aalt" horiz-adv-x="1943"/><glyph d="M575 1942h-208l116 325h256zM471 1569q-158 0 -253 96t-95 256h166q0 -92 48 -144.5t134 -52.5t134 52.5t48 144.5h166q0 -160 -95 -256t-253 -96z" glyph-name="glyph728" horiz-adv-x="942"/><glyph d="M575 1942h-208l-164 325h256zM471 1569q-158 0 -253 96t-95 256h166q0 -92 48 -144.5t134 -52.5t134 52.5t48 144.5h166q0 -160 -95 -256t-253 -96z" glyph-name="glyph729" horiz-adv-x="942"/><glyph d="M586 1898h-230v134q164 0 164 92q0 82 -119 82q-61 0 -118 -19v117q98 31 196 31q129 0 202 -48.5t73 -134.5q0 -141 -168 -172v-82zM471 1569q-158 0 -253 96t-95 256h166q0 -92 48 -144.5t134 -52.5t134 52.5t48 144.5h166q0 -160 -95 -256t-253 -96z" glyph-name="glyph730" horiz-adv-x="942"/><glyph d="M633 1962q-127 0 -207 92l-27 29q-41 43 -90 43q-53 0 -81.5 -35t-28.5 -98h-154q0 131 71.5 211t192.5 80q125 0 207 -95l29 -28q37 -43 88 -43q53 0 81.5 34.5t28.5 98.5h154q0 -131 -72.5 -210t-191.5 -79zM471 1569q-158 0 -253 96t-95 256h166q0 -92 48 -144.5 t134 -52.5t134 52.5t48 144.5h166q0 -160 -95 -256t-253 -96z" glyph-name="glyph731" horiz-adv-x="942"/><glyph d="M340 270q-104 0 -178 74t-74 178.5t74 178t178 73.5t179 -73.5t75 -178t-75 -178.5t-179 -74z" glyph-name="bullet.aalt" horiz-adv-x="679"/><glyph d="M682 1901l119 325h256l-164 -325h-211zM598 1921l260 -328h-196l-170 174l-170 -174h-199l260 328h215z" glyph-name="glyph733" horiz-adv-x="980"/><glyph d="M-74 2226h256l117 -325h-211zM598 1921l260 -328h-196l-170 174l-170 -174h-199l260 328h215z" glyph-name="glyph734" horiz-adv-x="980"/><glyph d="M860 2228q129 0 202 -47t73 -135q0 -137 -168 -172v-80h-230v133q164 0 164 92q0 82 -119 82q-61 0 -118 -18v117q92 28 196 28zM598 1921l260 -328h-196l-170 174l-170 -174h-199l260 328h215z" glyph-name="glyph735" horiz-adv-x="980"/><glyph d="M327.5 2126q-53.5 0 -82 -35t-28.5 -98h-151q0 133 71.5 212t190.5 79q123 0 209 -95l26 -28q41 -43 90 -43q53 0 82 34.5t29 98.5h154q0 -131 -73 -210t-192 -79q-125 0 -209 92l-26 29q-37 43 -90.5 43zM598 1921l260 -328h-196l-170 174l-170 -174h-199l260 328h215z " glyph-name="glyph736" horiz-adv-x="980"/><glyph d="M387 1118l-160 -149l-157 149l157 152zM387 344l-160 -151l-157 151l157 150z" glyph-name="glyph737" horiz-adv-x="456"/><glyph d="M227 975q-59 0 -101 42t-42 101q0 61 42 103.5t101 42.5q61 0 103.5 -42t42.5 -104q0 -59 -42.5 -101t-103.5 -42zM227 199q-59 0 -101 42t-42 103q0 59 42 102t101 43q61 0 103.5 -43t42.5 -102q0 -61 -42.5 -103t-103.5 -42z" glyph-name="glyph738" horiz-adv-x="456"/><glyph d="M227 766q-59 0 -101 42t-42 101q0 61 42 103.5t101 42.5q61 0 103.5 -42t42.5 -104q0 -59 -42.5 -101t-103.5 -42zM227 -10q-59 0 -101 42t-42 103q0 59 42 102.5t101 43.5q61 0 103.5 -43t42.5 -103q0 -61 -42.5 -103t-103.5 -42z" glyph-name="colon.salt" horiz-adv-x="456"/><glyph d="M233.5 1569q-47.5 0 -79 32.5t-31.5 80t32.5 79t78 31.5t78 -31.5t32.5 -79t-31.5 -80t-79 -32.5zM645 1569q-47 0 -78.5 32.5t-31.5 80t31.5 79t78.5 31.5t79 -31.5t32 -79t-32 -80t-79 -32.5z" glyph-name="dieresis.aalt" horiz-adv-x="878"/><glyph d="M545 1874h-211l119 326h256zM354 1681l-121 -118l-120 118l120 117zM766 1681l-121 -118l-121 118l121 117z" glyph-name="glyph741" horiz-adv-x="878"/><glyph d="M545 1874h-211l119 326h256zM233.5 1569q-47.5 0 -79 32.5t-31.5 80t32.5 79t78 31.5t78 -31.5t32.5 -79t-31.5 -80t-79 -32.5zM645 1569q-47 0 -78.5 32.5t-31.5 80t31.5 79t78.5 31.5t79 -31.5t32 -79t-32 -80t-79 -32.5z" glyph-name="glyph742" horiz-adv-x="878"/><glyph d="M610 2200h197l-260 -326h-215l-260 326h198l170 -175zM233 1563l-120 118l120 117l121 -117zM645 1563l-121 118l121 117l121 -117z" glyph-name="glyph743" horiz-adv-x="878"/><glyph d="M610 2200h197l-260 -326h-215l-260 326h198l170 -175zM233.5 1792q45.5 0 78 -31.5t32.5 -79t-31.5 -80t-79 -32.5t-79 32.5t-31.5 80t32.5 79t78 31.5zM645 1792q47 0 79 -31.5t32 -79t-32 -80t-79 -32.5t-78.5 32.5t-31.5 80t31.5 79t78.5 31.5z" glyph-name="glyph744" horiz-adv-x="878"/><glyph d="M545 1874h-211l-162 326h256zM354 1681l-121 -118l-120 118l120 117zM766 1681l-121 -118l-121 118l121 117z" glyph-name="glyph745" horiz-adv-x="878"/><glyph d="M545 1874h-211l-162 326h256zM233.5 1569q-47.5 0 -79 32.5t-31.5 80t32.5 79t78 31.5t78 -31.5t32.5 -79t-31.5 -80t-79 -32.5zM645 1569q-47 0 -78.5 32.5t-31.5 80t31.5 79t78.5 31.5t79 -31.5t32 -79t-32 -80t-79 -32.5z" glyph-name="glyph746" horiz-adv-x="878"/><glyph d="M799 1874h-719v180h719v-180zM354 1681l-121 -118l-120 118l120 117zM766 1681l-121 -118l-121 118l121 117z" glyph-name="glyph747" horiz-adv-x="878"/><glyph d="M799 1874h-719v180h719v-180zM233.5 1569q-47.5 0 -79 32.5t-31.5 80t32.5 79t78 31.5t78 -31.5t32.5 -79t-31.5 -80t-79 -32.5zM645 1569q-47 0 -78.5 32.5t-31.5 80t31.5 79t78.5 31.5t79 -31.5t32 -79t-32 -80t-79 -32.5z" glyph-name="glyph748" horiz-adv-x="878"/><glyph d="M553 967q-53 0 -90 36.5t-37 88t37 89.5t90 38t90 -38t37 -89.5t-37 -88t-90 -36.5zM1012 563h-918v262h918v-262zM553 170q-53 0 -90 38t-37 89t37 88t90 37t90 -37t37 -88t-37 -89t-90 -38z" glyph-name="divide.aalt" horiz-adv-x="1105"/><glyph d="M233.5 1569q-47.5 0 -79 32.5t-31.5 80t32.5 79t78 31.5t78 -31.5t32.5 -79t-31.5 -80t-79 -32.5z" glyph-name="dotaccent.aalt" horiz-adv-x="466"/><glyph d="M-233.5 -330q-45.5 0 -78 32t-32.5 79t31.5 80t79 33t79 -33t31.5 -80t-32.5 -79t-78 -32z" glyph-name="dotbelowcomb.aalt"/><glyph d="M682 -25q-256 0 -412.5 117t-156.5 307q0 221 209 322v8q-176 96 -177 293q0 182 146.5 292.5t390.5 110.5q242 0 388.5 -110.5t146.5 -292.5q0 -197 -177 -293v-8q209 -100 209 -322q0 -190 -156.5 -307t-410.5 -117zM682 819q98 0 157.5 50.5t59.5 134t-59.5 134 t-157.5 50.5q-100 0 -159.5 -50.5t-59.5 -134t59.5 -134t159.5 -50.5zM681.5 213q106.5 0 171.5 55.5t65 145.5t-65 145t-171.5 55t-171 -55t-64.5 -145t64.5 -145.5t171 -55.5z" glyph-name="eight.tnum" horiz-adv-x="1361"/><glyph d="M227 -10q-59 0 -101 42t-42 103q0 59 42 102.5t101 43.5q61 0 103.5 -43t42.5 -103q0 -61 -42.5 -103t-103.5 -42zM684 -10q-59 0 -101 42t-42 103q0 59 42 102.5t101 43.5q61 0 103 -43t42 -103q0 -61 -42 -103t-103 -42zM1140.5 -10q-59.5 0 -102.5 42t-43 103 q0 59 43 102.5t102.5 43.5t102.5 -43t43 -103q0 -61 -43 -103t-102.5 -42z" glyph-name="ellipsis.aalt" horiz-adv-x="1370"/><glyph d="M1679 616h-1630v230h1630v-230z" glyph-name="emdash.aalt" horiz-adv-x="1728"/><glyph d="M1407 616h-1358v230h1358v-230z" glyph-name="endash.aalt" horiz-adv-x="1456"/><glyph d="M428 469h-246l-35 594v399h316v-399zM305 -18q-72 0 -124 52t-52 123.5t52 124t124 52.5t124 -52.5t52 -124t-52 -123.5t-124 -52z" glyph-name="exclam.aalt" horiz-adv-x="610"/><glyph d="M305 1063q72 0 124 -52.5t52 -124t-52 -123.5t-124 -52t-124 52t-52 123.5t52 124t124 52.5zM147 -18l35 593h246l35 -593v-400h-316v400z" glyph-name="exclamdown.aalt" horiz-adv-x="610"/><glyph d="M1165.5 1192q-71.5 0 -123 52t-51.5 124t51.5 124t123 52t123.5 -52t52 -124t-52 -124t-123.5 -52zM258 1044v91q0 170 85 261t243 91q109 0 225 -51v-236q-70 35 -135 35q-117 0 -117 -113v-78h252v-237h-252v-807h-301v807h-195v237h195zM1317 0h-301v1044h301v-1044z " glyph-name="glyph758" horiz-adv-x="1443"/><glyph d="M719 930q248 0 381 -120t133 -341q0 -240 -157.5 -367t-454.5 -127q-260 0 -445 93v272q197 -96 414 -96q309 0 309 225q0 113 -81 166t-255 53q-188 0 -362 -57l73 770h852v-268h-563l-20 -222h8q86 19 168 19z" glyph-name="five.tnum" horiz-adv-x="1386"/><glyph d="M1083 0h-317v301h-670v219l549 881h438v-832h183v-268h-183v-301zM760 1061l-326 -492h332v492h-6z" glyph-name="four.tnum" horiz-adv-x="1361"/><glyph d="M829 616h-780v230h780v-230z" glyph-name="hyphen.aalt" horiz-adv-x="878"/><glyph d="M278.5 1192q-71.5 0 -123 52t-51.5 124t51.5 124t123 52t124 -52t52.5 -124t-52.5 -124t-124 -52zM430 0h-301v1044h301v-1044z" glyph-name="i.aalt" horiz-adv-x="557"/><glyph d="M278.5 1192q-71.5 0 -123 52t-51.5 124t51.5 124t123 52t124 -52t52.5 -124t-52.5 -124t-124 -52zM858 1192q-72 0 -124 52t-52 124t52 124t124 52t123 -52t51 -124t-51 -124t-123 -52zM430 0h-301v1044h301v-1044zM625 -393q-133 0 -246 59v223q84 -45 162 -45 q166 0 166 191v1009h301v-1009q0 -207 -98.5 -317.5t-284.5 -110.5z" glyph-name="ij.aalt" horiz-adv-x="1136"/><glyph d="M383 1192q-72 0 -124 52t-52 124t52 124t124 52t123 -52t51 -124t-51 -124t-123 -52zM150 -393q-133 0 -246 59v223q84 -45 162 -45q166 0 165 191v1009h301v-1009q0 -207 -98 -317.5t-284 -110.5z" glyph-name="j.aalt" horiz-adv-x="661"/><glyph d="M436 0h-299v1462h299v-1462zM676 627q-45 0 -77 30.5t-32 75.5t32 77t77 32t75.5 -32t30.5 -77t-30.5 -75.5t-75.5 -30.5z" glyph-name="glyph765" horiz-adv-x="798"/><glyph d="M674 1425q281 0 437.5 -178t156.5 -497q0 -367 -173 -571t-485 -204q-197 0 -350 86v273q141 -90 318 -90q330 0 366 342h-10q-113 -113 -320 -113q-225 0 -359 125t-134 336q0 221 152.5 356t400.5 135zM690 702q104 0 170 64.5t66 167.5q-4 104 -68.5 167.5 t-167.5 63.5q-106 0 -171.5 -64.5t-65.5 -166.5q0 -104 65.5 -168t171.5 -64z" glyph-name="nine.tnum" horiz-adv-x="1388"/><glyph d="M948 0h-315v1059h-8l-363 -236v322l395 256h291v-1401z" glyph-name="one.tnum" horiz-adv-x="1361"/><glyph d="M227 -10q-59 0 -101 42t-42 103q0 59 42 102.5t101 43.5q61 0 103.5 -43t42.5 -103q0 -61 -42.5 -103t-103.5 -42z" glyph-name="period.aalt" horiz-adv-x="456"/><glyph d="M227 377q-59 0 -101 43t-42 102.5t42 102.5t101 43q61 0 103.5 -43t42.5 -102.5t-42.5 -102.5t-103.5 -43z" glyph-name="periodcentered.aalt" horiz-adv-x="456"/><glyph d="M657 412h-301v143q0 61 26 107.5t93 109.5l141 129q94 92 95 172q0 78 -60.5 120t-173.5 42q-170 0 -371 -84v250q203 86 404 86q242 0 380 -105.5t138 -289.5q0 -182 -172 -340l-139 -129q-59 -57 -60 -121v-90zM506 -18q-72 0 -123 52t-51 123.5t51 124t123 52.5 q74 0 125 -52.5t51 -124t-51 -123.5t-125 -52z" glyph-name="question.aalt" horiz-adv-x="1134"/><glyph d="M628.5 1063q71.5 0 124 -52.5t52.5 -124t-52.5 -123.5t-124 -52t-123.5 52t-52 123.5t52 124t123.5 52.5zM477 633h301v-144q0 -61 -25.5 -107t-93.5 -110l-141 -129q-94 -94 -94 -171.5t60.5 -119.5t172.5 -42q172 0 371 84v-250q-203 -86 -403 -86q-242 0 -380.5 105.5 t-138.5 289.5q0 182 173 340l139 129q59 53 59 121v90z" glyph-name="questiondown.aalt" horiz-adv-x="1134"/><glyph d="M290.5 766q-59.5 0 -102.5 42t-43 101q0 61 43 103.5t102.5 42.5t102.5 -42t43 -104q0 -59 -43 -101t-102.5 -42zM281 -225h-211l90 375h256z" glyph-name="semicolon.aalt" horiz-adv-x="505"/><glyph d="M676 0h-352l507 1124v9h-665v268h1030v-252z" glyph-name="seven.tnum" horiz-adv-x="1361"/></font>
</defs>
</svg>
