<svg width="24" height="24" viewBox="0 0 24 24" fill="none" xmlns="http://www.w3.org/2000/svg">
<g id="interface/so-mail">
<path id="Vector" d="M21 4H3C2.73478 4 2.48043 4.10536 2.29289 4.29289C2.10536 4.48043 2 4.73478 2 5V19C2 19.2652 2.10536 19.5196 2.29289 19.7071C2.48043 19.8946 2.73478 20 3 20H21C21.2652 20 21.5196 19.8946 21.7071 19.7071C21.8946 19.5196 22 19.2652 22 19V5C22 4.73478 21.8946 4.48043 21.7071 4.29289C21.5196 4.10536 21.2652 4 21 4ZM19.5 8.868L12.5 12.868C12.3489 12.9543 12.178 12.9997 12.004 12.9997C11.83 12.9997 11.6591 12.9543 11.508 12.868L4.508 8.868C4.39072 8.80462 4.28729 8.71842 4.20381 8.61448C4.12033 8.51055 4.05847 8.39097 4.02187 8.26277C3.98527 8.13458 3.97468 8.00037 3.99071 7.86802C4.00674 7.73567 4.04907 7.60787 4.11521 7.49212C4.18135 7.37637 4.26997 7.27502 4.37585 7.19402C4.48174 7.11301 4.60275 7.054 4.73177 7.02045C4.86079 6.9869 4.99522 6.97948 5.12715 6.99864C5.25908 7.01779 5.38585 7.06314 5.5 7.132L12 10.849L18.5 7.132C18.614 7.06634 18.7398 7.02377 18.8702 7.00673C19.0007 6.98969 19.1332 6.99851 19.2602 7.03268C19.3872 7.06685 19.5063 7.12571 19.6106 7.20589C19.7149 7.28607 19.8023 7.38601 19.868 7.5C19.9337 7.61399 19.9762 7.73979 19.9933 7.87023C20.0103 8.00067 20.0015 8.13319 19.9673 8.26022C19.9331 8.38725 19.8743 8.5063 19.7941 8.61059C19.7139 8.71487 19.614 8.80234 19.5 8.868Z" fill="#454857"/>
</g>
</svg>
