<svg width="37" height="36" viewBox="0 0 37 36" fill="none" xmlns="http://www.w3.org/2000/svg">
<path d="M18.5874 36C28.5285 36 36.5874 27.9411 36.5874 18C36.5874 8.05887 28.5285 0 18.5874 0C8.64628 0 0.587402 8.05887 0.587402 18C0.587402 27.9411 8.64628 36 18.5874 36Z" fill="#FFCC4D"/>
<path d="M18.5874 29C20.2443 29 21.5874 27.6569 21.5874 26C21.5874 24.3431 20.2443 23 18.5874 23C16.9305 23 15.5874 24.3431 15.5874 26C15.5874 27.6569 16.9305 29 18.5874 29Z" fill="#664500"/>
<path d="M17.8994 16.6121C17.7234 16.4691 17.4724 16.4651 17.2894 16.5981C17.2774 16.6071 16.0294 17.5001 13.5874 17.5001C11.1464 17.5001 9.8974 16.6071 9.8874 16.6001C9.7044 16.4631 9.4524 16.4671 9.2764 16.6091C9.0984 16.7511 9.0384 16.9951 9.1304 17.2031C9.1904 17.3381 10.6304 20.5001 13.5874 20.5001C16.5454 20.5001 17.9844 17.3381 18.0444 17.2031C18.1364 16.9961 18.0764 16.7541 17.8994 16.6121ZM27.8994 16.6121C27.7234 16.4691 27.4734 16.4641 27.2894 16.5981C27.2774 16.6071 26.0284 17.5001 23.5874 17.5001C21.1474 17.5001 19.8974 16.6071 19.8874 16.6001C19.7044 16.4631 19.4534 16.4671 19.2764 16.6091C19.0984 16.7511 19.0384 16.9951 19.1304 17.2031C19.1904 17.3381 20.6304 20.5001 23.5874 20.5001C26.5454 20.5001 27.9844 17.3381 28.0444 17.2031C28.1364 16.9961 28.0764 16.7541 27.8994 16.6121Z" fill="#664500"/>
<path d="M35.0174 12.5341C35.0214 12.4901 35.0404 12.4571 35.0404 12.4111C35.0404 11.6571 34.4924 11.2231 33.8154 11.2231H30.2334L34.5124 5.23008C34.7184 4.94708 34.7944 4.77708 34.7944 4.41908C34.7944 3.68408 34.1544 3.57008 33.9094 3.57008H28.5604L28.5284 2.88208C28.5284 2.88208 27.1194 3.71308 27.0254 3.77008C26.9314 3.82708 26.5204 4.14208 26.5204 4.75708C26.5204 5.51108 27.0664 5.94408 27.7454 5.94408H30.8944L26.6334 11.9371C26.5394 12.0881 26.3894 12.3701 26.3894 12.6721C26.3894 13.2941 26.8974 13.5961 27.5004 13.5961H33.8154C34.0734 13.5961 34.3304 13.5201 34.4964 13.4201L35.9994 12.5321H35.0174V12.5341Z" fill="#FFAC33"/>
<path d="M32.3584 5.08398H29.2094C28.5304 5.08398 27.9844 4.65098 27.9844 3.89698C27.9844 3.14298 28.5304 2.70898 29.2094 2.70898H35.3734C35.6184 2.70898 36.2584 2.82198 36.2584 3.55698C36.2584 3.91498 36.1824 4.08498 35.9764 4.36798L31.6974 10.361H35.2794C35.9564 10.361 36.5044 10.794 36.5044 11.548C36.5044 12.302 35.9564 12.735 35.2794 12.735H28.9644C28.3614 12.735 27.8534 12.433 27.8534 11.811C27.8534 11.509 28.0034 11.227 28.0974 11.076L32.3584 5.08398Z" fill="#2A6797"/>
<path d="M25.4734 7.4801C25.4764 7.4471 25.4914 7.4221 25.4914 7.3881C25.4914 6.8241 25.0814 6.4991 24.5744 6.4991H21.8924L25.0954 2.0121C25.2514 1.8001 25.3074 1.6731 25.3074 1.4061C25.3074 0.856103 24.8284 0.771104 24.6444 0.771104H20.6404L20.6164 0.256104C20.6164 0.256104 19.5614 0.878103 19.4914 0.921103C19.4214 0.964103 19.1134 1.2001 19.1134 1.6601C19.1134 2.2241 19.5224 2.5491 20.0304 2.5491H22.3874L19.1974 7.0361C19.1274 7.1491 19.0144 7.3601 19.0144 7.5861C19.0144 8.0521 19.3944 8.2771 19.8464 8.2771H24.5744C24.7674 8.2771 24.9594 8.2201 25.0844 8.1451L26.2094 7.4801H25.4734Z" fill="#FFAC33"/>
<path d="M23.4834 1.903H21.1264C20.6184 1.903 20.2094 1.579 20.2094 1.014C20.2094 0.45 20.6184 0.125 21.1264 0.125H25.7414C25.9254 0.125 26.4044 0.21 26.4044 0.76C26.4044 1.028 26.3474 1.155 26.1934 1.367L22.9904 5.854H25.6723C26.1774 5.854 26.5874 6.178 26.5874 6.743C26.5874 7.308 26.1774 7.632 25.6704 7.632H20.9424C20.4904 7.632 20.1104 7.406 20.1104 6.941C20.1104 6.715 20.2234 6.504 20.2934 6.391L23.4834 1.903Z" fill="#2A6797"/>
<path d="M18.3284 10.425C18.3314 10.397 18.3434 10.376 18.3434 10.346C18.3434 9.86297 17.9924 9.58497 17.5584 9.58497H15.2634L18.0054 5.74497C18.1374 5.56397 18.1864 5.45497 18.1864 5.22597C18.1864 4.75497 17.7764 4.68197 17.6194 4.68197H14.1924L14.1714 4.24097L13.2084 4.80997C13.1484 4.84697 12.8844 5.04797 12.8844 5.44297C12.8844 5.92597 13.2344 6.20397 13.6694 6.20397H15.6864L12.9564 10.044C12.8964 10.141 12.7994 10.322 12.7994 10.515C12.7994 10.914 13.1254 11.107 13.5114 11.107H17.5584C17.7234 11.107 17.8884 11.058 17.9944 10.994L18.9574 10.425H18.3284Z" fill="#FFAC33"/>
<path d="M16.6244 5.65188H14.6074C14.1724 5.65188 13.8224 5.37388 13.8224 4.89088C13.8224 4.40788 14.1724 4.12988 14.6074 4.12988H18.5574C18.7144 4.12988 19.1244 4.20288 19.1244 4.67388C19.1244 4.90288 19.0764 5.01188 18.9434 5.19288L16.2014 9.03288H18.4964C18.9304 9.03288 19.2814 9.31088 19.2814 9.79388C19.2814 10.2769 18.9304 10.5549 18.4964 10.5549H14.4494C14.0634 10.5549 13.7374 10.3619 13.7374 9.96288C13.7374 9.76988 13.8334 9.58888 13.8944 9.49188L16.6244 5.65188Z" fill="#2A6797"/>
</svg>
