<svg width="34" height="33" viewBox="0 0 34 33" fill="none" xmlns="http://www.w3.org/2000/svg">
<g id="Emoji / Star">
<path id="Vector" d="M33.3469 14.893L24.4479 11.599L21.1249 0.708C20.9969 0.288 20.6079 0 20.1689 0C19.7299 0 19.3409 0.288 19.2129 0.708L15.8909 11.599L6.99089 14.893C6.59789 15.039 6.33789 15.412 6.33789 15.831C6.33789 16.249 6.59789 16.624 6.99089 16.769L15.8859 20.062L19.2099 31.285C19.3359 31.709 19.7259 32 20.1689 32C20.6109 32 21.0019 31.709 21.1279 31.284L24.4519 20.061L33.3479 16.768C33.7389 16.624 33.9999 16.25 33.9999 15.831C33.9999 15.413 33.7389 15.039 33.3469 14.893Z" fill="#FFAC33"/>
<path id="Vector_2" d="M13.347 25.8939L11.033 25.0379L10.133 21.7379C10.015 21.3019 9.62 20.9999 9.169 20.9999C8.718 20.9999 8.323 21.3019 8.204 21.7369L7.304 25.0369L4.991 25.8929C4.598 26.0379 4.338 26.4129 4.338 26.8309C4.338 27.2489 4.598 27.6239 4.991 27.7689L7.292 28.6219L8.199 32.2439C8.311 32.6879 8.71 32.9999 9.169 32.9999C9.628 32.9999 10.027 32.6879 10.139 32.2429L11.046 28.6209L13.347 27.7679C13.74 27.6239 14 27.2489 14 26.8309C14 26.4129 13.74 26.0379 13.347 25.8939ZM9.009 4.23089L6.645 3.35589L5.769 0.990891C5.624 0.59789 5.25 0.337891 4.831 0.337891C4.413 0.337891 4.039 0.59789 3.893 0.990891L3.018 3.35589L0.653 4.23089C0.26 4.37689 0 4.75089 0 5.16889C0 5.58689 0.26 5.96189 0.653 6.10689L3.018 6.98189L3.893 9.34689C4.039 9.73989 4.413 9.99989 4.831 9.99989C5.249 9.99989 5.623 9.73989 5.769 9.34689L6.644 6.98189L9.009 6.10689C9.402 5.96089 9.662 5.58689 9.662 5.16889C9.662 4.75089 9.402 4.37689 9.009 4.23089Z" fill="#FFCC4D"/>
</g>
</svg>
