<svg width="23" height="24" viewBox="0 0 23 24" fill="none" xmlns="http://www.w3.org/2000/svg">
<path d="M11.3393 22.6787C17.6019 22.6787 22.6787 17.6019 22.6787 11.3393C22.6787 5.0768 17.6019 0 11.3393 0C5.0768 0 0 5.0768 0 11.3393C0 17.6019 5.0768 22.6787 11.3393 22.6787Z" fill="#FFCB4C"/>
<path d="M9.02043 14.0191C8.92371 13.9417 8.84834 13.8363 8.81232 13.7096C8.72294 13.4028 8.89903 13.0973 9.20586 13.0286C12.2261 12.3476 14.2599 13.9377 14.3459 14.0058C14.6021 14.2099 14.6521 14.5694 14.4613 14.8095C14.2705 15.0483 13.909 15.077 13.6536 14.8742C13.5802 14.8182 11.9707 13.5915 9.53003 14.1418C9.34727 14.1825 9.16051 14.1312 9.02043 14.0191Z" fill="#65471B"/>
<path d="M8.08343 9.21509C8.86625 9.21509 9.50085 8.42191 9.50085 7.44348C9.50085 6.46505 8.86625 5.67188 8.08343 5.67188C7.30062 5.67188 6.66602 6.46505 6.66602 7.44348C6.66602 8.42191 7.30062 9.21509 8.08343 9.21509Z" fill="#65471B"/>
<path d="M15.5912 9.91821C16.3741 9.91821 17.0087 9.12504 17.0087 8.14661C17.0087 7.16818 16.3741 6.375 15.5912 6.375C14.8084 6.375 14.1738 7.16818 14.1738 8.14661C14.1738 9.12504 14.8084 9.91821 15.5912 9.91821Z" fill="#65471B"/>
<path d="M10.8563 23.4308C10.8563 23.4308 11.7001 23.1566 11.8095 22.529C11.9249 21.8806 11.3933 21.7505 11.3933 21.7505C11.3933 21.7505 12.0876 21.6118 12.175 20.8327C12.2571 20.0983 11.6007 19.9236 11.6007 19.9236C11.6007 19.9236 12.2477 19.6568 12.2784 18.897C12.3038 18.2574 11.6147 17.9445 11.6147 17.9445C11.6147 17.9445 14.9752 17.1301 15.3207 17.05C15.6649 16.97 16.2012 16.6398 16.0337 15.9201C15.8676 15.1997 15.2306 15.1744 14.9018 15.2511C14.5723 15.3278 10.4034 16.2956 8.96531 16.6305L8.00547 16.8533C7.64528 16.938 7.48186 16.7799 7.73599 16.5118C8.07484 16.1542 8.29162 15.7587 8.36699 15.1023C8.44637 14.412 8.21225 13.5595 8.07818 13.2287C7.82871 12.6144 7.40782 12.1288 6.92156 11.962C6.16316 11.7019 5.62421 12.1761 5.89302 13.0032C6.2959 14.2399 6.03176 15.2544 5.33739 15.8668C3.70385 17.3055 2.94412 18.3314 3.44972 20.5179C4.00201 22.9025 6.36927 24.4373 8.75387 23.885L10.8563 23.4308Z" fill="#F19020"/>
<path d="M5.53332 4.22811C5.42392 4.16942 5.33121 4.0787 5.27251 3.96197C5.12843 3.67649 5.24583 3.34364 5.53465 3.22025C8.38016 1.99893 10.67 3.19156 10.7661 3.24292C11.0549 3.39701 11.1716 3.74119 11.0269 4.01267C10.8828 4.28281 10.5333 4.37686 10.2445 4.22478C10.1624 4.18276 8.35548 3.26961 6.05693 4.25613C5.8855 4.32883 5.69207 4.31283 5.53332 4.22811ZM13.6276 6.72944C13.5236 6.66407 13.4368 6.56735 13.3861 6.44662C13.2614 6.1518 13.4015 5.8283 13.6983 5.72357C16.6205 4.69903 18.8244 6.04374 18.9164 6.10177C19.1932 6.2752 19.2866 6.62672 19.1245 6.88753C18.9631 7.14766 18.6069 7.2177 18.3301 7.04628C18.2501 6.99825 16.5111 5.96503 14.1499 6.79347C13.9725 6.85417 13.781 6.82416 13.6276 6.72944Z" fill="#65471B"/>
</svg>
