<svg width="37" height="36" viewBox="0 0 37 36" fill="none" xmlns="http://www.w3.org/2000/svg">
<path d="M32.4727 8H26.4727V4C26.4727 1.791 24.6817 0 22.4727 0H14.4727C12.2637 0 10.4727 1.791 10.4727 4V8H4.47266C2.26366 8 0.472656 9.791 0.472656 12V32C0.472656 34.209 2.26366 36 4.47266 36H32.4727C34.6817 36 36.4727 34.209 36.4727 32V12C36.4727 9.791 34.6817 8 32.4727 8ZM12.4727 6C12.4727 4.896 13.3687 4 14.4727 4H22.4727C23.5767 4 24.4727 4.896 24.4727 6V8H12.4727V6Z" fill="#9A4E1C"/>
<path d="M36.4727 20C36.4727 22.209 34.6817 24 32.4727 24H4.47266C2.26366 24 0.472656 22.209 0.472656 20V12C0.472656 9.791 2.26366 8 4.47266 8H32.4727C34.6817 8 36.4727 9.791 36.4727 12V20Z" fill="#662113"/>
<path d="M36.4727 18C36.4727 20.209 34.6817 22 32.4727 22H4.47266C2.26366 22 0.472656 20.209 0.472656 18V12C0.472656 9.791 2.26366 8 4.47266 8H32.4727C34.6817 8 36.4727 9.791 36.4727 12V18Z" fill="#9A4E1C"/>
<path d="M22.4727 18C22.4727 19.104 21.5767 20 20.4727 20H16.4727C15.3687 20 14.4727 19.104 14.4727 18C14.4727 16.896 15.3687 16 16.4727 16H20.4727C21.5767 16 22.4727 16.896 22.4727 18Z" fill="#CCD6DD"/>
</svg>
