<svg width="36" height="36" viewBox="0 0 36 36" fill="none" xmlns="http://www.w3.org/2000/svg">
<g id="Emoji / Star_2">
<path id="Vector" d="M28.8403 17.6375C27.8533 18.6815 27.2073 20.7045 27.4023 22.1305L28.2943 28.5715C28.4913 29.9985 27.5933 30.6585 26.2983 30.0405L20.4473 27.2445C19.1523 26.6245 17.0393 26.6335 15.7473 27.2625L9.92133 30.1045C8.63033 30.7335 7.72833 30.0785 7.91433 28.6525L8.75733 22.2035C8.94333 20.7765 8.28233 18.7595 7.28733 17.7225L2.79333 13.0345C1.79733 11.9975 2.13834 10.9325 3.54834 10.6695L9.91833 9.48151C11.3283 9.21851 13.0343 7.96351 13.7113 6.69251L16.7623 0.955505C17.4373 -0.315495 18.5513 -0.318495 19.2353 0.946505L22.3303 6.65951C23.0163 7.92451 24.7303 9.1665 26.1443 9.41751L32.5223 10.5585C33.9343 10.8105 34.2833 11.8725 33.2963 12.9175L28.8403 17.6375Z" fill="#FFAC33"/>
<path id="Vector_2" d="M9.78325 2.18043C10.8063 3.59343 12.2293 7.09743 11.5003 7.62743C10.7723 8.15843 7.89325 5.71743 6.87025 4.30443C5.84825 2.89143 5.93525 1.63643 6.73925 1.05043C7.54325 0.463431 8.75925 0.768431 9.78325 2.18043ZM29.1313 4.30443C28.1093 5.71743 25.2303 8.15943 24.5003 7.62643C23.7713 7.09643 25.1953 3.59343 26.2193 2.18143C27.2423 0.767431 28.4573 0.462431 29.2623 1.05043C30.0653 1.63643 30.1523 2.89143 29.1313 4.30443ZM16.6253 33.2904C16.6243 31.5444 17.5233 27.8694 18.4263 27.8694C19.3233 27.8694 20.2243 31.5444 20.2233 33.2894C20.2233 35.0364 19.4193 36.0014 18.4233 35.9994C17.4293 36.0014 16.6253 35.0374 16.6253 33.2904ZM32.8043 24.0284C31.1493 23.4894 27.9463 21.4954 28.2253 20.6334C28.5023 19.7754 32.2623 20.0524 33.9153 20.5924C35.5703 21.1324 36.2363 22.1974 35.9283 23.1484C35.6203 24.0984 34.4593 24.5684 32.8043 24.0284ZM2.08325 20.5934C3.73825 20.0534 7.49725 19.7764 7.77725 20.6374C8.05325 21.4944 4.84925 23.4914 3.19625 24.0294C1.54225 24.5694 0.378253 24.0994 0.0732527 23.1494C-0.234747 22.1994 0.427253 21.1344 2.08325 20.5934Z" fill="#FFD983"/>
</g>
</svg>
