<svg width="33" height="36" viewBox="0 0 33 36" fill="none" xmlns="http://www.w3.org/2000/svg">
<path d="M31.0454 3C24.0454 0 16.0454 0 16.0454 0C16.0454 0 8.04541 0 1.04541 3C-1.95459 18 1.04541 31 16.0454 36C31.0454 31 34.0454 18 31.0454 3Z" fill="#CCD6DD"/>
<path d="M16.0454 33.884C4.45741 29.729 0.0064106 19.831 2.80541 4.444C9.10841 2.029 15.9734 2 16.0454 2C16.1164 2 23.0034 2.04 29.2854 4.444C32.0844 19.831 27.6334 29.729 16.0454 33.884Z" fill="#55ACEE"/>
<path d="M29.2854 4.444C23.0034 2.04 16.1164 2 16.0454 2V33.884C27.6334 29.729 32.0844 19.831 29.2854 4.444Z" fill="#226699"/>
</svg>
