<svg width="35" height="36" viewBox="0 0 35 36" fill="none" xmlns="http://www.w3.org/2000/svg">
<path d="M30.0012 32C30.0012 34.209 28.2102 36 26.0012 36H4.00122C1.79222 36 0.0012207 34.209 0.0012207 32V4C0.0012207 1.791 1.79222 0 4.00122 0H26.0012C28.2102 0 30.0012 1.791 30.0012 4V32Z" fill="#CCD6DD"/>
<path d="M26.0012 24C26.0012 24.553 25.5542 25 25.0012 25H5.00122C4.44922 25 4.00122 24.553 4.00122 24C4.00122 23.447 4.44922 23 5.00122 23H25.0012C25.5542 23 26.0012 23.447 26.0012 24ZM10.0012 28C10.0012 28.553 9.55322 29 9.00122 29H5.00122C4.44922 29 4.00122 28.553 4.00122 28C4.00122 27.447 4.44922 27 5.00122 27H9.00122C9.55322 27 10.0012 27.447 10.0012 28ZM26.0012 8C26.0012 8.552 25.5542 9 25.0012 9H5.00122C4.44922 9 4.00122 8.552 4.00122 8C4.00122 7.448 4.44922 7 5.00122 7H25.0012C25.5542 7 26.0012 7.448 26.0012 8ZM26.0012 12C26.0012 12.553 25.5542 13 25.0012 13H5.00122C4.44922 13 4.00122 12.553 4.00122 12C4.00122 11.447 4.44922 11 5.00122 11H25.0012C25.5542 11 26.0012 11.447 26.0012 12ZM26.0012 16C26.0012 16.553 25.5542 17 25.0012 17H5.00122C4.44922 17 4.00122 16.553 4.00122 16C4.00122 15.447 4.44922 15 5.00122 15H25.0012C25.5542 15 26.0012 15.447 26.0012 16ZM26.0012 20C26.0012 20.553 25.5542 21 25.0012 21H5.00122C4.44922 21 4.00122 20.553 4.00122 20C4.00122 19.447 4.44922 19 5.00122 19H25.0012C25.5542 19 26.0012 19.447 26.0012 20Z" fill="#99AAB5"/>
<path d="M30.0013 6.27208C29.1743 5.73708 28.1643 5.69308 27.4803 6.24908L26.6883 6.89508L25.2043 8.10608L25.1043 8.18608L22.7283 10.1241L10.8503 19.8101C10.4133 20.1671 10.0573 21.0291 9.67727 21.8841C9.29927 22.7341 8.70827 24.7361 8.23427 26.2751C8.08627 26.5251 7.16927 28.1211 7.68327 28.7281C8.20327 29.3431 10.0093 28.7381 10.2513 28.6521C11.8773 28.4781 13.9823 28.2791 14.8993 28.0721C15.8233 27.8611 16.7533 27.6771 17.1903 27.3201C17.1983 27.3141 17.2003 27.3021 17.2073 27.2971L29.0653 17.6311L29.8573 16.9851L30.0013 16.8671V6.27208Z" fill="#66757F"/>
<path d="M17.1462 22.5259C17.1462 22.5259 15.8722 20.6449 15.0292 19.9729C14.3572 19.1299 12.4802 17.8569 12.4802 17.8569C12.0322 17.4109 11.2892 17.3769 10.8512 17.8139C10.4142 18.2519 10.0582 19.1799 9.67823 20.1049C9.20623 21.2509 8.40223 24.2589 7.91023 25.8569C7.82723 26.1289 8.42723 25.4069 8.41323 25.6469C8.40323 25.8339 8.44023 26.0409 8.48723 26.2279L8.34123 26.3869L8.54923 26.4539C8.57423 26.5359 8.59923 26.6079 8.61723 26.6639L8.77623 26.5179C8.96323 26.5649 9.17023 26.6019 9.35623 26.5919C9.59623 26.5779 8.87323 27.1789 9.14623 27.0949C10.7442 26.6019 13.7532 25.7989 14.8982 25.3269C15.8222 24.9459 16.7522 24.5909 17.1892 24.1529C17.6282 23.7179 17.5952 22.9749 17.1462 22.5259Z" fill="#D99E82"/>
<path d="M24.3133 4.35111C23.4373 5.22611 23.4373 6.64411 24.3133 7.51911L27.4802 10.6871C28.3562 11.5611 29.7742 11.5611 30.6482 10.6871L33.8173 7.51911C34.6913 6.64411 34.6913 5.22611 33.8173 4.35111L30.6482 1.18311C29.7742 0.308105 28.3562 0.308105 27.4802 1.18311L24.3133 4.35111Z" fill="#EA596E"/>
<path d="M10.8503 17.815L14.0203 20.985L17.1853 24.151L29.0663 12.272L22.7293 5.93604L10.8503 17.815Z" fill="#FFCC4D"/>
<path d="M10.2993 26.742C10.2993 26.742 8.23929 27.875 7.68329 27.318C7.12629 26.76 8.26429 24.707 8.26429 24.707C8.26429 24.707 10.2153 24.743 10.2993 26.742Z" fill="#292F33"/>
<path d="M22.7292 5.9351L26.6892 1.9751L33.0252 8.3121L29.0652 12.2721L22.7292 5.9351Z" fill="#CCD6DD"/>
<path d="M25.1042 3.55811L25.8962 2.76611L32.2322 9.10111L31.4402 9.89311L25.1042 3.55811ZM23.5212 5.14211L24.3122 4.35111L30.6482 10.6861L29.8562 11.4781L23.5212 5.14211Z" fill="#99AAB5"/>
</svg>
