<svg width="25" height="24" viewBox="0 0 25 24" fill="none" xmlns="http://www.w3.org/2000/svg">
<path fill-rule="evenodd" clip-rule="evenodd" d="M24.5 12C24.5 5.37309 19.1269 0 12.5 0C5.87309 0 0.5 5.37309 0.5 12C0.5 17.989 4.88761 22.9537 10.6252 23.8549V15.4696H7.57748V12H10.6252V9.35562C10.6252 6.34843 12.4173 4.68621 15.1578 4.68621C16.4707 4.68621 17.8444 4.92077 17.8444 4.92077V7.87398H16.3306C14.8406 7.87398 14.3748 8.79875 14.3748 9.7488V11.9999H17.7026L17.171 15.4695H14.3747V23.8549C20.1123 22.9553 24.4999 17.9906 24.4999 11.9999L24.5 12Z" fill="#1977F3"/>
<path fill-rule="evenodd" clip-rule="evenodd" d="M17.1711 15.4696L17.7027 12H14.375V9.74887C14.375 8.80048 14.839 7.87406 16.3308 7.87406H17.8446V4.92084C17.8446 4.92084 16.471 4.68628 15.158 4.68628C12.4175 4.68628 10.6253 6.34683 10.6253 9.35569V12.0001H7.57764V15.4697H10.6253V23.855C11.2362 23.9511 11.8623 24.0001 12.5002 24.0001C13.138 24.0001 13.7641 23.9494 14.375 23.855V15.4697H17.1712L17.1711 15.4696Z" fill="white"/>
</svg>
