<svg width="24" height="24" viewBox="0 0 24 24" fill="none" xmlns="http://www.w3.org/2000/svg">
<g clip-path="url(#clip0_572_2797)">
<path d="M24 12.2755C24 11.4598 23.9326 10.6397 23.7886 9.83716H12.2407V14.4581H18.8537C18.5792 15.9485 17.6975 17.2669 16.4064 18.1047V21.103H20.3517C22.6685 19.013 24 15.9264 24 12.2755Z" fill="#4285F4"/>
<path d="M12.2409 24.0001C15.5428 24.0001 18.3275 22.9374 20.3563 21.1032L16.4111 18.1048C15.3134 18.8368 13.8964 19.2512 12.2454 19.2512C9.05137 19.2512 6.34322 17.1392 5.37152 14.2996H1.30029V17.3905C3.37864 21.4427 7.61182 24.0001 12.2409 24.0001Z" fill="#34A853"/>
<path d="M5.36663 14.2995C4.85379 12.8091 4.85379 11.1953 5.36663 9.70496V6.61401H1.2999C-0.436556 10.0048 -0.436556 13.9996 1.2999 17.3904L5.36663 14.2995Z" fill="#FBBC04"/>
<path d="M12.2409 4.74893C13.9863 4.72247 15.6733 5.36623 16.9374 6.54794L20.4328 3.12188C18.2195 1.08477 15.2819 -0.0351984 12.2409 7.62441e-05C7.61182 7.62441e-05 3.37864 2.55749 1.30029 6.61408L5.36702 9.70502C6.33422 6.861 9.04687 4.74893 12.2409 4.74893Z" fill="#EA4335"/>
</g>
<defs>
<clipPath id="clip0_572_2797">
<rect width="24" height="24" fill="white"/>
</clipPath>
</defs>
</svg>
