<svg width="118" height="48" viewBox="0 0 118 48" fill="none" xmlns="http://www.w3.org/2000/svg">
<path d="M63.941 7.01109V7.83205C63.941 13.0307 63.961 18.2316 63.941 23.4302C63.9188 27.8678 61.8982 31.1206 57.9345 33.1064C56.7988 33.6745 55.2506 33.9096 53.8887 33.9008L53.8754 30.5903C55.8562 30.5415 58.296 29.2879 59.4805 27.535C60.226 26.4713 60.6312 25.2063 60.6428 23.9073C60.6428 19.767 60.6428 22.7313 60.6428 10.3149H53.8666C53.8666 9.11008 53.8666 7.70114 53.8666 7C57.014 7.01331 60.6649 7.01109 63.941 7.01109Z" fill="CurrentColor"/>
<path d="M79.0749 13.7253C77.0624 13.7253 75.0951 14.317 73.4218 15.4256C71.7484 16.5342 70.4443 18.1098 69.6742 19.9533C68.9042 21.7967 68.7028 23.8252 69.0956 25.7821C69.4884 27.739 70.4577 29.5365 71.8809 30.9472C73.3041 32.3579 75.1173 33.3185 77.0912 33.7075C79.0651 34.0965 81.111 33.8964 82.9702 33.1326C84.8294 32.3687 86.4184 31.0754 87.5362 29.4161C88.654 27.7569 89.2503 25.8063 89.2499 23.811C89.2493 21.1359 88.177 18.5706 86.2689 16.6792C84.3608 14.7879 81.7731 13.7253 79.0749 13.7253ZM79.0749 30.6557C77.7023 30.6562 76.3603 30.253 75.2188 29.4972C74.0773 28.7414 73.1875 27.6669 72.662 26.4097C72.1365 25.1525 71.9989 23.769 72.2666 22.4342C72.5343 21.0994 73.1952 19.8733 74.1659 18.911C75.1365 17.9487 76.3731 17.2934 77.7194 17.028C79.0657 16.7626 80.4612 16.8991 81.7293 17.4201C82.9974 17.9411 84.0811 18.8232 84.8434 19.9549C85.6058 21.0867 86.0124 22.4171 86.012 23.778C86.0126 24.6816 85.8336 25.5764 85.4852 26.4114C85.1369 27.2463 84.626 28.005 83.9817 28.6441C83.3375 29.2833 82.5726 29.7903 81.7306 30.1362C80.8887 30.4821 79.9863 30.6601 79.0749 30.6601V30.6557Z" fill="CurrentColor"/>
<path d="M7.11667 7H4V11.8571H7.11667V7Z" fill="CurrentColor"/>
<path d="M23.9832 7H20.8665V11.8571H23.9832V7Z" fill="CurrentColor"/>
<path d="M20.8624 23.7514C20.8624 25.5771 20.1391 27.328 18.8516 28.6189C17.5641 29.9098 15.8179 30.6351 13.9972 30.6351C12.1764 30.6351 10.4302 29.9098 9.14271 28.6189C7.85523 27.328 7.13193 25.5771 7.13193 23.7514V20.4504H4V23.7514C4 23.8196 4 23.8856 4 23.9516C4.10754 29.4533 8.53877 33.9009 13.9928 33.9009C19.4468 33.9009 23.8692 29.4643 23.9833 23.9516C23.9833 23.8856 23.9833 23.8196 23.9833 23.7514V20.4504H20.8624V23.7514Z" fill="CurrentColor"/>
<path d="M104.367 13.5983C103.01 13.5359 101.655 13.7514 100.383 14.2316C99.1113 14.7119 97.9494 15.4471 96.9677 16.3926V7H93.833V23.8278C93.8491 25.8136 94.4429 27.751 95.5408 29.4005C96.6388 31.0499 98.1927 32.339 100.01 33.1082C101.828 33.8774 103.83 34.093 105.768 33.7283C107.706 33.3636 109.495 32.4346 110.915 31.0563C112.334 29.6779 113.321 27.9107 113.754 25.9733C114.187 24.0358 114.046 22.0131 113.349 20.1554C112.652 18.2976 111.43 16.6864 109.834 15.521C108.237 14.3555 106.337 13.6871 104.367 13.5983ZM103.844 30.6475C102.483 30.6475 101.154 30.2411 100.022 29.4799C98.8913 28.7186 98.0097 27.6365 97.4891 26.3706C96.9685 25.1046 96.8323 23.7116 97.0977 22.3677C97.3631 21.0237 98.0182 19.7893 98.9801 18.8203C99.9421 17.8514 101.168 17.1916 102.502 16.9242C103.836 16.6569 105.219 16.7941 106.476 17.3185C107.733 17.8429 108.807 18.7309 109.563 19.8702C110.319 21.0095 110.722 22.349 110.722 23.7193C110.721 25.556 109.996 27.3171 108.706 28.6154C107.416 29.9137 105.667 30.643 103.844 30.643V30.6475Z" fill="CurrentColor"/>
<path d="M40.4799 13.7253C37.8215 13.7258 35.2708 14.799 33.383 16.7114C31.4952 18.6238 30.4231 21.2205 30.3999 23.9365V41H33.5357V31.4826C34.7289 32.6433 36.1823 33.4875 37.7688 33.9414C39.3553 34.3952 41.0265 34.4448 42.6361 34.0859C44.2457 33.7269 45.7447 32.9704 47.0018 31.8824C48.2589 30.7944 49.2358 29.4082 49.8471 27.8451C50.4583 26.282 50.6853 24.5897 50.5081 22.9162C50.3309 21.2427 49.7549 19.6391 48.8305 18.2458C47.9061 16.8524 46.6616 15.7118 45.2058 14.9238C43.75 14.1357 42.1274 13.7242 40.4799 13.7253ZM40.403 31.0807C39.0436 31.078 37.7155 30.6638 36.5865 29.8902C35.4574 29.1166 34.5782 28.0185 34.0598 26.7346C33.5414 25.4507 33.4071 24.0386 33.6739 22.6767C33.9407 21.3148 34.5966 20.0643 35.5587 19.0832C36.5209 18.102 37.7461 17.4343 39.0796 17.1643C40.413 16.8943 41.7949 17.0342 43.0505 17.5663C44.3062 18.0984 45.3793 18.9989 46.1343 20.1539C46.8892 21.3089 47.2922 22.6666 47.2922 24.0555C47.293 24.9789 47.1157 25.8934 46.7702 26.7467C46.4247 27.6 45.918 28.3753 45.2789 29.0282C44.6398 29.6812 43.881 30.1989 43.0458 30.5519C42.2106 30.9049 41.3156 31.0861 40.4118 31.0852L40.403 31.0807Z" fill="CurrentColor"/>
</svg>
