<svg width="24" height="24" viewBox="0 0 24 24" fill="none" xmlns="http://www.w3.org/2000/svg">
<path d="M15.3534 10.9916C15.4188 11.209 15.4626 11.4315 15.4847 11.6558L12.3451 8.51616C12.5694 8.53828 12.7919 8.5821 13.0093 8.64747C13.5633 8.81403 14.0674 9.11533 14.4765 9.52439C14.8855 9.93346 15.1868 10.4375 15.3534 10.9916ZM8.51735 12.3489C8.45788 11.7537 8.55221 11.1568 8.78655 10.6139L9.57352 11.4008C9.48441 11.7616 9.47652 12.1392 9.55226 12.5059C9.65101 12.9841 9.8876 13.4228 10.2328 13.768C10.578 14.1133 11.0168 14.3498 11.4949 14.4486C11.8617 14.5243 12.2392 14.5165 12.6 14.4273L13.387 15.2143C12.844 15.4487 12.2472 15.543 11.652 15.4835C10.848 15.4032 10.0965 15.0471 9.52513 14.4757C8.95377 13.9044 8.59769 13.1529 8.51735 12.3489Z" fill="#454857" stroke="#454857"/>
<path fill-rule="evenodd" clip-rule="evenodd" d="M16.6264 18.4457L15.1218 16.7669C14.1269 17.3497 13.0727 17.7143 12 17.7143C10.4381 17.7143 8.91505 16.9394 7.55783 15.8491C6.20676 14.7634 5.10542 13.4354 4.40942 12.4914C4.30706 12.3531 4.23132 12.2491 4.16786 12.1589C4.13177 12.1075 4.09763 12.0545 4.06551 12C4.08598 11.9646 4.11771 11.9143 4.16786 11.8411C4.23132 11.7497 4.30706 11.6469 4.40942 11.5086C5.09007 10.5851 6.15967 9.29371 7.46981 8.22286L6.00614 6.58857C4.62743 7.768 3.52815 9.10857 2.82907 10.0571L2.75435 10.1577C2.43296 10.5863 2 11.1669 2 12.0011C2 12.8354 2.43296 13.416 2.75435 13.8446L2.82907 13.9451C3.58649 14.9726 4.81474 16.4629 6.36131 17.7051C7.89969 18.9406 9.84135 20 12 20C13.7093 20 15.2815 19.336 16.6264 18.4457ZM8.73081 4.784C9.73797 4.30743 10.8373 4 12 4C14.1597 4 16.1003 5.05943 17.6387 6.296C19.1842 7.53829 20.4135 9.02857 21.1699 10.056L21.2457 10.1566C21.567 10.5851 22 11.1657 22 12C22 12.8343 21.567 13.4149 21.2457 13.8434L21.1709 13.944C20.5361 14.8066 19.8469 15.6175 19.1085 16.3703L17.6592 14.752C18.4475 13.957 19.1745 13.0892 19.8321 12.1577C19.8682 12.1067 19.9023 12.0541 19.9345 12C19.9024 11.9455 19.8682 11.8925 19.8321 11.8411C19.753 11.7291 19.6724 11.6182 19.5906 11.5086C18.8946 10.5646 17.7932 9.23543 16.4432 8.15086C15.085 7.06057 13.5619 6.28571 12 6.28571C11.436 6.28571 10.8772 6.38629 10.3296 6.56686L8.73081 4.784Z" fill="#454857"/>
<path d="M5 2L21 18" stroke="#454857" stroke-width="2"/>
</svg>
