<svg width="24" height="24" viewBox="0 0 24 24" fill="none" xmlns="http://www.w3.org/2000/svg">
<path d="M11.9983 6C9.73457 6 7.92696 7.13929 6.5 8.5C5.16331 9.77857 4.47218 10.9286 4 12C4.47218 13.0714 5.16678 14.2214 6.5 15.5C7.93043 16.8607 9.73457 18 11.9983 18C14.262 18 16.073 16.8607 17.5 15.5C18.8367 14.2214 19.5278 13.0714 20 12C19.5278 10.9286 18.8332 9.77857 17.5 8.5C16.0696 7.13929 14.262 6 11.9983 6ZM5.31134 6.87857C6.94662 5.31429 9.19295 4 11.9983 4C14.8036 4 17.0499 5.31429 18.6852 6.87857C20.31 8.43214 21.3968 10.2857 21.9141 11.5607C22.0286 11.8429 22.0286 12.1571 21.9141 12.4393C21.3968 13.7143 20.31 15.5714 18.6852 17.1214C17.0499 18.6857 14.8036 20 11.9983 20C9.19295 20 6.94662 18.6857 5.31134 17.1214C3.68649 15.5714 2.59977 13.7143 2.08593 12.4393C1.97136 12.1571 1.97136 11.8429 2.08593 11.5607C2.59977 10.2857 3.68649 8.42857 5.31134 6.87857ZM11.9983 14.8571C13.5329 14.8571 14.7758 13.5786 14.7758 12C14.7758 10.4214 13.5329 9.14286 11.9983 9.14286H11.9288C11.974 9.325 11.9983 9.51786 11.9983 9.71429C11.9983 10.975 11.0018 12 9.77624 12C9.58528 12 9.3978 11.975 9.22073 11.9286V12C9.22073 13.5786 10.4637 14.8571 11.9983 14.8571ZM11.9983 7.42857C13.1769 7.42857 14.3073 7.9102 15.1407 8.76751C15.9741 9.62482 16.4423 10.7876 16.4423 12C16.4423 13.2124 15.9741 14.3752 15.1407 15.2325C14.3073 16.0898 13.1769 16.5714 11.9983 16.5714C10.8196 16.5714 9.68926 16.0898 8.85584 15.2325C8.02242 14.3752 7.55421 13.2124 7.55421 12C7.55421 10.7876 8.02242 9.62482 8.85584 8.76751C9.68926 7.9102 10.8196 7.42857 11.9983 7.42857Z" fill="CurrentColor"/>
</svg>
