<svg width="37" height="36" viewBox="0 0 37 36" fill="none" xmlns="http://www.w3.org/2000/svg">
<path d="M2.25142 36C0.315543 36 -0.53784 34.5938 0.353378 32.8755L16.7579 1.28875C17.6502 -0.429582 19.1099 -0.429582 20.0022 1.28875L36.4067 32.8765C37.3 34.5938 36.4456 36 34.5097 36H2.25142Z" fill="#FFCC4D"/>
<path d="M15.8405 29.6446C15.8405 28.2436 16.9808 27.1034 18.3827 27.1034C19.7837 27.1034 20.924 28.2436 20.924 29.6446C20.924 31.0466 19.7826 32.1869 18.3827 32.1869C16.9808 32.1869 15.8405 31.0466 15.8405 29.6446ZM16.0359 10.4193C16.0359 9.05093 17.0459 8.20386 18.3817 8.20386C19.6859 8.20386 20.7285 9.08351 20.7285 10.4193V22.9657C20.7285 24.3015 19.6859 25.1811 18.3817 25.1811C17.0459 25.1811 16.0359 24.333 16.0359 22.9657V10.4193Z" fill="#231F20"/>
</svg>
